<?xml version="1.0" encoding="utf-8"?>
<!-- Generator: Adobe Adobe Illustrator 24.2.0, SVG Export Plug-In . SVG Version: 6.00 Build 0)  -->
<svg version="1.1" xmlns="http://www.w3.org/2000/svg" xmlns:xlink="http://www.w3.org/1999/xlink" x="0px" y="0px"
	 viewBox="0 0 800 600" style="enable-background:new 0 0 800 600;" xml:space="preserve">
<style type="text/css">
	.st0{fill:#FFFFFF;}
	.st1{fill:#BDBBBC;}
	.st2{fill:#CDE9E1;}
	.st3{fill:#8A8888;}
	.st4{fill:#E59520;}
	.st5{fill:#FFDFC2;}
	.st6{fill:#B7B5B6;}
	.st7{fill:#CDCDCD;}
	.st8{fill:#B3B3B3;}
	.st9{fill:#C7A59C;}
	.st10{fill:#EDCDC4;}
	.st11{fill:#D8B2A9;}
	.st12{fill:#444653;}
	.st13{fill:#6A5D57;}
	.st14{fill:#574842;}
	.st15{fill:#FCE6C5;}
	.st16{fill:#989D97;}
	.st17{fill:#353642;}
	.st18{fill:#2D1D01;}
	.st19{fill:#81857F;}
	.st20{fill:#FEBF93;}
	.st21{fill:#F7BC92;}
	.st22{fill:#EFB38A;}
	.st23{fill:#593C31;}
	.st24{fill:#1F1712;}
	.st25{fill:#A0B8D7;}
	.st26{fill:#2C1C19;}
	.st27{fill:#734938;}
	.st28{fill:#F0F3DE;}
	.st29{fill:#6A4534;}
	.st30{fill:#F58C70;}
	.st31{fill:#DE7D5C;}
	.st32{fill:#C6A6C6;}
	.st33{fill:#B497B4;}
	.st34{fill:#F58E71;}
	.st35{fill:#F9BB90;}
	.st36{fill:#AA5F35;}
	.st37{fill:#FFA67C;}
	.st38{fill:#894625;}
	.st39{fill:#EE8C67;}
	.st40{fill:#DC7151;}
	.st41{fill:#DC7251;}
	.st42{fill:#703B38;}
	.st43{fill:#C45F5B;}
	.st44{fill:#EACDC7;}
	.st45{fill:#DD7352;}
	.st46{fill:#B75351;}
	.st47{fill:#717272;}
	.st48{fill:#70799D;}
	.st49{fill:#626A8A;}
	.st50{fill:#BB0000;}
	.st51{fill:#AA4848;}
	.st52{fill:#B75452;}
	.st53{fill:#BA1E1E;}
</style>
<g id="Layer_1">
	<g id="Layer_1_1_">
		<path d="M141,76c3.3,0.4,8.2,0.8,14,0c7.2-1,14.1-1.9,19-7c6.9-7.2,5.7-18.6,5-26c-0.6-5.5-1.9-9.9-3-13c1.6,2.1,4,4.9,7,8
			c1.5,1.5,5.7,5.8,10,9c10.5,7.7,22.2,8.8,24,9c11.6,1,20.2-2.6,26-5c12.1-5,20.2-12.6,25-18c-0.4,2.2-0.9,6.7,1,12
			c0.4,1.1,2.5,6.9,8,11c10.5,7.8,24.2,2.3,25,2c-1.1,2.8-2.7,6.9-4,12c-1.4,5.5-2.1,8.3-2,11c0.5,10.4,10.8,17.5,13,19
			c7.9,5.5,16.2,6,20,6c-4.2,0.2-11.3,1.2-18,6c-11,7.9-16.3,22.6-14,38c-2.1-1.1-5.9-2.9-11-3c-2-0.1-6.4-0.2-10,2
			c-5.4,3.2-8,10.8-7,19c-3.4-3.7-9.9-9.9-20-14c-3.6-1.4-16-6.3-31-3c-10,2.2-17,7.1-24,12c-5.3,3.7-9.3,7.3-12,10
			c0.8-3.4,1.7-9.6,0-17c-0.6-2.6-2.4-10-8-16c-11.1-11.9-29.1-9.3-31-9c2.6-1.8,7.7-5.9,11-13c3.1-6.7,3-12.7,3-14
			c-0.2-6.5-2.5-11.1-4-14C149.4,83,144.4,78.5,141,76z"/>
		<path id="dialog_inside_00000072240929242703510120000015354033414978235034_" class="st0" d="M159,95c-0.9-2.3-2.1-4.1-2.9-5.3
			c-1.5-2-2.9-3.6-4.1-4.7c-0.6-0.6-1.2-1.1-6.2-5.3c-2.1-1.8-2.9-2.4-2.8-2.7c0.2-0.5,2.5,0.5,6,1c3.1,0.4,5.5,0.2,7,0
			c1.2-0.1,5-0.6,9.3-2.6c2.8-1.2,7.4-3.3,11-8c4.1-5.3,4.7-10.9,5-14c0.1-1.5,0.6-6.8-1.4-13.1c-1.8-5.8-4.8-9.8-4.6-9.9
			c0.1-0.1,2.6,5.1,7,10c3.6,4,7.1,6.2,10,8c4.4,2.8,12.5,7.8,24,9c9.5,1,16.8-1.1,20-2c5.6-1.6,18.1-5.3,25.7-15.4
			c1.5-2,3.7-5.5,5-5c1.1,0.4,0.6,3.4,1,7c0.1,0.5,1,7.8,5.3,12.4c7.8,8.4,24.1,5.9,27,4.3c0.1-0.1,0.8-0.5,1-0.3
			c0.4,0.4-2.4,3.5-4,6c-3.4,5.4-3.1,11.3-3,14c0.5,9.1,5.4,15.1,7,17c1.5,1.7,4.5,5.3,9.7,7.6c6.3,2.8,11.9,2,12,3
			c0.1,0.9-4,1.3-8,3c-8,3.3-12.5,9.7-13.7,11.4c-8.9,13.1-4.3,28.5-4,29c0,0,0,0,0,0.1c-0.1,0.2-4.5-2.1-7-3c-4.3-1.5-10-1.2-14,1
			c-5.8,3.2-8.9,10.8-8,19c-2.9-3.3-7.8-8.1-15-12c-3.3-1.8-19.1-9.8-38-5c-3.5,0.9-17.1,4.4-25.3,14.6c-1.4,1.7-5,6.6-6,6
			c-0.6-0.4,0.1-2.8,0.3-3.6c2-7.3-0.6-16.6-3-21c-8.2-15.3-30.3-17.2-34.5-16.1c-0.2,0.1-1.3,0.4-1.5,0.1c-0.4-0.7,4.1-3.3,7-6
			C159.4,116.8,162.6,104.5,159,95z"/>
		<path d="M547,209c-0.1-0.6-0.3-0.4-1-2c-0.6-1.4-0.9-2.5-1-3c-0.3-1.4-0.8-3.5,0-4c0.3-0.2,0.8-0.1,1,0c0.6,0.2,2.4,0.1,6,0
			c3.1-0.1,4.7-0.2,6-1c1.2-0.8,1.8-1.7,2-2c2.4-3.5,11.3-7.8,19-10c8.8-2.6,15.9-2.3,25-2c4.8,0.1,7.8,0.2,12,1
			c9.7,1.8,12.1,4.5,17,4c3.6-0.4,8.5-2.5,14-11c-0.3-23.5-0.7-47-1-70.5c-0.5-1.8-1.2-3.3-2-4.5c-6.8-10.8-23.7-10.1-26-10L474,81
			c-10.9-0.9-18.9-1.5-23-2c-0.5-0.1-1.6-0.2-3,0c-4,0.5-6.7,2.9-8,4c-2,1.8-3.2,3.6-4,5c-3.5,6.3-3.1,13.3-3,15
			c1,15.6-0.2,31.3,0,47c0,9.3,0,18.7,0,28c0,5,0,10,0,15c0,1.2,0.3,2.9,1,5c0.5,1.5,1.7,4.9,5,8c2.6,2.4,5.3,3.5,7,4
			c10.4,0.2,22.2-0.2,35-2c6-0.8,11.7-1.9,17-3c4.5-0.4,7.9-0.8,10-1c4-0.4,5.2-0.6,7,0c3.2,1,5.5,3.6,6,4c1.7,1.6,2.1,2.5,4,4
			c1.2,0.9,1.9,1.6,5,3c7.1,3.3,8.4,4.8,10,4c0.8-0.4,0.5-0.8,2-3C544.7,211.9,547.3,210.9,547,209z"/>
		<path class="st1" d="M547,209c1.6,0.3,3.7-1.5,5-4c3.8-3,5.5-5,5-6c-0.6-1.4-5-1-13,1C542.9,204.9,545,208.7,547,209z"/>
		<g id="dialog_inside_2">
			<path class="st0" d="M514,199.4c-4.3-8.6-5.2-10.9-5-11c0.4-0.2,4.1,8.1,12,16c7.8,7.9,17.6,13.3,21,11c1.8-1.2,2-3,2-3
				c0.1-1.1-0.4-1.8-1-3c-1.6-3.4-1.3-7-1-10c0.1-1.2,0.4-2.6,0.5-3.2c0.2-0.9,0.5-1.8,0.5-1.8l0,0c0.6-2,1.7-3.9,1.7-3.9
				c0,0,0.2-0.3,0.5-0.9c0.6-1.1,0.7-1.2,0.8-1.2c0.2,0-0.7,1-1,2c-0.3,1.3-0.7,2.1-1,4c-0.2,1.3-0.1,1.5,0,1.6c0.6,0.8,2.4,0.3,4,0
				c1.3-0.3,3.5-0.6,8-1c4.4-0.4,5.5,0,8-1c1.4-0.6,2.3-1.2,3-1.6c4.1-2.7,8.3-4,11-5c7-2.6,17-2.9,19-3c1.9-0.1,9.7-0.2,22,2
				c1.2,0.2,2.9,0.6,5,1c1.5-0.1,3.6-0.3,6-1c0.2-0.1,1.7-0.5,3-1c1.6-0.6,4.7-2.2,8-6l1-3c-0.3-46-0.3-64.3,0-67c0-0.1,0-0.5,0-1
				c-0.4-3.7-5.1-6.1-7-7c-6.1-2.9-11.8-3-12-3c-8.9-0.1-27.1-1.6-52-4C490.4,87,456.6,83.9,454.8,83.7c-0.1,0-1.3-0.2-2.8-0.3
				c-0.7,0-2-0.1-3,0c-2.4,0.2-4.1,1.4-5,2c-5,3.4-5.9,9.2-6,10c-0.2,1.7-0.1,3.1,0,4l-0.1,77.6c-0.1,7.7,0,13.1,0,16.5
				c0,0.3,0,0.7,0.1,1.3c0.5,4.2,3.5,7.2,6.1,9.2c1.4,0.7,3.4,1.5,6,2c3.8,0.7,6.8,0.3,9,0c5-0.7,10-1.2,15-2c8.8-1.4,15.6-1.9,17-2
				c6.9-0.5,11.8-0.4,20-2C512.3,199.8,513.3,199.5,514,199.4z"/>
		</g>
		<path class="st2" d="M755,474c-143.7,1.6-287.4,1.6-431,0c-92.7-1-185.3-2.7-278-5c0,38.3,0,76.7,0,115c236.3,0,472.7,0,709,0V474
			z"/>
		<path d="M131,43c1.2,0.5,2.9,1.2,5,2c9.8,4,7.8,3.4,12,5c2.1,0.8,6,2.3,10,5c0.4,0.3,1.7,0.8,2,2c0,0.1,0.2,0.7,0,1
			c-0.8,1.3-8.8-2.1-13-4c-11.4-5-18.5-8.2-18-10C129.1,43.7,129.5,43.2,131,43z"/>
		<path d="M162,52c-1,0.7-9-6.6-13-17c-1.1-2.8-1.7-5.2-2-7c0.5-0.1,1.2-0.3,2,0c2.1,0.7,2.4,3.6,4,7c1.2,2.6,1.7,2.4,4,6
			C159.5,45,162.8,51.4,162,52z"/>
		<path d="M314,124c1.4,0.2,3.5,0.6,6,1c5.2,0.9,7.8,1.4,10,2c5.4,1.5,5,2.3,11,4c3.4,0.9,6,1.4,6,2s-2.7,1-3,1
			c-4.2,0.5-7.2-0.8-11-2c-8.9-2.8-11.5-1.5-16-5C315.6,125.9,314.6,124.8,314,124z"/>
		<path class="st1" d="M443,208c3,0.7,6,1.3,9,2c17.5-1.9,35-3.8,52.5-5.7c3.8-0.4,7.7-0.8,11.5-1.3c2.2,2.8,5.8,6.6,11,10
			c5,3.3,9.6,5,13,6c-1,2.3-2,4.7-3,7c-2.1-0.7-4.7-1.9-7-4c-2.4-2.2-2.8-3.7-5-5c-2.3-1.4-4.7-1.2-8-1c-9.2,0.6-13.9,1-14,1
			c-6.9,1-15.3,2.2-24,3c-7,0.7-6.3,0.4-12,1c-8.8,1-10.4,1.7-13,1C450.9,221.1,446.5,218.3,443,208z"/>
		<path class="st1" d="M633,189c4-2.3,8-4.7,12-7c0.7-2,1.3-4,2-6c-0.5-8.1-0.8-16.5-1-25c-0.4-14.9-0.3-29.2,0-43
			c1.5,1.2,4,3.5,6,7c2.7,4.9,2.9,9.5,3,12c0.3,8.3,0.5,27.9,0,54c0.3,1.5,0.7,4,0,7c-1.2,5.2-4.8,8.1-6,9
			C643.7,194.3,638.3,191.7,633,189z"/>
		<path class="st3" d="M522,229c0.2-0.7,0.7-2.6,2-3c1-0.3,2.3,0.2,3,1c1.5,1.5,1.1,4.1,1,5c-1,7.9-0.6,16-1,24c-0.1,1.5,0,1.5,0,10
			c0,0,0,0,0,46c0,16,0,16,0,16c-0.3,0.9-1.2,4.1,0,5c0.8,0.6,1.9-0.4,3,0c3.4,1.1,3.5,13.8,0,15c-1.1,0.4-2.1-0.6-3,0
			c-1.3,0.9-0.4,4,0,6c0.5,2.6,0,1.8,0,13c0,17.7,1.4,33.8,0,34c-0.9,0.1-3.1-7-4-14c-1.4-10.3,0-20.1,0-29c0-3-0.2-3.2,0-5
			c0.2-2.9,0.8-4.1,0-5c-1-1.1-2.5-0.1-4-1c-3.4-2-3.1-12.2,1-14c0.7-0.3,1.7-0.4,3,0C522.4,309,520.7,233.9,522,229z"/>
		<path class="st3" d="M472,208c-1,0.2-2.2,1.2-2,2c0.2,0.7,1.3,1,2,1c0.3,0,1.7,0,2-1c0.3-0.8-0.3-1.7-1-2
			C472.6,207.9,472.2,207.9,472,208z"/>
		<path class="st3" d="M480,215c-0.1,0-1.4,0-2,1c-0.3,0.5-0.5,1.5,0,2c0.6,0.6,1.9,0.1,2,0c0.2-0.1,0.8-0.4,1-1
			C481.2,216.3,480.8,215.5,480,215z"/>
		<path class="st3" d="M486,208c-0.5-0.2-0.8-0.1-1,0c-1,0.5-1.3,2.9,0,4c0.8,0.7,2.1,0.7,3,0c1.3-1,1.1-3.3,0-4
			C487.2,207.5,486.2,207.9,486,208z"/>
		<path class="st3" d="M493,215c-0.1,0.1-1,0.8-1,2c0,0.2,0,1.4,1,2c0.6,0.4,1.4,0.4,2,0c0.8-0.4,1.1-1.3,1-2
			C495.9,215.9,494.6,214.9,493,215z"/>
		<path class="st3" d="M500,207c-0.9,0.2-1.7,1-2,2c-0.4,1.6,0.8,2.8,1,3c0.2,0.2,1.5,1.4,3,1c1.3-0.4,2.1-1.8,2-3
			C503.9,208.1,501.8,206.6,500,207z"/>
		<path class="st3" d="M515,206c-0.4,0.2-1.4,0.8-2,2c-0.1,0.2-1.2,2.5,0,4c1.1,1.3,3.6,1.3,5,0c1-0.9,1.7-2.5,1-4
			C518.4,206.5,516.7,205.7,515,206z"/>
		<path class="st3" d="M507,214c-0.6,0.4-0.8,1.1-1,2c-0.3,1-0.6,2.2,0,3c0.9,1.3,3.7,1.6,5,0c0.9-1.1,0.9-2.9,0-4
			C510,213.7,508.1,213.3,507,214z"/>
		<path class="st3" d="M522,214c-0.3,0.4-0.7,1.1-1,2c-0.3,0.9-0.6,2.1,0,3c0.6,0.9,2,1.3,3,1c1.9-0.5,3.2-3.3,2-5
			C525.2,213.9,523.6,213.5,522,214z"/>
		<path class="st1" d="M487,223c-0.1-0.1-0.6-0.2-1,0c-0.7,0.2-1.3,1.1-1,2c0.3,0.8,1.2,1.3,2,1c0.9-0.3,1.2-1.3,1-2
			S487,223,487,223z"/>
		<path class="st1" d="M500,222c0,0-1.1,0.8-1,2c0.1,1.1,1,1.9,2,2c0.7,0.1,1.6-0.2,2-1c0.4-0.7,0.3-1.5,0-2
			C502.5,222.1,501.3,221.6,500,222z"/>
		<path class="st1" d="M494,230c-0.1,0-0.8,0.3-1,1c-0.3,0.8,0.3,1.8,1,2c1,0.3,2.3-1.1,2-2C495.8,230.4,495,229.9,494,230z"/>
		<path class="st1" d="M507,230c-0.8,0.9-0.8,2.2,0,3c0.8,0.9,2.4,0.8,3,0c0.5-0.6,0.3-1.4,0-2C509.5,230.1,508.3,229.7,507,230z"/>
		<path class="st1" d="M516,222c-1,0.3-1.8,1.1-2,2c-0.3,1.4,0.8,3,2,3c1,0,1.8-1,2-2C518.2,223.8,517.4,222.5,516,222z"/>
		<path class="st1" d="M530,221c-1.2,0.7-2,1.8-2,3c0.1,2.1,2.7,3.6,4,3c0.9-0.4,1.2-1.9,1-3C532.8,222.6,531.6,221.4,530,221z"/>
		<path class="st1" d="M451,211"/>
		<path d="M285,158c-0.1,0.9-0.2,2.3,0,4c0.4,3.3,1.9,5.6,4,9c1.5,2.4,6.7,9.3,5,7c0,0,1.6,1.2,2,1c0.7-0.4-2.3-6.6-6-13
			C288,162.6,286.3,159.9,285,158z"/>
		<path class="st4" d="M473,248c0.1-1.6,13.6-2.8,61-2c-1,1.7-2.2,4-3,7c-0.8,2.7-1,5.2-1,7c-0.1,0.5-0.5,2.2-2,3
			c-0.4,0.2-1.5,0.8-4,0c-4.3-1.3-7.5-5.1-9-7c-3-0.2-6.7-0.5-11-1C491.2,253.5,472.9,249.9,473,248z"/>
		<path class="st5" d="M492,253c13.3-0.3,26.7-0.7,40-1c-0.3,0.7-0.7,1.3-1,2c-11,0-22,0-33,0C496,253.7,494,253.3,492,253z"/>
		<path d="M515,257c5-0.3,10-0.7,15-1c0,1,0,2,0,3c-3.7,0.3-7.3,0.7-11,1C517.7,259,516.3,258,515,257z"/>
		<path class="st4" d="M475,242c7.8-1.7,15.8-3.4,24-5c5.4-1.1,10.7-2.1,16-3c0.6-1.3,1.5-2.8,3-4c4.7-3.6,11.1-1.3,12-1
			c2.3,0.8,4,2.1,5,3c-1,4-2,8-3,12c-19,0-38,0-57,0C475,243.3,475,242.7,475,242z"/>
		<path class="st5" d="M493,238c-5.4,1-8,1.7-8,2c0,0.4,3,0.4,9,0c26,0,26,0,39,0c0-0.7,0-1.3,0-2C519.7,238,506.3,238,493,238z"/>
		<path class="st5" d="M510,235c16,0,16,0,24,0c0-0.7,0-1.3,0-2c-6,0-12,0-18,0c-0.7-0.1-3.1-0.5-5,1
			C510.6,234.3,510.3,234.7,510,235z"/>
		<path class="st6" d="M473,77c-0.9-0.4-2.1,0-3,1c0,0.2,0.1,1.3,1,2c0.9,0.7,2.4,0.8,3,0c0.5-0.6,0.3-1.5,0-2
			C473.9,77.8,473.6,77.3,473,77z"/>
		<path class="st6" d="M486,76c-0.3,0-1.4,0.1-2,1c-0.9,1.2-0.3,3.2,1,4c0.8,0.5,2,0.7,3,0c1-0.7,1.3-2,1-3
			C488.6,76.8,487.4,75.9,486,76z"/>
		<path class="st6" d="M500,76c-1.4,0.6-2.2,1.9-2,3c0.2,1.2,1.6,1.8,2,2c0.5,0.2,1.9,0.8,3,0c1-0.7,1.3-2,1-3
			C503.6,76.6,501.9,75.6,500,76z"/>
		<path class="st6" d="M514,75c-0.3,0.4-0.8,1.1-1,2c-0.4,1.3-0.7,4.1,1,5c1.2,0.7,3,0.1,4-1c1.2-1.4,1.3-3.6,0-5
			C517,74.9,515.5,74.5,514,75z"/>
		<path class="st6" d="M528,76c-1.2,1.1-1.6,2.7-1,4c0.8,1.7,2.8,2,3,2c0.2,0,1.8,0.2,3-1c1.1-1,1.6-2.8,1-4
			C533.2,75.4,530.5,74.5,528,76z"/>
		<path class="st6" d="M544,76c-0.5,0.1-2.5,0.5-3,2s0.7,3.2,2,4c1,0.6,2.7,0.9,4,0c1.6-1.1,2.1-3.6,1-5
			C546.8,75.4,544.4,75.9,544,76z"/>
		<path class="st6" d="M558,76c-1.5,1-2.3,2.6-2,4c0.5,2.3,4.3,3.5,6,2c1.2-1.1,1.4-3.5,0-5C561,75.9,559.5,75.6,558,76z"/>
		<path class="st6" d="M573,76c-1.5,0.2-2.7,0.9-3,2c-0.5,1.7,1.3,3.5,3,4c2.1,0.6,4.8-0.6,5-2C578.2,78.6,576.3,76.7,573,76z"/>
		<path class="st6" d="M581,83c-1.5,0.1-2.7,0.9-3,2c-0.5,1.7,1.1,3.7,3,4c1.9,0.3,4-1.2,4-3C585,84.4,583.2,82.8,581,83z"/>
		<path class="st6" d="M596,83c-1.5-0.1-2.8,0.8-3,2c-0.3,1.5,1.2,2.6,2,3c0.3,0.1,1.8,0.8,3,0c1-0.7,1.3-1.9,1-3
			C598.6,83.8,597.4,82.9,596,83z"/>
		<circle class="st6" cx="610.5" cy="86.5" r="1.6"/>
		<path class="st6" d="M602,77c-0.6,1-0.6,2.2,0,3c0.4,0.6,1.3,1.2,2,1c1.3-0.3,2.1-3,1-4C604.3,76.4,603.1,76.4,602,77z"/>
		<path class="st6" d="M595,70c-0.8,0.4-1.2,1.3-1,2c0.3,0.9,1.4,1.1,2,1c1.1-0.1,2.2-1.2,2-2C597.8,70.3,596.6,69.7,595,70z"/>
		<path class="st6" d="M580,70c-1.1,0.7-1.5,2-1,3c0.6,1.2,2.1,1.3,3,1c1.3-0.4,2.4-1.9,2-3C583.6,69.9,581.9,69.2,580,70z"/>
		<path class="st6" d="M587,77c-1.1,0.7-1.5,2-1,3c0.6,1.2,2.1,1.3,3,1c1.7-0.5,2.8-2.9,2-4C590.4,76.2,588.7,76.1,587,77z"/>
		<path class="st6" d="M565,70c-0.9,2.1-1,4.2,0,5c1.6,1.3,6-0.7,6-3c0-1.3-1.3-2.8-3-3C566.3,68.8,565.2,69.8,565,70z"/>
		<path class="st6" d="M552,68c-0.3,0.1-1.4,0.7-2,2c-0.1,0.3-0.7,1.7,0,3c0.9,1.7,3.8,2.2,5,1c1-1,0.7-2.9,0-4
			C554,68.4,552.3,68.1,552,68z"/>
		<path class="st6" d="M538,68c-0.1,0-2.1,0.2-3,2c0,0.1-0.7,1.5,0,3c0.7,1.5,2.5,2.4,4,2c2.4-0.6,3.4-4.3,2-6
			C540.1,67.9,538.4,68,538,68z"/>
		<path class="st6" d="M521,70c-0.1,0.2-0.7,1.7,0,3c0.9,1.7,3.7,2.3,5,1c1-1,1-2.9,0-4C524.9,68.7,522.6,68.6,521,70z"/>
		<path class="st6" d="M508,69c-0.1,0-1.4,0-2,1c-0.6,1,0.1,2.4,1,3c0.9,0.6,2.1,0.6,3,0c0.9-0.6,1.6-1.9,1-3
			C510.5,69,509.2,68.5,508,69z"/>
		<path class="st6" d="M493,70c-0.1,0.1-0.8,0.4-1,1c-0.3,1.1,0.9,1.9,1,2c0.9,0.6,2.4,0.8,3,0c0.6-0.8,0.1-2.4-1-3
			C494.1,69.5,493.2,69.9,493,70z"/>
		<path class="st6" d="M478,71c-0.1,0.2-0.1,0.6,0,1c0.3,0.8,1.3,1.2,2,1c1.2-0.3,1.6-2.4,1-3C480.5,69.6,479.2,69.8,478,71z"/>
		<path class="st6" d="M486,63c-0.8,0.5-1.2,1.3-1,2c0.2,0.7,1,1,1,1c1.3,0.4,3.2-1.1,3-2C488.9,63.4,487.6,63,486,63z"/>
		<path class="st6" d="M493,57c0-0.1-0.2-0.6,0-1c0.3-0.5,1.4-0.6,2,0c0.6,0.6,0.5,1.7,0,2C494.5,58.3,493.6,58,493,57z"/>
		<path class="st6" d="M507,55c-0.8,0.9-0.8,2.2,0,3c0.8,0.8,2.4,0.8,3,0c0.5-0.6,0.3-1.5,0-2C509.5,55.1,508.3,54.7,507,55z"/>
		<path class="st6" d="M500,62c-0.2,0.2-1.1,1-1,2c0.2,1.7,3,2.8,4,2c0.7-0.5,0.7-2,0-3C502.4,62.1,501.1,61.7,500,62z"/>
		<path class="st6" d="M513,63c-0.6,1.9,0.5,3.7,2,4c1.2,0.2,2.7-0.6,3-2c0.3-1.4-0.8-2.7-2-3C514.9,61.7,513.8,62.1,513,63z"/>
		<path class="st6" d="M529,62c-1.5,1-1.8,3-1,4c0.9,1.1,2.9,0.9,4,0c0.8-0.7,1.5-1.9,1-3C532.5,61.8,530.7,61.2,529,62z"/>
		<path class="st6" d="M543,62c-0.9,0.8-1.3,1.9-1,3c0.3,1,1.1,1.8,2,2c2,0.5,4.2-1.6,4-3C547.8,62.8,545.8,61.6,543,62z"/>
		<path class="st6" d="M558,62c-0.9,0.8-1.3,1.9-1,3c0.3,1.2,1.6,2.3,3,2c1.4-0.3,2.2-1.8,2-3C561.7,62.5,559.9,61.4,558,62z"/>
		<path class="st6" d="M572,62c-0.5,1.8,0,3.5,1,4c1.6,0.8,4.3-1.8,4-3C576.7,62.1,574.7,61.5,572,62z"/>
		<path class="st6" d="M588,63c-1.3,0.7-1.6,2.2-1,3c0.6,0.9,2.3,0.9,3,0c0.4-0.6,0.3-1.4,0-2C589.6,63.3,588.8,62.9,588,63z"/>
		<path class="st6" d="M580,56c0,1.2,0.5,2,1,2c0.4,0,0.9-0.5,1-1c0.2-0.9-0.4-2-1-2C580.4,55,580,55.9,580,56z"/>
		<path class="st6" d="M566,55c-1.3,0.7-1.6,2.2-1,3c0.6,0.9,2.3,0.9,3,0c0.4-0.6,0.3-1.4,0-2C567.6,55.3,566.8,54.9,566,55z"/>
		<path class="st6" d="M551,55c-1.3,0.9-2.2,2.1-2,3c0.4,1.5,3.6,2.4,5,1c1-1,1.2-3.1,0-4C553.2,54.4,552,54.4,551,55z"/>
		<path class="st6" d="M537,55c-0.3,0.1-0.7,0.4-1,1c-0.5,1.1,0,2.7,1,3c0.8,0.2,1.6-0.5,2-1c0.6-0.9,0.8-2.4,0-3
			C538.2,54.4,537.1,55,537,55z"/>
		<path class="st6" d="M521,55c-0.7,1.6-0.2,3.4,1,4c1.6,0.9,4-0.7,4-2c0-1-1.3-1.7-2-2C522.6,54.4,521.4,54.9,521,55z"/>
		<path class="st6" d="M502,49c-0.9-0.5-1.7-0.4-2,0c-0.4,0.5,0.2,1.7,1,2c0.1,0,0.6,0.3,1,0C502.4,50.7,502.5,49.9,502,49z"/>
		<path class="st6" d="M516,49c-1.5-0.3-1.9-0.2-2,0c-0.1,0.2,0.4,0.5,1,1c1.1,0.8,1.6,1.2,2,1c0.5-0.3,0.6-1.6,0-2
			C516.6,48.8,516.1,49,516,49z"/>
		<circle class="st6" cx="530.5" cy="49.5" r="1.6"/>
		<path class="st6" d="M543,50c0.1,1.4,1.2,2.2,2,2c0.7-0.2,1.3-1.1,1-2c-0.3-0.9-1.3-1.2-2-1C543.3,49.2,543,49.9,543,50z"/>
		<path class="st6" d="M558,49c-0.1,0.2-0.2,0.6,0,1c0.2,0.7,1.1,1.3,2,1c1-0.3,1.3-1.5,1-2C560.7,48.4,559.4,48.2,558,49z"/>
		<path class="st6" d="M573,49L573,49c0.1,1.2,0.5,2,1,2c0.5,0,1-0.9,1-1c0.4-0.9,0.1-1.8,0-2"/>
	</g>
	<g id="crying_girl">
		<path class="st7" d="M151,585c0-3,0-6,0-9c3.3,0,6.7,0,10,0c0.8-0.7,1.8-1.3,3-2c1.9-1,3.6-1.6,5-2c0,4,0,8,0,12
			C163,584.3,157,584.7,151,585z"/>
		<path class="st8" d="M169,584c0-3.7,0-7.3,0-11c2-1.7,4-3.3,6-5l0.6,16.5C173.4,584.3,171.2,584.2,169,584z"/>
		<path class="st9" d="M164,574c-0.3-0.5,2.4-1.8,4-5c1.1-2.3,1-4.5,1-6c-0.1-4.6-0.1-10.9,0-19c1.2-0.5,2.6-1.1,4-2
			c4.4-2.8,6.8-6.7,8-9c4.3,0,8.7,0,13,0c0.3,0.2,0.7,0.5,1,1c0.4,0.8,0.1,1.5,0,2c-0.7,2.4-3.6,5.5-4,6c-1.9,3.6-3.7,6.7-5,9
			c-0.5,0.9-0.4,0.7-6,10c-2.1,3.5-2.7,4.5-4,6c-2.4,2.7-4.6,4.2-6,5C167.4,573.5,164.3,574.5,164,574z"/>
		<path class="st10" d="M46,531c2.1,0.8,4.4,1.5,7,2c5.8,1.2,11,1.3,15,1c6.8-0.6,17.2-1.2,30-1c23.4,0.4,22.9,3.3,37,2
			c12.8-1.2,20.7-4.2,37-3c3.8,0.3,6.9,0.7,9,1c-0.2,0.5-0.5,1.2-1,2c-1.9,3.4-4.3,5.4-5,6c-1.8,1.5-3.4,2.3-5,3
			c-3.6,1.7-6.7,2.3-10,3c-1.7,0.3-4.1,0.7-7,1c-2.3,0-4.7,0-7,0c-2.2,0.1-4.6,0.1-7,0c-4.3-0.1-8.3-0.5-12-1c-3,0-6,0-9,0
			c-24.2,0-48.2-0.4-72-1C46,541,46,536,46,531z"/>
		<path class="st11" d="M46,546c2.7,0,6.9,0,12,0c19,0.1,25.5,0.8,43,1c18.2,0.2,14.6-0.4,24,0c0,0,19.7,0.9,31,0
			c1.7-0.1,4.1-0.4,7-1c3-0.6,5.4-1.4,7-2c0,1.1,0,2.9,0,5c0.1,9.7,0.9,12.2,0,16c-0.5,2.2-1.8,5.5-5,9c-1.3,0.7-2.7,1.3-4,2
			c-3.5,0-8.7,0-15,0c-19.7,0.1-34.2,0.8-39,1c-12.9,0.5-32.5,0.9-61,0V546z"/>
		<path class="st12" d="M190,544c1.7-2.7,3.3-5.3,5-8c1,3,2,6,3,9C195.3,544.7,192.7,544.3,190,544z"/>
		<path id="legs" class="st13" d="M46,472c3.6,0.2,8.4,0.3,14,0c3.1-0.2,11.1-0.7,20-3c6.7-1.7,17.7-5.4,30-14c9.3-0.6,18.9-1,29-1
			c23.2-0.1,44.7,1.5,64,4c3.4,0.2,8.4,0.9,14,3c0,0,6.2,2.4,11,6c8.8,6.7,12.1,17.7,14,26c7,31.1,8,88,8,91c-16.3,0-32.7,0-49,0
			c0.6-6,0.7-13.1,0-21c-1.1-12.3-4.1-22.5-7-30c-5.9-0.2-11-0.1-15,0c-4.3,0.1-8.9,0.3-15,1c-3.6,0.4-6.2,0.9-7,1
			c-11.3,1.8-27.1,0.4-44,0c-17.6-0.4-26.5-0.6-36,0c-3.2,0.2-10.6,0.8-20-1c-4.7-0.9-8.4-2.1-11-3C46,511.3,46,491.7,46,472z"/>
		<path class="st14" d="M113,468c0,0,2,1,2,1c1.7,0.8,1.9,1,2,1c1.2,0.6,3.8,1.5,7,2c3.4,0.5,5.8,0.2,9,0c0,0,0,0,12,0
			c6.3,0,12.7,0,19,0c8,0,12,0,12,0c4.3,0,4.2,0,5,0c2.9,0.1,7.5,0.3,13,1c3.4,0.5,5.9,1,11,2c2.8,0.6,5.5,1.1,9,2
			c5.1,1.3,7.6,1.9,10,3c1.9,0.9,5.5,2.5,9,6c0.2,0.2,2.3,2.3,4,5c3.9,6.1,4.3,12.9,5,22c1.2,15.3,1.3,11.3,2,22
			c0.4,6.9,0.5,9.8,1,21c0.4,8.7,0.8,15.7,1,20c0.3,2.7,0.7,5.3,1,8c-0.7,0-1.3,0-2,0c-0.7-5.7-1.3-11.3-2-17c0.1-3.9,0.1-7.9,0-12
			c-0.2-10-0.9-19.3-2-28c-0.2-3.7-0.5-8.8-1-15c-0.6-7.4-1-11.2-2-14c-0.7-1.9-3.9-10.8-12-15c-0.9-0.5-3.6-1.3-9-3
			c-3.8-1.2-8-2.5-10-3c-7-1.9-14.3-2.6-23-3c-11.4-0.5-18.6-0.2-29,0c-7.2,0.1-17.4,0.2-30,0c-1.2-0.2-2.6-0.5-4-1
			C117.2,471.7,114.6,469.5,113,468z"/>
		<path id="waist" class="st15" d="M46,472c4.7,0.4,10.8,0.6,18,0c0.8-0.1,6.9-0.6,13-2c14.4-3.2,26.6-10.6,33-15
			c-0.9-0.2-1.9-0.5-3-1c-4.5-2.1-6.4-6.4-7-8c-1.7,0.5-4.1,1.3-7,2c-7.1,1.8-13,2.4-24,3c-6.6,0.4-14.3,0.8-23,1
			C46,458.7,46,465.3,46,472z"/>
		<path id="t-shirt" class="st16" d="M46,452c3.4,0.1,8.2,0.2,14,0c7.7-0.2,19.5-0.7,34-4c5.2-1.2,12-3,20-6c-0.7-2.2-1.4-4.5-2-7
			c-2.3-9.8-2.6-18.8-2-26c11.3-7.7,22.7-15.3,34-23c-1.7-5-3.3-10-5-15c3.8-1.3,7.8-2.9,12-5c11.6-5.8,20.1-13,26-19
			c-0.4-1.8-1.1-3.9-2-6c-2.1-4.9-4.8-8.5-7-11c1-4,2-8,3-12c-0.5,0.1-1.2,0.2-2,0c-2.1-0.4-3.4-2.1-4-3c-6.1-8.4-4.8-5.7-6-8
			c-6.7-12.5-10-18.8-12-24c-3.6-9.5-2.6-9.6-4-11c-9.3-9.3-40.9,4.8-61,20c-9.2,6.9-23.9,20.1-36,43C46,374,46,413,46,452z"/>
		<path class="st17" d="M212,246c-1.1,1.5-3.7,4.6-8,7c-3.2,1.7-5.7,2.2-10,3c-2.7,0.5-6.5,1-11,1c-2.7,0.9-6.6,2.5-11,5
			c-2.7,1.6-5.2,3.3-11,8c-3.6,2.9-8.4,7-14,12c-1,0.9-2,1.9-3,3c-9.3,10.6-9.5,24.7-9,32c-0.7,1.3-1,2-1,2c-0.7,0.9-0.9,1-1,1
			c-0.1-0.1,0.7-1.3,1-3c0.1-1,0-1.7,0-2c-0.3-2.5-0.4-8.4,0-12c0.5-4.5,2-7.9,3-10c2.7-5.7,6.3-9.6,9-12c0-0.7,0-1.3,0-2
			c-0.5,0.5-1.2,1.2-2,2c-0.9,0.9-2.8,3-5,6c-1.2,1.7-3.7,5.2-6,10c-1.2,2.4-1.7,3.9-2,5c-0.2,0.7-0.7,2.5-1,5c-0.1,1.3-0.4,3.8,0,7
			c0.4,2.7,0.6,4.8,2,7c1.7,2.8,4.3,4.3,6,5c0.5,0.3,1.1,0.7,1,1c-0.2,0.5-2.5,0.1-3,0c-5.1-0.9-9.7-7.1-11-9c-4-5.7-6.6-9.4-7-15
			c-0.8-10.4,6.4-18.2,8-20c5.4-5.9,11.5-7.8,11-9c-0.4-0.9-3.9-0.2-10,1c-11.5,2.3-17.3,3.5-19,4c-5.8,1.8-15.3,5.6-26,14
			c0.1-2.2,0.3-4.5,1-7c3.5-13.1,15.1-19.9,19-22c3.6-0.9,8.7-2.3,15-4c9.5-2.6,18.6-5.2,21-6c7.6-2.4,20.5-8.4,38-26
			c0.4-1,1.1-2.4,2-4c7.2-12.9,18.8-18.9,23-21c2.3-1.1,9.6-4.7,20-6c19.1-2.5,34.6,4.2,42,8c1.9-0.5,5.7-1.3,10,0
			c4.3,1.3,6.9,3.9,9,6c4.7,4.8,6.9,10.1,8,13c6.4,17.4,4.6,35.7,4,41c-0.5,3.7-1.7,13.7-6,24c-3,7.3-5,11-5,11
			c-1.7,3.1-3.2,5.6-5,10c-1.1,2.7-1.6,4.5-2,6c-0.1,0.5-0.8,3.5-1,7c-0.4,8,1.9,15,3,18c1.3,3.4,1.5,2.8,5,11c1.6,3.8,2.4,5.8,3,8
			c1.1,4.2,1.9,10.2,1,13c-2.2,7-19.5,10.6-42,7c-0.9-3-1.7-6.7-2-11c-0.2-2.6-0.1-4.9,0-7c-0.4-0.1-0.7-0.1-1,0
			c-3.6,1.1-2.3,14.7-2,18c-6.7,0-13.3,0-20,0c3.3-16,6.7-32,10-48c7.7-6.3,15.3-12.7,23-19c0.8-1.1,1.9-2.8,3-5
			c1.2-2.4,2-4.6,2.5-6.1c0.3-0.9,0.4-1.5,0.5-1.9c1.8-6.8,6-11.6,6-16c0,0,0,0,0-4c0-0.7,0-1.3,0-2c0-2.5,0.1-2.6,0-3
			c-0.3-0.8-1.4-1.7-5-2c2.7-2.6,3.9-5.1,4.6-6.7c0.5-1.4,1.3-3.4,0.4-4.3c-0.6-0.5-1.5-0.2-3,0c-2.8,0.7-6.1,1.2-10,1
			c-13.6-0.8-22.5-10.1-25-13c0.9-0.8,2.1-2.1,3-4c2.1-4.6,0.4-9,0-10c-2.2-1.7-4.1-2-5-2c-4.8-0.1-8.3,4.7-10,7
			C213.2,243.4,213.8,243.6,212,246z"/>
		<path class="st17" d="M182,376c1.7,3.7,3.3,7.3,5,11c1.1-3.3,2.7-8.1,5-14c3.1-7.9,5.4-13.1,9-21c2.6-5.8,6.4-14.3,11-25
			c-0.7-4.2-1.4-8.5-2-13c-0.4-2.7-0.7-5.4-1-8c-1.9-1.7-4-3.7-6-6c-4-4.6-6.9-9.1-9-13c-2.1,1.3-4.9,3.2-8,6
			c-2.7,2.5-9.5,9.1-14,20c-1.5,3.6-3.3,9.1-4,16c0.4,0.8,7.1,13.4,8,17c0.2,0.7,0.2,1.4,0,2c-0.5,1.7-2.1,2.6-3,3
			C176,359.3,179,367.7,182,376z"/>
		<path class="st18" d="M190,357c0.4-0.7-2.5-2.3-4-5c-1.6-2.8-0.9-5.9,0-10c1.1-5.1,2.9-8.8,5-13c1.1-2.3,3.9-7.8,5-11
			c0.4-1.2,0.4-1.7,1-3c0.6-1.4,1.1-2,1-3c-0.1-0.9-0.5-2-1-2c-0.7,0-1.2,1.8-2,4c-0.9,2.7-2.1,5.3-3,8c-1.6,4.8-2.3,4.7-5,11
			c-2.8,6.7-4.3,10.1-4,14c0.2,3.6,1.7,8.9,5,10C188.7,357.2,189.8,357.4,190,357z"/>
		<path class="st19" d="M124,339c-0.3,0.1-0.1,1.3,0,2c0.8,4.5,2,7,2,7c1.6,3.2,5.1,11.9,10,24c3.8-1.1,6.9-2.2,9-3
			c8.7-3.3,19.3-7.5,28-17c1.9-2.1,3.2-3.9,4-5c-0.2-1.7-0.7-4.2-2-7c-0.4-1-0.7-1.4-3-5c-3.8-6.1-4.4-7.1-4.8-7.7
			c-1.3-2.3-2.2-4.1-3.2-6.3c-2.9-6.1-2.6-7-4-9c-5.1-7.7-13.7-11.4-14-11c-0.1,0.1,0.3,0.5,2,2c1.2,0.8,3,2.1,5,4
			c6,5.7,5.5,9.3,12,20c2.8,4.6,4.8,9.6,8,14c0.9,1.2,2.8,3.7,2,6c-0.4,1.1-1.2,1.7-3,3c-3,2.2,1.7-0.9-6,5c-4.6,3.6-6.9,5.4-8,6
			c-2.8,1.7-4,1.9-9,4c-2.6,1.1-6.4,2.8-11,5c-1.4-2.2-2.7-4.5-4-7c-3.9-7.5-6.4-14.7-8-21c-0.2-0.5-0.5-1.2-1-2
			C124.7,339.6,124.2,338.9,124,339z"/>
		<path class="st19" d="M80,394c0.2-0.2,2.1,1.2,3,2c1.5,1.2,2.3,2.2,3,3c1.3,1.4,2.9,2.2,6,4c3.7,2.1,5.8,3.2,9,4
			c3.4,0.8,6,0.6,6,1c0,0.4-2.7,0.9-4,1C91.8,410,79.6,394.5,80,394z"/>
		<path id="skin" class="st15" d="M138,371c0.4,0.8,1.2,2.2,2,4c2.5,5.4,3.6,9.8,4,11c3.1,11.2,11.7,28.4,16,37
			c1.7,3.3,3.3,6.7,5,10c0.3,0.5,0.9,1.8,1,2c5,10,5.7,11.4,7,13c1,1.3,2.5,3.2,5,5c6.3,4.5,13.1,4.1,15,4c2.3-0.2,4.6-0.4,7-2
			c2.1-1.4,3.1-3.2,4-5c1.4-2.5,1.9-4.6,3-10c1-4.7,1.5-7,2-10c1-5.8,1-6.4,2-12c0.9-4.8,1.3-7.3,2-10c1.3-5.2,1.8-5.1,3-10
			c1-4,0.7-4.3,2-10c0.8-3.6,1.5-6.3,2-8c1.2-4.4,1.6-5.2,3-10c1.9-6.2,3-11,4-15c1-4.2,1.6-6.4,2-9c0.9-5.5,1-6,1-6
			c0.5-3.2,0.6-3.9,1-5c0.2-0.5,1-2.6,3-5c2.3-2.7,4.6-4.1,6-5c5.3-3.4,9.4-7.3,11-9c2.1-2.2,3-4,7-14c2-5,4.4-11,7-18
			c0.5-1.2,0.8-2.2,1-3c0.3-1.2,0.2-1.7,0-2c-0.3-0.5-1-1-1-1c0.1-0.4,0.2-1.1,0-2c-0.1-0.4-0.3-1.4-1-2c-1.1-1-2.7-0.4-3-1
			c-0.3-0.6,0.9-1.7,2-3c2.3-2.8,4-6.9,3-8c-0.6-0.7-2-0.2-3,0c0,0-2.9,0.7-13,0c-9.7-0.7-21-11.1-22-12c0.2-0.5,0.5-1.2,1-2
			c0.8-1.1,1.6-1.6,2-2c1.9-1.8,2-7.2-1-10c-1.8-1.7-4.1-1.9-5-2c-0.7-0.1-2.8-0.1-5,1c-2.6,1.3-2.9,3.1-7,9c-1.5,2.1-2.2,3.2-3,4
			c-0.7,0.8-3.7,3.9-9,6c-2.2,0.9-4.8,1.3-10,2c-8.6,1.2-9.4,0.8-13,2c-1,0.4-4.3,1.5-8,4c-1.4,0.9-2.1,1.5-6,5
			c-4.3,3.9-8.7,7.8-9,8c-1.9,1.7-4.6,4.1-8,7c0.1,1.2,0.4,3,1,5c0.5,1.6,1,2.8,3,7c1.7,3.5,2.6,5.3,4,8c1.8,3.4,2.7,5.1,4,7
			c0.9,1.4,1.9,2.6,4,5c2.1,2.5,3.3,3.7,5,4c0.8,0.1,1.5,0.1,2,0c0.4-1.2,1.1-3,2-5c1.5-3.3,3.6-6.8,8-12c3.1-3.7,7.7-8.7,14-14
			c0.2,0.7,0.5,1.8,1,3c1.9,4.6,4.6,7.5,7,10c1.6,1.6,3.9,3.8,7,6c0.6,4.8,1.3,9.5,2,15c0.3,2.6,0.6,5,0,8c-0.8,3.6-2.4,6-3,7
			c-3.8,5.9-5.9,12.7-9,19c-3.1,6.1-7.3,15.6-12,30c-2.4-4.6-4.7-9.6-7-15c-2.8-6.7-5.1-13.1-7-19c-2.4,2.1-4.4,3.8-6,5
			c-2.1,1.6-3.8,2.8-7,5c-3.2,2.2-4.9,3.4-6,4c-3.8,2.1-6.9,3.3-9,4C143,369.7,140.7,370.4,138,371z"/>
		<path class="st20" d="M183,406c0.1-2.1,0-3,0-4c0-2.8,0.6-4.6,2-10c0.4-1.8,1.2-4.5,2-8c0.2-0.6,0.6-1,1-1c0.5,0,1.1,0.8,1,2
			c-0.3,0.7-0.6,1.8-1,3c-1,3.2-1.5,5.6-2,8c-0.7,3.2-1,4.9-1,6c0,1.7,0.3,2.4,0,4c-0.4,2.2-1.6,4.1-2,4
			C182.7,409.9,182.9,408.9,183,406z"/>
		<path class="st21" d="M221,247c0-0.5,1-0.7,3-2c2-1.3,2-1.8,2-2c0-0.1-0.1-0.2-1-1c-0.8-0.7-1.1-0.9-1-1c0.1-0.2,0.6-0.1,1,0
			c1.2,0.3,1.6,1.2,2,1c0.4-0.2,0.5-1.3,0-2c-0.3-0.5-0.8-0.4-1-1c-0.1-0.3-0.2-0.8,0-1c0.2-0.2,0.8-0.1,1,0c0.9,0.3,1.7,1.1,2,2
			c0.5,1.4-0.3,2.8-1,4c-0.5,0.9-2.4,4.1-5,4C222.1,248,221,247.5,221,247z"/>
		<path class="st20" d="M209,310c-0.3-1.4-0.1-2.6,0-3c0.6-2.7,1.6-4.7,2-6c1-3.2,0.5-6,0-9c-0.6-3.8-1.7-5.2-1-8
			c0.2-0.7,0.6-2.5,2-3c0.6-0.2,1.1-0.1,2,0c0.8,0.1,2.7,0.5,4,2c0.6,0.8,0.9,1.6,1,2c1.4,5.1,2,9,2,9c0.9,5.9,1.3,8.9,1,10
			c-0.1,0.2-0.2,0.9,0,1c0.3,0.1,1-0.8,2-2c0,0,1-1.2,3-3c1.7-1.6,3.1-2.4,4-3c4.1-2.7,7-6.7,8-8c2.1-2.8,2.3-4.1,6-10
			c0.3-0.5,1.2-1.6,3-4c0.9-1.1,1.3-1.6,2-2c1.5-0.7,3.1-0.3,4,0c0.2-0.4,0.8-1.4,2-2c0.4-0.2,1.9-0.8,3,0c0.9,0.6,1,1.8,1,2
			c0.4,0,1.1,0,2,0c0.6,0,0.7,0,1,0c0.3,0,1.5,0.2,2,1c0.5,0.9-0.4,1.5,0,3c0.3,1,1,2,1,2l0,0c0,0,0,2.8,0,3c-4.5,14.6-10,26-10,26
			c0,0.1-1.8,3.8-5,8c-1,1.3-3.3,4.4-4,4c-0.5-0.2,0-1.9,0-2c0.7-2.4,2.5-3.4,4-5c1.1-1.2,1.7-2.8,3-6c2.2-5.5,1.8-6.9,4-14
			c1.6-5.1,2.4-7.7,3-9c1-2.2,1.3-4.7,2-7c0.2-0.5,0.5-1.5,0-2c-0.7-0.8-2.7-0.1-3,0c-0.5,0.9-1.3,2.2-2,4c-1,2.5-1.1,3.8-2,8
			c-1.6,7.4-2.6,9.2-3,10c-0.7,1.2-0.4,0.4-3,4c-2.3,3.2-3.5,4.8-6,8c-0.7,0.9-1.7,2.2-2,2c-0.2-0.1-0.1-0.7,0-1c0.7-2.9,3-5,3-5
			c3.5-3.2,5.9-7.9,7-10c2.2-4.3,0.4-4,3-10c1.4-3.2,1.9-6.7,3-10c0.1-0.4,0.5-1.4,0-2c-0.6-0.7-2.1-0.7-3,0c-1,0.8-1,2.5-1,3
			c0,2.7-2,6.8-6,15c-1.1,2.3-2.8,5.4-5,9c-1,1.2-1.6,2.3-2,3c-1.3,2.5-1.5,4.5-3,5c-0.1,0-0.7,0.3-1,0c-0.5-0.5,0.6-2.2,1-3
			c3.8-6.4,5.7-9.5,6-10c3.2-4.8,5.1-8.9,6-11c1.5-3.3,2.4-6.1,3-8c0-0.2-0.2-1.7-1-2c-0.7-0.2-1.5,0.5-2,1c-2.8,2.8-5.4,7.8-6,9
			s-3,5.6-7,10c-1.6,1.8-2.5,2.9-4,4c-2.7,2.1-3.8,1.8-6,4c-0.1,0.1-0.1,0.1-3,4c-0.4,0.6-0.9,1.2-1,2c-0.2,1.1,0.2,1.9,0,2
			c-0.2,0.1-0.7-0.6-1-1c-2.7-4.1-3-11-3-11c-0.2-4,0-8-1-11c-0.2-0.7-0.8-2-2-3c-0.2-0.2-0.9-0.7-2-1c-0.6-0.2-1.5-0.4-2,0
			c-0.6,0.5-0.3,1.5,0,3c0.3,1.5,0.9,4.4,1,7c0,0,0,0,0,4c0,2,0,3,0,3c0.1,1.7,0.3,2.1,0,3c-0.1,0.2-0.4,0.8-1,2c-0.6,1.2-1,1.8-1,2
			c-0.3,1.2,0.2,1.6,0,3c-0.1,0.8-0.6,2-1,2C209.4,312,209.1,310.2,209,310z"/>
		<path class="st22" d="M260,293c-0.3,0-0.1-1.8,0-3c0.7-5.6,3.6-10.2,4-10c0,0,0,0.1,0,1c0,1.1,0,1.7,0,2c0,1.4-1.1,3.1-2,5
			C260.5,291,260.3,293.1,260,293z"/>
		<path class="st20" d="M242,257c0.1-0.2,1.8-0.2,3,0c1.5,0.2,2.3,0.5,4,1c0,0,1.8,0.5,4,1c1,0.2,1.6,0.3,6,1c4.1,0.6,5,0.8,5,1
			c0,0.4-2.5,0.9-4,1c-0.5,0-2,0.2-4,0c-1.2-0.1-3-0.3-5-1c-1.8-0.6-1.7-0.9-4-2C244,257.6,241.9,257.3,242,257z"/>
		<path class="st23" d="M239,269c0.2,0,0.6,0,1,0c1.4,0.1,2.1,0.9,4,2c1.1,0.6,1.7,1,2.5,1.3c1.4,0.5,2.7,0.7,3.5,0.7
			c-0.2,0.2-0.6,0.6-1,1c-1.2,1.3-1.5,2-2,2c-0.4,0-0.5-0.4-1-1c-0.3-0.4-0.6-0.6-3-2c-2.2-1.3-2.6-1.5-3-2
			C239.4,270.3,239.1,269.5,239,269z"/>
		<path class="st24" d="M234,279c1.3,0,2.7,0,4,0c0.3,0.7,0.7,1.3,1,2s0.7,1.3,1,2s0.7,1.3,1,2c0.2,0.4,0.2,0.8,0,1
			c-0.3,0.3-0.9,0-1,0c-0.5-0.2-1-0.6-2-3c-0.6-1.5-0.6-1.7-1-2c-0.6-0.5-1.1-0.4-2-1C234.5,279.6,234.2,279.3,234,279z"/>
		<path class="st25" d="M227,287c0.4-0.2,1.1-0.6,2-1c1.9-0.9,3.4-1.5,4-1c0.5,0.4,0.2,1.4,0,2c-0.4,1.5-1.7,3.7-4,4
			c-0.3,0-2.4,0.3-3-1C225.6,289.1,225.9,287.9,227,287z"/>
		<path class="st21" d="M180,300c-0.6-0.7-1.3-1.7-2-3c-1.8-3.3-3-8.3,0-22c1-4.5,2.5-10.3,5-17c0.3-0.3,0.7-0.7,1-1
			c2-0.3,4-0.7,6-1c0,1.6,0,3.3,0,5c0.2,9.7,1.9,18.5,4,26C189.3,291.3,184.7,295.7,180,300z"/>
		<path class="st26" d="M160,254c-0.1-0.5-0.2-1.2,0-2c0.2-1.1,0.9-2.1,3-4c2.2-1.9,4-3,4-3c4.2-2.5,7.9-4,8-4c3.7-1.4,8.3-3.3,13-6
			c0,0,7.2-4.2,13-10c0,0,1-1,1-1l0,0c0,0,0.7-0.2,1,0c0.3,0.2,0.1,0.9,0,1c-0.6,1.7-3.1,3.4-4,4c-2.3,1.5-0.8,0.8-4,3
			c-1.9,1.3-4.4,3-8,5c-3,1.6-2.4,1.1-8,4c-2.6,1.4-3.8,2-6,3c-2.8,1.2-3.8,1.4-5,2C165.7,247,162.8,249.1,160,254z"/>
		<path class="st26" d="M174,247c0-0.2,2.1,0.2,6,0c0.3,0,4.3-0.3,7-1c1.3-0.3,5.5-1.7,14-12c4.3-5.2,3-4.7,6-8
			c6.4-7.1,13-10.6,16-12c2.4-1.1,5.1-2.4,9-3c4.3-0.7,7.8-0.3,10,0c1.6,0.2,4.6,0.7,8,2c3.7,1.4,5.1,2.7,6,4c0.5,0.8,0.8,1.5,1,2
			c-0.7-0.6-1.7-1.3-3-2c-1.6-0.9-3.1-1.5-5-2c-2.8-0.8-6.7-1.9-12-2c-2.8,0-5.6-0.1-9,1c-1.9,0.6-3.9,1.5-5,2c-1.8,0.8-2.8,1.2-4,2
			c-2.1,1.3-3.5,2.6-5,4c-0.6,0.5-0.6,0.6-3,3c-1.3,1.3-2.3,2.3-3,3c-2.3,2.4-3.9,4.5-5,6c-0.8,1.2-1.6,2.4-3,4
			c-1.2,1.3-2.2,2.2-3,3c-1.5,1.4-3,2.8-5,4c-1.2,0.7-3.6,2.3-7,3C179.2,249.2,174,247.3,174,247z"/>
		<path class="st26" d="M269,222c0-0.5,1.3-0.9,2-1c0.4-0.1,1.9-0.2,4,1c2.1,1.2,3.2,2.8,4,4c1.7,2.6,2.4,4.9,3,7c0.4,1.3,0.8,3,1,5
			c0.1,1,0.3,3.1,0,8c-0.1,2.3-0.4,5.2-1,9c-0.5,3-1.2,7-3,12c-0.7,2-1.5,3.7-3,7c-1.6,3.6-2.5,5.5-4,8c-1.9,3.2-2.1,2.7-4,6
			c-1.9,3.2-3.2,6.1-4,8c-0.9,2.1-1.4,3.3-2,5c-0.8,2.5-2.3,7.2-2,13c0,0.3,0-0.1,1,7c0.5,3.4,0.6,4.4,1,6c0.6,2.5,1.2,3.9,1,4
			c-0.3,0.1-2.2-3.3-3-5c-1.3-2.8-4.2-10.5,1-26c2.8-8.4,4.3-8.1,10-20c7.2-15.1,9.2-24.9,10-31c0.5-4.2,1.2-11.8-2-18
			c-1.3-2.6-2.8-5.4-6-7C271.2,223.1,269,222.7,269,222z"/>
		<path class="st26" d="M260,366c0.3,0.1,0.7,0.2,1,0c0.6-0.4,0.4-1.6,0-4c-0.5-2.6-0.9-4.7-1-5c-0.7-3.4-0.5-3.2-1-5
			c-0.6-2.5-1.1-3.3-2-6c-0.6-1.9-1.4-4.2-2-7c-0.6-3-1.6-8-1-12c0.1-0.5,0.3-1.9,0-2c-0.3-0.1-0.8,0.8-1,1c-1.6,2.5-1.2,6.2-1,8
			c0.1,1,0.4,3,2,8c1,3.3,1.1,3.2,2,6c1.9,6.2,2.9,9.3,3,12C259.1,362.7,258.7,365.4,260,366z"/>
		<path class="st7" d="M316,619"/>
	</g>
	<g id="angry_girl">
		<path class="st27" d="M755.4,345.6L730,331l-16-12l-17.4-19l4.4,8l11.7,14.8c4.5,4,10.4,9.2,17.3,15.2c5.9,5.2,7.6,6.6,10,9
			c4.4,4.4,9.7,10.2,15,18l0.4,64.6L742,393c-5.7-14.1-9.4-24.4-12-32c-1-3-2.7-8-7-13c-2-2.3-6.6-7.5-14-9c-3-0.6-5.3-0.4-9,0
			c-1.4,0.1-4.5,0.5-13,3c-8.7,2.5-10.2,3.5-15,4c-1.2,0.1-4.2,0.4-8,0c-4-0.4-6.1-0.6-8-2c-2.3-1.7-3.2-4.1-5-9c-1-2.8-1.6-5.3-2-7
			c3.2-4.6,7.5-12.1,10-22c1.8-7.1,2.1-13.3,2-18c-2.8-0.2-7-0.5-12-1c-10.9-1-21.6-2.3-26-3c-7-1.1-29.4-4.6-48-21
			c-5.5-4.9-14.5-14.3-21-30c-0.7,2.8-1.7,5.9-3,9c-4.9,12-12.2,20.5-18,26c0.2,4.1,0.7,10,2,17c2.5,13.9,6.4,23.9,10,33
			c3.9,9.7,5.8,14.6,9,19c2.7,3.6,9.1,12.1,21,17c10.2,4.1,19.3,3.6,24,3l-3,17l-18,13c-6,3.3-12,6.7-18,10c-1.2,1-3.2,3-5,6
			c-6.1,9.9-4.5,21.8-7,22c-0.1,0-0.5-0.2-1.3-0.8c-2.6-1.5-4-2.7-4.7-3.2l0,0c-1.5-1.2-7.5-7.5-10-12c-2.8-5-7.8-19.3-5-37
			c1.2-7.5,2.7-8.4,4-18c1.2-8.8,1.1-15.5,1-19c-0.8-28.6-3.7-46.7-3-66c0.7-18.7,1.3-35.2,12-52c3.6-5.6,17-24.9,41-31
			c12.4-3.1,23.1-1.6,34,0c9.5,1.4,19.1,2.8,30,9c3.7,2.1,15.3,9.2,24,23c5.7,9.1,8,17.5,10,25c2.8,10.6,4.9,18.1,6,26
			c0,0,1.2,8.8,4,13c0.2,0.3,1.3,2,2.7,4.4c0.7,1.2,1.2,2.2,1.3,2.6c2,4.1,2.2,5.7,4,8c0.4,0.6,0.9,1,1,1.2c1.4,1.6,2.7,2.6,3,2.8
			c2.6,2,7.9,8.8,8,9c2.7,3.5,13.8,11.8,45,31L755.4,345.6z"/>
		<path class="st28" d="M538,415c0.5-0.4-1-4-2-6c-3.1-6.1-3.2-11.8-3-19c0.2-7.1,1.3-7.7,3-22c0.6-4.8,0.9-8.6,1-10
			c1.6-20.6-2.3-40.1-3-40c-0.3,0-0.2,4.5,0,9c0.4,10.7,1.4,11.5,1,17c-0.4,5.2-1.7,9.7-3,14c-1,3.2-2,6.1-3,11
			c-0.3,1.3-0.7,3.4-1,6c-0.8,6.8-0.4,12.5,0,16c0.1,1,0.6,5,2,10c1.9,6.9,3.8,9.9,6,12C537,413.9,537.6,415.3,538,415z"/>
		<path class="st28" d="M755,366c-2.5-4.6-6.6-11.3-13-18c-9.6-10.2-15-10.8-25-20c-14-13-20.4-27.7-20-28c0.3-0.2,4.1,6.2,12,14
			c2.3,2.3,6.7,6.4,16,13c7,5,17,11.4,30,18V366z"/>
		<path class="st21" d="M632,284c-0.1,0.5-12.4-1.5-27-7c-11.8-4.4-21.6-8.1-31-17c-12.2-11.5-17.4-25.8-17-26c0.2-0.1,1.7,2.5,6,8
			c4.5,5.8,8.5,10.4,10,12c2.3,2.5,8.1,8.3,23,16C616,280.3,632.1,283.5,632,284z"/>
		<path id="face" class="st21" d="M554,233c0.9,0.1,1,1.7,3,6c0,0,3,6.6,8,13c3.8,4.9,7.5,8,10,10c5.1,4.2,9.4,6.5,14,9
			c9,4.9,16.5,7.4,21,9c10.6,3.6,16.4,4.7,18,5c2.9,0.5,5,0.7,9,1c9.5,0.8,17.6,1.5,24,2c0,1.3,0,2.6,0,4c-0.5,14.6-6,26.9-12,36
			c0.4,1.4,1.1,3.5,2,6c1.8,5.1,2.7,7.7,4,9c0.9,0.9,3.8,3.6,11,3c-0.4,1.2-1,3-2,5c-1.4,2.7-2.9,4.5-5,7c-4,4.7-6,7-8,9
			c-5.7,5.7-8.5,8.5-13,11c-5.9,3.3-10.9,3.8-21,5c-1.8,0.2-7.9,0.9-14-1c-2.7-0.8-4.9-2-6-4c-0.7-1.2-0.9-2.7-1-3
			c-0.3-1.7-0.1-3.1,0-4c0.4-2.6,1.4-7.6,3-14c-2.7,0.2-6.5,0.3-11,0c-1.5-0.1-4.8-0.4-8-1c-9.4-2-16-7.4-18-9
			c-7-5.8-10.4-12.4-12-16c-1.4-3.7-3.5-9.3-6-16c-7-19.2-8.3-24.3-9-28c-0.9-4.3-1.9-10.8-2-19c1.5-1.2,4.2-3.5,7-7
			C550.6,247.9,551.1,232.8,554,233z"/>
		<path id="brow_right" class="st29" d="M587,277c-0.3-0.7,6.7-7.3,15-13c4.3-2.9,11-7,11-7s2,0,2,1s-1.7,1.8-2,2
			c-4.9,2.9-9.3,6.8-14,10c-2.6,1.8-3.7,2.6-6,4C590.9,275.2,588,279,587,277z"/>
		<path id="brow_left" class="st29" d="M537,272c-0.1-0.1-0.6-1.4,0-2c0.3-0.3,0.8-0.3,2,0c2.3,0.6,3.5,1.6,6,3c1,0.6,0.8,0.4,2,1
			c2.6,1.4,4.4,2.6,6.7,4.2c1.6,1.1,2.3,1.6,2.3,1.8c-0.2,0.6-5.6-1.8-15-5C540.1,274.7,537.8,273.9,537,272z"/>
		<path id="eye_right" d="M598,283c0.3-0.7,1.2-0.7,3-2c0.7-0.5,2.2-1.7,2-2c-0.1-0.1-0.5-0.2-4,1c-3.6,1.2-5.5,1.9-7,3
			c-0.8,0.6-2,1.5-3,3c-1.9,2.8-1.9,5.6-2,8c-0.1,2.3-0.1,4.1,1,6c1.1,1.9,2.6,2.8,3,3c0.5,0.3,1.7,1,3,1c3.4,0,5.7-4.4,6-5
			c1.6-3.2,2.3-8.3,0-12C599,285.3,597.5,284.1,598,283z"/>
		<path d="M547,288c-0.1,0.7-1.1,0.7-2,2c-0.7,1-0.8,2-1,4c-0.2,2.1-0.1,3.9,0,5c0.2,2.7,0.4,4,1,5c1.2,1.9,3.7,3.2,6,3
			c3.4-0.4,6.5-4.2,6-9c0.1-1.2,0.2-3,0-5c-0.2-2.5-0.3-3.8-1-5c-1.2-2.2-3.6-2.9-7-4c-3.7-1.1-7.8-1.7-8-1
			C540.7,283.9,547.3,286,547,288z"/>
		<path class="st30" d="M569,297c-0.4-0.1-0.8,0.6-1,1c-1.4,2.4,0.5,4.8,0,8c-0.2,1-0.6,2.4-2,4c-0.6,0.6-1.4,1.6-2,3
			c-0.6,1.2-1,2.9-1,4c0.1,2.8,3.4,5.7,8,7c0.8-0.4,1-0.8,1-1c0.1-1.1-3.2-1.4-5-4c-0.2-0.2-0.9-1.4-1-3c-0.1-2.5,1.7-3.8,3-6
			C572.1,304.7,570.2,297.2,569,297z"/>
		<path class="st31" d="M571,347c0.4,0.1,1.6,0.3,3,0c4.1-0.9,5.8-5.5,6-6c0.2,0,0.6,0,1,0c5.9,0,6.6,0.3,8,0c1.8-0.4,4.5-1.9,5-4
			c0.8-3.3-3.7-7.5-8-9c-5.6-2-10.8,0.8-13,2c-2.3,1.2-7.5,4-8,9c-0.2,2.1,0.5,3.9,1,5C566.6,344.7,568.2,346.5,571,347z"/>
		<path class="st30" d="M599,357c1.5-0.2,3.6-0.5,6-1c3.7-0.8,9.3-1.9,16-5c0,0,8-3.6,15.2-9.6c0.6-0.5,1.1-0.9,1.1-0.9
			c3-2.6,4.7-4.6,4.8-4.5c0.1,0.1-2.2,3-5,6c-5.8,6.2-11.4,9.9-13,11c-9.5,6.2-19.1,8.9-25,10L599,357L599,357z"/>
		<path class="st32" d="M544,462c-0.1-7.8,0.4-16.9,2-27c2.1-13.1,5.6-24.3,9-33c1.1-1.6,3.1-3.9,6-6c3.8-2.8,6.5-3.1,12-6
			c3.1-1.6,5.2-3,8-5c4.4-3,6.7-5.1,14.5-10.6c0.2-0.2,0.4-0.3,0.5-0.4c0.1,0.7,0.3,1.9,1,3c1,1.8,2.6,3,5,4c6.5,2.8,14.5,2.1,16,2
			c6.2-0.5,11.3-2,14-3c18.6-6.9,33.2-32.7,34-34c1.4,0.1,3.5,0.2,6,0c5.7-0.5,8.3-2.2,14-4c7.7-2.5,13.9-2.9,16-3
			c4.8-0.2,8.3-0.4,12,1c5.5,2.1,9,6.6,12,12c6.2,11.2,17,39.2,29,77c0.1,6.2,0.2,12.4,0.4,18.6c-2.3,0.2-5.7,0.7-9.4,2.4
			c-7.6,3.6-11.3,10.2-13,13c-4.2,7-11.7,17-26,31c5.5,16.5,10.9,33.9,16,52c3.7,13,7,25.6,10,38c-50,0-100,0-150,0
			c2.9-11.9,3.2-21.5,3-28c-0.3-8-1.4-12.6-6-38c-1.3-7.3-2.4-13.3-3-17c-2-1.1-4.8-2.9-7-6c-3-4.1-1.8-5.8-4-10
			c-3.2-6.1-7.5-5.9-18-16c-1.3-1.3-2.4-2.4-3-3C544.7,464.7,544.3,463.3,544,462z"/>
		<path class="st33" d="M574,498c-4.8-7.5-4.5-15.7-4-22c0.9-12.5,1.7-21.8,6-37c3.1-11,7.3-22.2,8-22c0.6,0.2-1.7,9.7-3,15
			c-3,12.4-4.9,17.6-6,22c-6.1,24.3,6,47,3,48C576.8,502.4,574.7,499.1,574,498z"/>
		<path class="st33" d="M693,414c1.1-0.2,4.7,18.5,6,26c3.8,21.3,4.8,39.5,5,53c0.4-0.2,1-0.5,1.7-0.8c2.4-1.2,8.3-4.2,8.3-4.2
			s-6.6,2.2-7,6c-0.2,1.4,0.5,2.2,0,3c-0.9,1.2-3.8,0.6-6,0C692.8,429.2,692,414.1,693,414z"/>
		<path class="st21" d="M748,449c1.5,0.9,0.3,4.7,0,11c-0.3,6.1,0.6,9.6,2,18c1.3,7.6,2.9,18.4,5,35c0,23.7,0,47.3,0,71
			c-6.7,0-13.3,0-20,0c-4-12.7-8-25.3-12-38c-5.3-16.7-10.6-33.3-16-50c0-0.7,0-1.3,0-2c1.7-1.6,3.3-3.3,5-5c9.6-10,17.1-20.2,23-30
			C743.4,449.7,746.7,448.2,748,449z"/>
		<path class="st21" d="M577,501c-2.2,9.9-2.3,17.7-2,23c0.1,1.7,0.5,8.5-1,16c-0.4,2-1.1,4.8-3,8c-0.7,1.1-1.8,3.1-4,5
			c-0.9,0.8-5.9,5.1-13,5c-3.4,0-6-1.1-8-2c-4.8-2.1-12.4-5.8-22-12c-1.1-1.3-2.6-3.3-4-6c-3.3-6.4-3.8-12.1-4-15
			c-0.7-8.5-2.2-21.5-4-38c-5-33-10-66-15-99c-3.8,4.8-7.4,8.5-10,11c-4.3,4.2-6.5,6.3-9,7c-6,1.8-10.5-1.7-13,1
			c-1.4,1.6-0.1,3.1-2,6c-0.2,0.3-2.7,4.2-6,4c-1.1-0.1-2.3-0.6-5-4c-1.7-2.2-4-5.5-6-10c-0.7,0-1.9-0.2-3-1c-2-1.5-2.5-4.7-2-7
			c0.4-2.3,1.7-3.6,1-5c-0.3-0.5-0.7-0.8-1-1c-3.6,1.3-6.7,2.3-9,3c-1.3,0.4-2.4,0.8-4,1c-1.4,0.2-3.4,0.5-6,0c-2-0.4-4.6-0.9-6-3
			c-0.7-1.1-0.9-2.2-1-3c1.4-0.7,3.4-1.8,6-3c12.8-6.1,23-8.9,27-10c8.6-2.5,21.9-6.8,43-15c1.4-0.5,3.1-0.9,5-1
			c7-0.4,12.2,3.5,14,5c1.4,0.7,4,2.1,6,5c1,1.5,1.6,2.9,2,4c9,31.7,18,63.3,27,95c0.2,0.5,0.4,1.2,1,2c1.3,1.8,3.2,2.2,5,3
			c1.9,0.8,3.3,1.9,6,4c3.4,2.7,5.5,5.4,6,6c3.5,4.5,5.1,9.3,6,12c0.3,0.8,0.8,2.3,2,4c1.1,1.4,2.3,2.4,3,3
			C575.1,499.9,576.2,500.6,577,501z"/>
		<path class="st34" d="M545,465c0.3-0.1,1.4,1.9,2,3c1.3,2.3,2,4,2,4c8.4,20,9.5,23.8,13,31c3.1,6.2,7.1,13.2,6,14
			c-0.3,0.2-1,0-1,0c-1.1-0.3-1.5-1.7-2-3c-0.5-1.4-1.4-2.6-2-4c0-0.1-1-2-3-6c-2.9-5.9-2.9-5.7-3-6c-1.2-2.8-1.1-3-3-8
			c-1.3-3.4-2.6-6.6-4-10c-0.8-2-1.3-3.1-2-5c-0.8-2.3-1.3-3.6-2-6C544.8,465.3,544.9,465,545,465z"/>
		<path class="st34" d="M496,386c0.3-1.1,0.9-1.9,1-2c1.7-1.9,5.9-6.8,7-6c0.2,0.2,0.4,0.6,0,2c-2.9,3.4-4.9,5.1-6,6
			c-0.7,0.5-1.7,1.3-2,1C495.8,386.8,495.9,386.4,496,386z"/>
		<path class="st34" d="M445,401c-0.1,0.3,0.5,0.9,2,2c2.1,1.6,3.1,2.4,4,3c4.3,2.8,6.4,4.2,8,4c1.4-0.1,2.4-0.9,4-2
			c1.4-1,4.4-2.8,4-4c-0.2-0.7-1.3-0.9-2-1c-2.3-0.4-3.4,0.8-5,0c-0.3-0.1-0.9-0.5-1-1c-0.2-1.1,1.9-2.4,3-3c4.7-2.7,9-4.5,10-5
			c3-1.4,6.5-5.2,8-16c-0.9-0.1-1.9-0.1-3,0c-2.7,0.3-4.7,1.2-6,2c-2.2,0.5-4,0.8-5,1c-2,0.4-15.8,3-20,4c0,0-1.6,0.4-3,1
			c-1.1,0.5-1.4,0.8-1.9,0.9c0,0-0.1,0-0.1,0.1c-0.1,0.2,0.5,0.6,1,1c1.8-0.3,3.1-0.7,4-1c0.3-0.1,2.6-0.7,7-2c0.2-0.1,0.8-0.2,1,0
			c0.2,0.3-0.3,0.9-1,2c0,0.1-0.7,1.3-1,2c-0.6,1.6,0,3.7,1,5c1.4,1.9,4.1,2.7,5,3c0.9,0.3,2,0.5,2,1c0,0.3-0.4,0.5-1,1
			c-0.2,0.2-1.8,1.5-2,3c-0.2,1.3,0.5,2.4,1,3c2,0,4,0,6,0c-1.3,1-2.7,2-4,3c-0.3,0-0.7,0-1,0c-2.7-1.3-5.3-2.7-8-4
			c-1.5-2.2-3.2-2.8-4-3C446.3,400.8,445.1,400.6,445,401z"/>
		<path class="st35" d="M473,390c0.4-1,1.1-2.4,2-4c1.9-3.5,3.5-5.3,3-6c-0.3-0.4-1.3-0.2-2,0c-1,0.2-1.6,0.7-2,1
			c-0.2,0.5-0.5,1.2-1,2c-1.3,2.4-2,3-2,4C471,387.7,471.3,388.7,473,390z"/>
		<path class="st35" d="M456,385c1.4-1.3,3.3-1,5-1c2.6,0,6.3-0.5,11-3c-0.3,1-0.7,2-1,3s-0.7,2-1,3c-0.4,0.3-1.1,0.8-2,1
			c-1.3,0.4-2.5,0.1-3,0c-0.6,0.1-1,0.6-1,1c0,0.6,0.8,0.9,1,1c0.8,0.4,1.6,0.1,2,0c1.2-0.4,1.2-1,2-1c0.5,0,1,0.3,2,1
			c0.7,0.4,0.9,0.7,1,1c0,0,0.2,0.4,0,1c-0.4,1.5-9.4,4.8-10,5c-1.9-0.7-3.6-1.4-5-2c-1.8-0.8-2.6-1.1-3-2c-0.1-0.2-0.4-0.9,0-3
			C454.4,387.9,454.8,386.1,456,385z"/>
	</g>
	<g id="drum_guy">
		<g>
			<path d="M234,474c92.3,0,184.7,0,277,0c0,0.7,0,1.3,0,2c-92,0-184,0-276,0C234.7,475.3,234.3,474.7,234,474z"/>
			<path class="st36" d="M343,160c-0.1-0.1,0-0.2,0-1c0-2.1-0.8-3.5-1-4c-1.1-2.6,2.4-8,4-11c1.5-2.8,3.3-7.1,4-13
				c-1-4.2-1.1-7.6-1-10c0.3-6.6,2.5-11.9,3-13c1.2-2.9,2.1-3.9,3-7c0.8-3,0.5-3.8,1-7c0.5-3.4,1.4-8.7,5-13c0.8-1,2.6-2.3,6-5
				c1.6-1.3,3.1-2.2,6-4c0.7-0.4,1.2-0.8,2-1c2.2-0.7,4.2-0.2,5,0c1.7,0.5,1.8,1,3,1s1.3-0.5,3-1c0.6-0.2,2.7-0.7,5,0
				c0.4,0.1,1,0.4,2,1c1.8,1.2,2.9,2.8,5,6c1.9,2.8,2.8,4.2,4,6c1.2,1.9,1.9,2.8,2,3c2.9,4.2,3.7,4.7,5,7c1.1,2.1,1.7,3.9,2,5
				c1.2,4.3,1.1,7.8,1,9c-0.1,0.9-0.4,2.6-1,6c-1,5.3-1.2,5.7-1,7c0.3,1.8,1,1.7,3,6c0.8,1.6,1.4,3.1,2,5c0.3,1,1,3.4,1,6
				c0,4.4-1.7,7.9-3,10c0.4,0.6,0.7,1.3,1,2c1.3,2.9,1.8,5.7,2,8c-1.3-0.7-2.7-1.3-4-2c-4.7-2.7-9.3-5.3-14-8c-1-0.4-2.7-1.3-4-3
				c-1.4-1.8-1.7-3.7-2-6c-0.2-1.6-0.4-4,0-7c1.5-1.6,3.7-4.2,5-8c0.5-1.4,0.8-2.8,1-4c0.3,0.3,1.1,1.1,2,1c0.6-0.1,1.2-0.5,2-2
				c1.5-2.8,0.9-3.9,2-9c0.2-1.1,0.6-2.6,0-3c-0.3-0.2-0.7-0.1-1,0c-0.9,0.2-2.1,0.4-4,0c0-0.9,0-2.3,0-4c0-3,0.2-3.8,0-5
				c-0.2-1.7-0.8-2.8-2-5c-4.5-8.6-4.9-9.9-7-11c-0.8-0.4-2.1-0.9-4-1c-0.5,0-1.2,0-2,0c-2,0-2.4-0.1-3,0c-1.1,0.2-1.9,0.8-3,2
				c-1.8,1.8-2.6,2.7-4,5c-3.5,5.8-7.6,5.2-10,10c-0.9,1.8-1.8,4.6-1,9c-0.2,0-0.6,0-1,0c-2.6,0-2.7-0.1-3,0c-1.3,0.6-1.1,3.5-1,6
				c0.1,1.9,0.2,3.4,1,5c0.5,1,1.5,3,3,3c0.9,0,1.6-0.6,2-1c0.2,1.2,0.5,2.6,1,4c1.3,3.8,3.5,6.4,5,8c-0.3,3.7-0.7,7.3-1,11
				c-0.2,0.5-0.5,1.2-1,2c-1.4,2-3.4,2.8-4,3C357.6,150.6,344.3,161.6,343,160z"/>
			<g id="face_00000076571392434183231430000015600806349732570793_">
				<path class="st37" d="M362,107c0.6-0.1-0.2-4.5,1-8c0.3-1,0.7-1.6,1-2.1c1.7-2.8,3.6-3.9,6-5.9c2.6-2.2,6.5-6.1,9-9
					c0.7-0.8,1.7-1.9,3-2c1.4-0.1,1.9,0.8,4,1c1.6,0.2,1.8-0.3,3,0c1.3,0.3,2.2,1.2,3,2c1.5,1.6,2.3,3.5,3,5c1.7,3.7,3,7,3,7
					c0,0-0.2-0.4-0.2-0.4c0,0,0.7,1.6,1.2,3.4c0.6,2.4,0.3,2.8,1,5c0.8,2.5,1.6,2.9,2,3c0.3,0.1,0.6-0.1,1,0c0.6,0.2,0.9,0.8,1,1
					c0.8,1.6-0.5,4.9-1,9c-0.2,2.2-0.1,3.2-1,4c-1.4,1.2-3,1-3,1c-0.4-0.1-0.8-0.2-1,0c-0.4,0.3-0.1,1.3,0,2c0.1,1.6-1,2.8-2,4
					c-4.3,5.1-3.7,6.3-7,9c-2.5,2-4.8,3.9-8,4c-5,0.1-8.6-4.2-11-7c-3.9-4.6-5.4-9.7-6-13c-0.4,0.4-1.1,1-2,1c-1.5-0.1-2.5-1.9-3-3
					c-1.9-3.8-1.5-8.2-1-11c0.1-0.2,0.4-0.7,1-1c0.6-0.3,1.4-0.3,2,0C361.7,106.4,361.8,107,362,107z"/>
			</g>
			<g>
				<path class="st38" d="M347,158c-0.6-1.2-1.3-3-1-5c0.3-1.7,1.1-2.6,3-5c0,0,2.2-2.9,5-7c0.6-0.9,2.7-4,4-7c1.1-2.6,2.6-7.2,2-14
					c0.8,1,2.1,1.4,3,1c0.6-0.2,0.9-0.7,1-1c0.1,1.5,0.5,4.2,2,7c1.3,2.4,2.9,4.1,4,5c-0.3,3.3-0.7,6.7-1,10c-0.1,0.8-0.3,1.9-1,3
					c-1.1,1.7-2.7,2.4-4,3c-2.4,1.1-4.6,2.8-7,4C354.5,153.2,351.1,155.2,347,158z"/>
			</g>
			<path class="st38" d="M392,132c1.4-1.5,2.3-2.9,3-4c0.6-0.9,1.3-2.2,2-4c0.6-1.6,0.9-3,1-4c0.4,0.8,0.9,0.9,1,1
				c0.9,0.3,2.3-0.4,3-2c0.7-2,1.3-4,2-6c0.4,2,0.8,4,1,6c0.8,6.1,0.1,7.8,1,14c0.3,2.3,0.4,2.2,1,6c0.4,2.5,0.5,3.5,1,5
				c0.7,1.9,1.3,2.7,2,4c0.9,1.6,1.8,4.2,2,8c-5.7-3.3-11.3-6.7-17-10c-0.4-0.6-0.7-1.2-1-2c-0.8-1.9-1-3.7-1-5
				C392.7,136.7,392.3,134.3,392,132z"/>
			<path class="st38" d="M399,107c0-3,0-6,0-9c1,2.7,2,5.3,3,8C401,106.3,400,106.7,399,107z"/>
			<path class="st38" d="M365,96c0.1-0.3,0.9-2.3,3-3c1.3-0.4,2.5-0.1,3,0c1.7,0.5,2.6,1.6,3,2c0.4,0.3,1.1,0.8,2,1
				c1.3,0.4,2.5,0.1,3,0c0,1,0,2,0,3c-1.3,0-2.7,0-4,0c-0.5-0.2-1.2-0.4-2-1c-1-0.8-1.1-1.3-2-2c-0.4-0.3-1.5-1-3-1
				C366.5,95,365.4,95.7,365,96z"/>
			<path class="st38" d="M384,96c0.2-0.6,1.3-0.4,3-1c1-0.3,1.8-0.9,2-1c0.9-0.5,1.2-0.9,2-1c0,0,0,0,1,0c0.8,0,0.9,0,1,0
				c0.8,0.1,1.4,0.3,3,1c1.7,0.8,2,0.9,2,1s-0.3,0-1,0c0,0,0,0-2,0s-2,0-2,0c-1.1,0.2-2,1-3,2c-0.7,0.6-0.6,0.7-1,1
				c-0.3,0.2-1.5,1.1-3,1c-0.2,0-1.6-0.1-2-1c-0.1-0.2,0-0.2,0-1C384,96.1,384,96.1,384,96z"/>
			<g>
				<path class="st39" d="M365,111c0.7-0.7,1.9-0.3,3,0c1,0.3,1.7,0.8,2,1c0.2,0.1,0.6,0.5,1,1c0.9,1.1,1.7,3.2,1,4
					c-1.1,1.2-5.4-1.6-6-2c-0.2-0.1-0.7-0.4-1-1C364.5,113.1,364.3,111.7,365,111z"/>
			</g>
			<g>
				<path class="st40" d="M361,114c0.1,0.3,0.2,0.8,0,1c-0.2,0.2-0.7-0.2-1,0c-0.3,0.2,0,0.9,0,1c0,0.1,0.4,1,1,1
					c0.4,0,0.8-0.3,0.9-0.6c0.1-0.2,0.1-0.4,0.1-0.4c0,0-0.1,0.5,0,1c0.1,0.4,0.5,1,1,1c0.5,0,0.9-0.6,1-1c0.1-0.4,0-0.8,0-1
					c-0.4-1.5-2.7-3.8-3-4c-0.1-0.2-0.4-0.8-1-1c-0.1,0-0.7-0.3-1,0s0,0.9,0,1C359.4,113.1,360.6,112.9,361,114z"/>
			</g>
			<path class="st40" d="M398,118c-0.6-1.2-0.2-2.5,0-3c0.4-1.2,1.1-2.1,2-3c0.4-0.4,0.8-0.8,1-1c1.3-1.1,1.8-1.1,2-1
				c0.2,0.2,0.1,0.7,0,1c-0.2,0.4-0.5,0.6-1,1c-0.2,0.2-0.6,0.5-1,1c-1,1.4-1.1,1.9-1,2s0.5-0.1,1,0c0.4,0.1,1,0.4,1,1
				c0,0.6-0.6,1.1-1,1c-0.5-0.1-0.5-0.9-1-1c-0.4,0-0.9,0.5-1,1c0,0.2,0,0.4,0,1c0,0.8,0.1,1,0,1C398.8,119.1,398.3,118.6,398,118z"
				/>
			<g>
				<path class="st39" d="M391,114c0.3-0.5,0.9-1.3,2-2c0.8-0.5,1.5-0.7,3-1c0.3-0.1,0.6-0.1,1,0c0.4,0.2,0.9,0.5,1,1
					c0,0.2,0.1,0.6-1,2c-0.8,1-1.2,1.5-2,2c-1,0.6-1.8,0.8-3,1c-0.6,0.1-0.8,0.1-1,0C390.2,116.5,390.9,114.3,391,114z"/>
			</g>
			<g>
				<path class="st41" d="M377,108c0.3-0.2,0.8-0.2,1,0c0.1,0.1,0,0.3,0,1c0,0.5,0,0.4,0,1c0,0.7-0.1,1,0,1c0.1,0.1,0.3-0.7,1-1
					c0,0,0.5-0.2,1,0c0.5,0.2,0.5,0.8,1,1c0.3,0.1,0.7,0.1,1,0c0.6-0.2,0.5-0.8,1-1c0.5-0.2,0.8,0.2,1,0c0.1-0.1,0.1-0.4,0-1
					c-0.1-0.8-0.1-0.9,0-1c0.2-0.2,0.7-0.2,1,0c0.8,0.4,0.9,1.6,1,2c0,0.3,0,0.6,0,1c-0.1,0.6-0.2,1.7-1,2c0,0-0.5,0.2-1,0
					c-0.6-0.3-0.6-1-1-1c-0.4,0-0.4,0.8-1,1c0,0-0.4,0.1-2-1c-0.8,0.9-1,1-1,1c-0.6,0.2-1.5-0.4-2-1C376,110.7,376.1,108.5,377,108z
					"/>
			</g>
			<path class="st41" d="M384,107c-0.1,0.1-0.4,0.1-0.5,0.1c-0.2,0-0.4-0.1-0.5-0.1c0.1-1.7,0-3.1,0-4c0-0.9-0.1-1.3,0-2
				c0.2-1.8,0.9-3,1-3c0,0-0.3,0.7,0,1c0.2,0.2,0.6,0.1,1,0c-0.3,1.3-0.7,2.7-1,4c0,0.3,0,0.7,0,1c0,0.7-0.1,1.3,0,2
				C384.1,106.5,384.2,106.8,384,107z"/>
			<g>
				<path class="st42" d="M376,121c0.3-1,0.9-2.5,2-4c0.6-0.8,1.1-1.5,2-2c1.5-0.8,3.8-1.1,5,0c0.4,0.4,0.3,0.6,1,3c0.8,2.8,1,3,1,4
					c0,1-0.4,1.7-1,3c-1,2.2-1.7,3.5-3,4c-1.7,0.6-3.5-0.7-4-1C375.9,125.8,376,121.6,376,121z"/>
			</g>
			<path class="st0" d="M376,121c-0.5-0.3,0.2-4.1,3-6c0.4-0.3,2-1.4,4-1c0.4,0.1,1.3,0.3,2,1c1.2,1.2,1,2.8,1,3c-0.4-0.3-1-0.8-2-1
				c0,0-1-0.2-2,0C379,117.6,376.6,121.3,376,121z"/>
			<path class="st0" d="M377,126c0.2-0.3,1.2,0.7,3,1c0.2,0,1,0.2,2,0c2.4-0.4,3.8-2.2,4-2c0.1,0.1-0.3,0.6-1,2
				c-0.6,1.3-0.5,1.5-1,2c-0.7,0.7-1.5,0.9-2,1c-0.5,0.1-1.2,0.3-2,0c-0.8-0.3-1.2-0.9-2-2C377.5,127.3,376.8,126.2,377,126z"/>
			<path d="M368,103c-0.1-0.2,0.6-1.5,2-2c0.8-0.3,1.5-0.3,3,0c1.4,0.2,2.3,0.6,3,1c0.9,0.5,1,0.8,1,1c0,0.4-0.5,0.9-1,1
				c-0.7,0.1-0.9-0.8-2-1c-0.4-0.1-0.8,0-1,0c-1,0.2-1.7,0.7-2,1c-0.6,0.6-0.5,0.7-1,1c-0.8,0.4-1.9,0.3-2,0c-0.1-0.3,0.9-0.9,1-1
				c1-0.6,1.7-0.4,2-1c0.2-0.3,0.2-0.8,0-1C370.4,101.5,368.2,103.3,368,103z"/>
			<path d="M386,103c0.2-0.4,0.4-0.5,1-1c0.7-0.7,0.6-0.8,1-1c0.5-0.3,0.9-0.1,2,0c1.7,0.1,2.1-0.4,3,0c0.2,0.1,0.8,0.4,1,1
				c0.1,0.3,0.2,0.9,0,1c-0.3,0.2-0.8-0.7-2-1c-0.4-0.1-0.9-0.2-1,0c-0.1,0.1,0.3,0.3,1,1c0.5,0.5,0.4,0.5,1,1c0.8,0.8,1,0.8,1,1
				c-0.1,0.3-1.2,0.5-2,0c-0.1-0.1-0.4-0.4-1-1c-0.8-0.9-0.9-0.9-1-1c-0.5-0.3-1.4-0.4-2,0c-0.5,0.3-0.4,0.7-1,1c0,0-0.7,0.3-1,0
				S386,103.1,386,103z"/>
			<g>
				<path class="st43" d="M295,252c3.9-2.9,5.5-5.6,9-10c1.4-1.7,3.4-4.1,6-7c1-2,2-4,3-6c0.7-2.1,1.8-5.2,3-9c4-12.7,3.7-15.7,7-27
					c5.5-18.9,9.3-24.3,13-28c1.9-1.9,3.5-3.1,6-5c2.8-2.1,11.6-8.6,22-12c14.7-4.7,28.5-1.8,35,0c1.3,1,3.3,2.5,6,4
					c2.6,1.5,3.1,1.4,6,3c0.8,0.4,2.3,1.3,8,5c3.7,2.4,5.5,3.6,6,4c1.1,0.9,6.7,5.7,8,13c0.5,2.8-0.3,2.1,0,9c0.2,4.3,0.6,7.1,1,9
					c0.7,3.5,1,5.3,2,7c0.8,1.4,2.7,4.1,7,6c2.3,8,4.7,16,7,24c8.7,9.7,17.3,19.3,26,29c-4.6-1.1-10.4-2-17-2c-10.5-0.1-19.1,2-25,4
					c-4.3-4.3-8.7-8.7-13-13c0.3,5.3,0.7,10.7,1,16c-3.3,1.6-6,3-8,4c-8,4.1-10.3,5.6-12,7c-2.5,2-3.6,3.1-4.2,3.6
					c-1.5,1.4-1.8,1.9-2.8,2.4c-4,2-11.5,1.2-27-12c-5-2.9-11.3-5.8-19-8c-3.2-0.9-6.2-1.5-9-2c0.7-2,1.3-4,2-6c0-2.3-0.1-4.8-1-5
					c-0.7-0.2-1.6,1.2-3,3c-1.3,1.8-3.3,4.2-6,7c-2.1,0.1-3.8,0.1-5,0c-3.1-0.2-6.9-0.9-8.9-1c-1.3,0-2.6,0-2.6,0
					c-0.1,0-0.3,0-0.4,0c-5.1,0.2-12.4,0.5-14,4c-0.9,1.9-1,4-1,4c0,0.4,0,0.6,0,2c0,0,0,0.8,0,3c0,3.8,0,13-5,16
					c-0.9,0.5-2.5,1.2-5,1c-0.2-0.9-0.5-1.9-1-3c-1.2-2.5-2.9-4.1-4-5c0.5-0.8,1.3-2.1,2-4c4.1-10.2,0-18.1,5-23
					C293,253.1,292.8,253.7,295,252z"/>
			</g>
			<path class="st0" d="M362,161c1-0.2,1.7,2.9,4,5c4.8,4.4,14.1,1.5,19,0c3.6-1.1,9.1-3.3,15-8c0.4,1.9,0.9,5.1,1,9
				c0.2,6.4-0.6,10.8-2,20c-0.7,4.7-1.3,9.3-2,14c-2.4,16.5-2.7,29.9-3,40c-0.2,6.1-0.2,13.9,0,23c-1.4,0.2-3.5,0.6-6,1
				c-9.4,1.5-11.8,1.4-14,1c-1.4-0.2-3.5-0.8-6-2c-0.2-6.4-0.6-15.7-1-27c-0.6-16.4-0.9-24.5-1-25c-1.3-9.3-4.8-33.2-5-46
				C361,165,361,161.2,362,161z"/>
			<g>
				<path class="st44" d="M368,265c-1-9.1-1.1-16.1-1-21c0-2.6,0.2-5.5,0-10c-0.1-3.6-0.4-4.7-1-12c-0.7-8.2-0.6-8.2-1-12
					c-0.6-5.9-1-6.1-2-13c-1.6-11.5-1.9-20.1-2-24c-0.1-2.9,0-5.3,0-7c2.1,8.4,3.3,15.2,4,20c1.1,7.7,1.2,11.3,4,16
					c1.2,2,4.3,7.1,10,9c2.4,0.8,5.2,0.9,11,1c2.5,0.1,4.6,0,6,0c-0.3,4.3-0.7,8.7-1,13c-4.9,3.1-8.5,3.4-11,3c-1.7-0.3-3.8-1-6,0
					c-1.5,0.7-2.4,2-3,3c-0.4,2.3-0.7,4.6-1,7c-1.2,10.1-1.4,19.5-1,28C371.3,265.7,369.7,265.3,368,265z"/>
			</g>
			<path class="st37" d="M362,164c-0.5-1.1-0.4-2.8,0-6c0.5-4.2,1.3-7.6,2-10c1.7-1.1,2.5-2.2,3-3c0.1-0.2,0.2-0.4,1-2
				c0.4-0.9,0.8-1.5,1-2c0.3-3,0.7-6,1-9c0.7,1.6,2,3.5,4,5c1.5,1.1,3,1.6,4,2c1.8,0.7,3.4,0.9,4,1c3.4,0.3,7.7-3.4,11-9
				c-0.2,3.3-0.1,6,0,8c0.2,3,0.5,4,1,5c1.1,2.2,2.9,3.4,4,4c0.4,1.3,0.7,2.6,1,4c0.5,2.1,0.8,4.1,1,6c-0.7,0.4-1.8,1.1-3,2
				c-2.7,1.9-4.5,3.6-5,4c-3.7,3.2-10,3.8-13,4C376,168.2,364.5,169.2,362,164z"/>
			<g>
				<path class="st45" d="M370,132c-0.4,0.2-0.6,1,0,4c1.4,2.4,2.9,4,4,5c1.2,1.1,2.3,1.9,4,3c2.6,1.8,3.9,2.6,5,3
					c4.2,1.4,9.1-2.4,11-4c-0.5-2.3-0.9-5-1-8c-0.1-1.4,0-2.7,0-4c-1.3,2.5-3,4.1-4,5c-1.4,1.2-3.3,2.7-6,3c-2.2,0.2-3.8-0.5-5-1
					C373,135.8,371,131.5,370,132z"/>
			</g>
			<path class="st46" d="M364,148c-0.7,2.7-1.3,5.3-2,8c-7.7,2.9-13.7,5.8-18,8c-3.6,1.8-5.7,3.1-8,5c-4.1,3.5-6.6,7.3-8,10
				c2.4-8.3,6.5-13.4,9-16c4-4.1,8-6.3,13-9C355.5,151,360.4,149.2,364,148z"/>
			<path class="st46" d="M398,148c0.7,2.3,1.3,4.7,2,7c2.9,1.3,5.4,2.3,7,3c4.4,1.9,6.2,2.5,9,4c2.2,1.1,3.4,1.8,5,3
				c2.9,2.2,4.6,4.5,5,5c1.3,1.7,1,1.9,3,5c1.6,2.5,3.3,5.3,4,5c0.5-0.2,0.1-2.3,0-3c-0.2-1-0.6-2.4-2-5c-0.9-1.7-2-3.7-4-6
				c-0.9-1-1.8-2-3-3c-4.5-4-10.5-7.2-18-11C403.9,150.9,401.2,149.6,398,148z"/>
			<g>
				<path class="st47" d="M301,262c1.2-0.6,2.9-1.4,5-2c1.7-0.5,3.5-0.8,7-1c2.1-0.1,5.3-0.2,10,0c5.2,0.2,9.2,0.8,11,1
					c4.9,0.7,8.5,1.4,11,2c3.6,0.8,5.5,1.2,8,2c4.5,1.4,8,3,10,4c1.4,0.7,2.5,1.2,4,2c3.3,1.8,5.7,3.6,9,6c2.2,1.6,2,1.6,4,3
					c1.8,1.3,2.6,1.8,4,3c2,1.8,2.7,2.8,3,4c0.1,0.6,0.3,1.3,0,2c-0.2,0.5-0.5,0.5-2,2c0,0,0,0-1,1s-1,1-1,1c-0.5,0.5-1,1.8-1,5
					c-0.3,1.6-0.7,3-1,4c-0.9,3.1-1.8,4.7-2.6,8.1c-0.8,3.2-0.5,3.7-0.4,3.9c0.9,1.1,3,0.2,8,0c0,0,0,0,5,0c3.7,0,7.3,0,11,0
					c0.1-0.7,0.1-1.8,0-3c-0.2-1.7-0.6-2.9-1-4c-1.1-3.1-0.1-0.5-2-6c-1.3-3.6-1.9-5.4-2-8c0-0.4,0-0.8,0-1c-0.4-0.1-1.3-0.3-2-1
					c-1-1.1-1-2.5-1-3c0-1.4,0.6-2.4,1-3c4.5-6.9,14-12,14-12c3.4-1.8,8.1-4,14-6c1.4-0.5,3.4-1.2,6-2c2.2-0.7,3.6-1,7-2
					c1.7-0.5,4.1-1.1,7-2c1.7-0.3,4.1-0.7,7-1c5-0.5,8.6-0.3,14,0c1.2,0.1,3.8,0.4,9,1c0.6,0.1,3.3,0.4,6,2c0.8,0.5,1.6,1,2,2
					c0,0.1,0.8,1.8,0,3c-0.4,0.6-0.8,0.5-1,1c-0.2,0.5-0.2,1.4,1,3c0.2,0.8,0.5,2.2,1,4c2.3,8.9,3.8,12.9,6,21c0.5,1.7,1.2,4.5,2,8
					c0,0.7,0,1.3,0,2c0,0,3,0,3,0c3,0,3,0,3,0c2.6,0,10.2-0.6,15-2c0.3-0.1,1.2-0.3,2,0c1.2,0.5,1.9,1.8,2,3c0.2,2.2-1.7,3.8-2,4
					c-0.8,0.6-1.5,0.9-2,1c0,0.9-0.1,2.3,0,4c0.2,6.5,1.6,11.3,2,13c1,4,2.3,10.3,3,20c0.7,0.1,1.8,0.3,3,1c0.7,0.4,1.5,1,2,2
					c0,0.1,0.7,1.7,0,3c-0.6,1.1-1.9,1.5-4,2c-5.3,1.1-7.9,1.7-11,1c-2.4-0.5-5.4-1.8-6-2c-1.4-0.6-1.9-0.9-3-1
					c-1.4-0.2-2.5,0.1-5,1c-2.6,0.9-4.6,1.8-5,2c-2.3,1-4.7,2-7,3c-5.2,2.3-12.3,3.3-18,4c-9.9,1.3-18.2,2.3-25,3c2,2,4,4,6,6
					c-9,3.3-18,6.7-27,10c-0.3,0.3-1,1-1,2c0,1.4,1.2,2.4,2,3c2.5,1.9,5.5,2,7,2c6.9,0,14-2.7,17-4c-1,2.2-1.1,4-1,5
					c0.2,3.5,2.4,6,4,8c1.5,1.7,1.5,1.3,3,3c2.2,2.5,2.4,3.8,5,8c2,3.1,3,4.7,4,5c3.2,0.8,7-4.5,8-6c0.8,4.6,1.5,11.1,1,19
					c-0.4,6.5-1.5,22.6-12,39c-2.9,4.5-7.6,10.8-15,17c1.3,2,2.7,4,4,6c10.3-6,20.7-12,31-18c0-17.3,0-34.7,0-52c-1-0.3-2-0.7-3-1
					c0-4.3,0-8.7,0-13c0-0.3,0-0.7,0-1c1.5,0.3,2.7-0.2,3-1c0.1-0.2,0.2-0.5,0-1c2,0,4,0,6,0c0,0.7,0,1.3,0,2c0.7,0.3,1.3,0.7,2,1
					c0,4.3,0,8.7,0,13c-0.7,0.3-1.3,0.7-2,1c-0.3,17-0.7,34-1,51c0.2,0.5,0.5,1.2,1,2c0.8,1.1,1.6,1.7,2,2c1.6,1.2,5.6,4.1,11,8
					c5.7-6,11.3-12,17-18c0.3,1.3,0.7,2.7,1,4c-5,5.3-10,10.7-15,16c0,0.3,0,0.7,0,1c6.3,5.3,12.7,10.7,19,16c0.3,3,0.7,6,1,9
					c-0.5-0.1-1.3-0.4-2-1c-1.8-1.4-2-3.5-2-4c-6.3-5.3-12.7-10.7-19-16c-0.3-0.3-0.7-0.7-1-1c-4,4.3-8,8.7-12,13
					c-0.1,0.7-0.4,1.8-1,3c-0.5,1-1.6,3.2-4,4c-0.6,0.2-2,0.7-3,0c-1.5-1-1.1-3.5-1-4c0.3-2,1.7-4.5,4-5c0.8-0.2,1.5-0.1,2,0
					c4-4.3,8-8.7,12-13c-4-3.7-8-7.3-12-11c-9.7,5.7-19.3,11.3-29,17c-0.3,0.3-0.7,0.7-1,1c3.3,3.7,6.7,7.3,10,11
					c0.7,0.1,1.8,0.3,3,1c1.7,1,4.6,3.4,4,6c-0.3,1.4-1.6,2.7-3,3c-2.4,0.4-5.6-2.2-7-7c-3.7-3.7-7.3-7.3-11-11c-0.7,0-1.3,0-2,0
					c-1.7,1-3.3,2-5,3c-0.8,0.3-2,0.9-3,2c-1.2,1.3-1.2,2.2-2,3c-1.9,1.7-6.7,1.5-8-1c-1.2-2.3,1.1-6,4-7c1.7-0.6,3.2-0.2,4,0
					c2.7-1.3,5.3-2.7,8-4c-1-2-2-4-3-6c-5.7,3-11.3,6-17,9c-4.7,1.3-9.3,2.7-14,4c-3.9,0.5-8.3,0.9-13,1c-6.7,0.1-12.8-0.3-18-1
					c-2.7-0.7-5.7-1.6-9-3c-3.1-1.3-5.7-2.7-8-4c-3.3-2-6.7-4-10-6c-1.3,1.7-2.7,3.3-4,5c0.5,0.9,1.7,2.8,4,4c1.1,0.6,2.2,0.9,3,1
					c0.5-0.4,1.6-1.2,3-1c0.3,0,1.1,0.2,3,2c2,1.9,3,2.8,3,4c0,1.2-0.9,2.5-2,3c-2.7,1.4-6.2-1.4-7-2c-1-0.8-1.6-1.5-2-2
					c-1.5-1.7-4.1-3.7-9-5l-11,12c-0.6,1.2-0.9,1.8-1,2c-0.8,1.8-0.5,2.1-1,3c-0.7,1.1-2.2,2.2-4,2c-1.2-0.1-2.4-0.8-3-2
					c-1.1-2.2,0.9-4.9,2-6c1.5-1.4,3.2-1.9,4-2c3.3-3.7,6.7-7.3,10-11c-9.3-5.7-18.7-11.3-28-17c-0.3-0.3-0.7-0.7-1-1
					c-4,3.3-8,6.7-12,10c-0.1,0-0.8,0.3-1,1c-0.2,0.7,0.2,1.6,1,2c3.7,3.7,7.3,7.3,11,11c0.5,0.2,1.2,0.5,2,1c0.5,0.3,1.2,0.9,2,2
					c1.1,1.5,2.8,3.7,2,5c-0.5,0.9-2.1,1.1-3,1c-2.6-0.3-4.9-3.1-6-7c-3.7-4-7.3-8-11-12c-0.7,0-1.3,0-2,0c-5.3,4.7-10.7,9.3-16,14
					c-0.6,0.1-1.4,0.4-2,1c-0.6,0.6-0.7,1.3-1,2c-0.7,1.9-2.5,3.4-4,4c-0.6,0.2-2.6,1-4,0c-1.5-1.1-1.5-3.5-1-5c0.8-2.2,3.1-3.8,6-4
					c6.3-5.3,12.7-10.7,19-16c-9.3-10-18.7-20-28-30c0,7.3,0,14.7,0,22c0.4,0.5,0.8,1.1,1,2c0.6,2.7-1.3,6-3,6c-1.6,0-3.2-3.2-3-6
					c0.1-1.3,0.6-2.4,1-3c0-7,0-14,0-21c-0.3,0-0.7,0-1,0c-6,5.7-12,11.3-18,17c-0.7-1-1.3-2-2-3c7-7,14-14,21-21c0-2.3,0-4.7,0-7
					c0-14.3,0-28.7,0-43c-0.4,0.2-1.3,0.4-2,0c-1.2-0.6-1.4-2.7-1-4c0.2-0.8,0.6-1.3,3-4v-12c5.7-0.3,11.3-0.7,17-1c3-0.7,6-1.3,9-2
					c1-1,2-2,3-3c0.2-0.6,0.4-1.3,0.6-2.1c0,0,0.3-1.4,0.4-2.9c0.2-2.3-0.1-5.2-1-10c-0.2-1.3-0.6-3-1-5c0.6,1,1.4,2.3,2,4
					c0.6,1.6,0.9,3.1,1,4c0.1,0.8,0.1,1.1,0,7c0,0.5,0,2,0,3.9c0,0,0,0.1,0,0.1c0.7,0,1.3,0,2,0c0-4.4-0.5-8.1-1-11
					c-0.8-4.6-2-8.1-3-11c-1.9-5.5-2.4-5.5-4-10c-2-5.5-4.6-13.2-3-22c0.3-1.8,0.7-3.1,1-4c0.7-0.1,1.7-0.2,3,0c2.1,0.3,2.8,0.9,4,1
					c1.1,0.1,2.8-0.4,5-3c4-14.7,8-29.3,12-44c-0.3-0.4-1-1.5-1-3C299,263.6,300.8,262.2,301,262z"/>
			</g>
			<g>
				<path class="st48" d="M368,264c4.5,0.7,9.9,1.2,16,1c3.7-0.1,7-0.5,10-1c1,6.3,2,12.7,3,19c-1.8,0.5-3,2.1-3,4s1.2,3.5,3,4
					c2.4,6.6,3.5,10.5,4,13c0,0.1,0.1,0.5,1,5c0.3,1.3,1,4.9,1,5c0.5,2.5,1.8,8,5,21c-0.4,0.7-0.8,1.7-1,3c-0.3,1.7-0.2,3.1,0,4
					c0,0,0.3,1.5,1,3c1.2,2.5,5.3,5.4,11,7c0.3,2.3,0.7,4.7,1,7c-5.3-2.9-9.9-4.3-13-5c-1.3-0.3-3.3-0.7-6-1c-2.4-0.2-3.2,0-9,0
					c0,0-1.7,0-5,0c-5,0-5,0-5,0c-2.7,0-10.5,2.2-30,10c-0.3-1.3-0.5-3.4,0-6c0.5-2.3,1.4-4,2-5c1.6,0.3,5.6,0.9,10-1
					c6-2.5,8.5-7.8,9-9c0.2-1.3,0.1-2.3,0-3c-0.3-1.3-0.9-2.8-1-3c0,0,0,0,0,0c-1.4-3.1,7-29,7-29c1-3,2.3-7.8,3-14
					c0.6-2.4,1.5-4.8,3-5c0.5-0.1,0.9,0.2,1,0c0.6-0.7-4.3-7.3-11-12c-1.9-1.3-4.6-3.1-8-5C367.3,268.7,367.7,266.3,368,264z"/>
			</g>
			<path class="st49" d="M369,272c-1-0.4-1.7-0.4-2-1c-0.2-0.4-0.1-0.8,0-1c0.3-1.7,0.7-3.3,1-5c1.3,0.3,2.7,0.7,4,1
				c-0.3,2.3-0.7,4.7-1,7C370.2,272.5,369.5,272.2,369,272z"/>
			<path class="st49" d="M372,273c0.1-0.1,1.1,0.7,3,1c0.9,0.1,1.3,0,3,0c1.3,0,2.3,0,3,0c0-0.7,0.1-1.7,0-3c-0.2-2.2-0.6-3.6,0-4
				c0.4-0.3,1,0,1,0c0.7,0.3,0.9,1.2,1,2c0.2,1,0,1.5,0,3c0,0.9,0,1.6,0,2c0.2,0,0.6,0,1,0c2.3,0,4.6-0.1,7-1c1.6-0.6,2.6-1.4,3-1
				c0.2,0.2,0.1,0.7,0,1c-0.3,0.6-1,0.8-2,1c-1.9,0.5-1.7,0.7-3,1c-2.4,0.5-4.6,0.3-6,0v6c-0.7-0.3-1.3-0.7-2-1c0-1.7,0-3.3,0-5
				c-0.5,0-1.2,0-2,0c-2.6,0-3.1,0.2-4,0C373.1,274.6,371.9,273.1,372,273z"/>
			<g>
				<path class="st49" d="M384,291c-0.2,0-0.6,0.8-2,5c0,1.3,0,2.7,0,4c0.2,0.5,0.5,1.2,1,2c0.4,0.6,1,1.5,2,2c1.4,0.8,3.5,0.8,4,0
					c0.2-0.3,0.2-0.8,0-1c-0.2-0.2-0.4-0.1-1,0c-0.9,0.1-1.5,0.2-2,0c-0.4-0.2-0.6-0.4-1-1c-0.2-0.3-0.7-1-1-2c-0.2-0.8-0.1-1.1,0-3
					c0-1.3,0-1.1,0-3C384,291.7,384.1,291,384,291z"/>
			</g>
			<path class="st49" d="M393,339c0-4.7,0-9.3,0-14c0-2,0-4,0-6c0.3,0,0.7,0,1,0c1,7.3,2,14.7,3,22c-0.6,0-1.8-0.1-3-1
				C393.6,339.7,393.2,339.3,393,339z"/>
			<path class="st28" d="M388,352c-0.3-11.3-0.7-22.7-1-34c-0.3,0-0.7,0-1,0c-0.6,0.5-1.3,1.1-2,2c-1.5,1.9-1.9,3.9-2,5
				c-0.8,4.7-1.5,9.7-2,15c-0.5,4.5-0.8,8.9-1,13c1,0,2,0,3,0s2-0.1,3,0c0.9,0.1,1.4,0.3,2,0C387.5,352.8,387.8,352.3,388,352z"/>
			<path d="M299,266c2.4-0.7,5.8-1.5,10-2c8.7-1.1,15.5-0.5,20,0c2.8,0.3,6.8,0.7,12,2c4.9,1.2,8.3,2.5,12,4c1.3,0.5,7.3,2.9,15,7
				c4.9,2.6,8.5,5,10,6c2.8,1.8,5.1,3.6,7,5c-0.2,0.1-1.5,0.6-2,2c-0.3,0.9-0.1,1.7,0,2c-1.3-1.3-2.7-2.7-4-4c-2.2-1.6-5.2-3.7-9-6
				c-11.3-6.8-20.9-10-24-11c-5.8-1.9-10.9-3.5-18-4c-7.7-0.6-15,0.3-21,1c-2.9,0.4-5.3,0.7-7,1C299.7,268,299.3,267,299,266z"/>
			<g>
				<path class="st50" d="M294,311c1.7-6.3,3.4-12.6,5-19c2.1-8.1,4.1-16.1,6-24c2.1-0.4,4.5-0.8,7-1c4.1-0.4,7.8-0.3,11,0
					c-3.7,14.7-7.3,29.3-11,44c-2-0.5-4.3-0.9-7-1C300.6,309.8,296.8,310.3,294,311z"/>
			</g>
			<path class="st50" d="M319,310c3.7-14,7.3-28,11-42c0.5,0,1.2,0,2,0c4,0.1,7,0.8,8,1c0.7,0.2,2.5,0.8,6,2c5.1,1.8,6.6,2.4,8,3
				c1.7,0.8,3.1,1.5,4,2c-4,14.3-8,28.7-12,43c-7.7-2.3-15.3-4.7-23-7c-0.9,0.1-1.6,0.1-2,0c-0.8-0.1-1.7-0.3-2-1
				C318.8,310.6,318.9,310.2,319,310z"/>
			<path class="st50" d="M352,321c-1.3-1.4,3.3-18.8,11-42c0.3,0,0.6,0,1,0c1.3,0.1,2.4,0.6,3,1c1.6,0.9,3.3,1.9,5,3
				c2.6,1.7,4.9,3.4,7,5c-3.7,14.3-7.3,28.7-11,43c-1.6-1.5-3-2.4-4-3c-1.9-1.2-3.6-1.9-8-4c-0.5-0.3-1.7-0.9-3-2
				C353,322,352.5,321.5,352,321z"/>
			<path d="M288,313c0.3-1,0.7-2,1-3c1.7-0.3,3.3-0.7,5-1c3.8-0.6,7.8-0.9,12-1c27.7-0.5,49.6,12.1,62,21c1.3,1.3,2.7,2.7,4,4
				c0,1,0,2,0,3c-1.2-1.3-2.5-2.6-4-4c-3.5-3.1-7-5.4-10-7c-4-2.2-7.5-3.8-10-5c-2.6-1.2-4.4-2-7-3c-4.4-1.6-7.8-2.5-10-3
				c-4.9-1.2-8.6-1.7-11-2c-5.9-0.8-10.5-1-12-1c-5.2-0.1-10-0.3-16,1C290.3,312.4,289,312.7,288,313z"/>
			<path d="M280,315c0.7-0.3,1.5-0.1,2,0c1,0.2,1.6,0.7,2,1c-0.5,0.7-0.8,1.4-1,2c-2,5.9,3.2,12,4,13c1.4,1.3,3,2.6,5,4
				c2.5,1.7,4.9,3,7,4c-0.3-0.7-0.7-1.3-1-2c-1-0.9-2.8-2.3-5-4c-4.3-3.2-5.7-3.8-7-6c-0.4-0.7-2.6-4.4-1-7c0.8-1.3,2.2-1.8,3-2
				c2.1-0.7,4.8-1.4,8-2c0,0,4.7-0.9,10-1c4-0.1,13.8,0,25,3c17.5,4.6,30.7,14,37,19c0.5,0.4,1.5,1.4,2,3c0.6,1.9,0.2,3.4,0,4
				c-1,1-2,2-3,3c-1.5,0.7-3.2,1.4-5,2c-6.2,2-11.8,2.2-16,2c-0.3,0.3-0.7,0.7-1,1c3,0,6,0,9,0c-0.3,1-0.7,2-1,3
				c-4.1,0-9.6-0.2-16-1c-3.6-0.4-12.2-1.5-21-4c-7.3-2.1-18.9-6.4-32-16c-1.3-0.8-3.4-2.3-5-5c-0.7-1.1-2.2-3.6-2-7
				c0.1-1.6,0.5-2.7,1-4C278.6,316.4,279,315.4,280,315z"/>
			<g>
				<path class="st5" d="M290,320c1.2-1.4,2.7-1.7,4-2c1.7-0.4,2.2-0.1,7,0c0,0,1,0,3,0c5.9,0,6,0,6,0c4.1,0,11.5,1.3,18,3
					c6.9,1.8,11.9,3.8,15,5c1.8,0.7,4.9,2.1,11,5c1.6,0.7,4.1,1.9,7,4c4.5,3.2,5,5,5,6c0.1,1.6-0.9,2.8-1,3c-1.1,1.4-2.7,1.8-4,2
					c-5.2,1-9.7,1-10,1c-9.1,0-8.7,0-9,0c-22.5-1.1-39-11-39-11c-3.1-1.9-7.4-4.8-12-9c-0.5-0.2-1.5-0.8-2-2
					C287.9,322.6,289.9,320.1,290,320z"/>
			</g>
			<g>
				<path class="st50" d="M275,323c0.7,0,1.3,0,2,0c0.2,1.8,0.6,3.1,1,4c1.8,4.1,5.5,6.6,9,9c0.4,0.3,2.5,1.6,3,2l-4,21
					c-0.3,1.3-0.7,2.7-1,4c-0.2-2.5-0.6-4.6-1-6c-0.5-2-1.1-3.5-2-6c-0.8-2.1-1.5-3.8-2-5c-0.9-1.4-2-3.4-3-6c-1.5-4.1-1.8-7.5-2-10
					C274.9,328.2,274.8,325.8,275,323z"/>
			</g>
			<path class="st50" d="M280,397c-6.9-0.7-12.1-1.5-14-2c-1.6-0.4-3-1-3-1c-0.9-0.4-1.6-0.8-2-1c1-4.7,2-9.3,3-14
				c0.7,0,1.7,0.1,3,0c2-0.1,3.5-0.3,7-1c3.2-0.6,4.8-0.9,5-1c3.6-1.9,3.5-9.2,3-14c-0.8-4.1-1.7-8.8-1-9c0.5-0.1,1.5,2,2,3
				c2.7,5.6,1.5,11.5,1,14C282.7,377.9,281.4,386.4,280,397z"/>
			<path class="st50" d="M287,398c3.3-18.3,6.7-36.7,10-55c0.2,0,0.6,0,1,0c1.5,0.1,2.6,0.8,3,1c1.6,0.9,3.3,1.3,5,2
				c0,0,2.6,1.1,5,2c2.2,0.8,5.2,1.9,9,3c-3,17.3-6,34.7-9,52c-9.4-2.5-13.8-3.1-16-3c-0.7,0-3.2,0.1-6-1
				C288.1,398.6,287.4,398.3,287,398z"/>
			<path class="st50" d="M322,386c2-11,4-22,6-33c6,0.7,12,1.3,18,2c-0.3,2.3-0.7,4.7-1,7c-2.8,1.8-5.8,4.1-9,7c-3.8,3.5-6.8,7-9,10
				C325.3,381.3,323.7,383.7,322,386z"/>
			<path d="M255,380c-0.3,3-0.7,6-1,9c-0.4,0.4-0.9,1.1-1,2c0,0-0.1,0.5,0,1c0.2,1.4,36,7.6,62,12c-0.4,0.6-0.7,1.2-1,2
				c-0.8,1.9-1,3.7-1,5c1,0.3,2,0.7,3,1c0.7-3.3,1.9-7.9,4-13c1.1-2.6,5.4-12.6,15-23c3.7-4,9.2-9.2,17-14c0-1.3,0-2.7,0-4
				c-0.7,0.2-1.8,0.5-3,1c-2.3,1-3.4,2.1-7,5c-3.7,3-3.4,2.5-5,4c-0.5,0.5-2.5,2.2-5,5c-3.4,3.8-5.6,7-7,9c-0.8,1.1-3.8,5.5-6,10
				c0,0.1,0,0.1-3,6c-0.2,0.5-0.3,1.3-1,2c-1.1,1.1-2.7,1.1-4,1c-2.2-0.4-5.7-1.1-10-2c-6.1-1.3-7.6-1.6-14-3c-7-1.5-10.5-2.2-15-3
				c-2.7-0.5-5.9-1-11-2c-2.1-0.4-3.8-0.8-5-1c0.3-3.3,0.7-6.7,1-10C256.3,380,255.7,380,255,380z"/>
			<g>
				<path class="st51" d="M436,240c1.2-1.6,2.4-2.6,6-5c3.3-2.2,4.4-2.8,6-3c0.8-0.1,1.5-0.1,2,0c0.5,0.2,1,0.6,1,1
					c0,0.8-2.2,0.8-4,2c-1,0.6-2.1,1.8-3,4c-1.5,1-1.9,1.1-2,1c-0.2-0.2,0.3-1,2-4c0.9-1.6,1.1-1.9,1-2c-0.3-0.2-3.5,3.8-8,7
					c-0.9,0.6-1.8,1.2-2,1C434.7,241.7,435.8,240.3,436,240z"/>
			</g>
			<g>
				<path class="st46" d="M416,268c-1.5-12.3-2-22.8-2-31c0,0-0.1-29.7,6-54c0,0,0.6-2.6,0.7-2.7c0.1-0.3,0.3-1.3,0.3-1.3
					c0.3-0.4,0.7-1.1,1-1c1.1,0.3-0.4,8.9-1,19c-0.4,7-0.2,12.2,0,16c0.6,14.4,1,23.6,6,33c2,3.8,5.8,9.5,13,15c-2,0.3-4,0.7-6,1
					c-4-4-8-8-12-12c-0.7,0-1.3,0-2,0c0.7,5.3,1.3,10.7,2,16c-0.3,0.4-1.3,1.5-3,2C417.6,268.4,416.5,268.1,416,268z"/>
			</g>
			<g>
				<path class="st51" d="M420,249c0-8.4-0.5-15.3-1-20c-0.4-3.8-0.6-4.7-1-9c-0.8-8-1.2-12.7-1-18c0,0,0.1-4,4-23
					c0.3-0.1,0.7-0.2,1,0c0.7,0.6-0.3,2.8-1,5c-0.3,1.1-0.2,1-1,8c-0.8,7.3-0.9,7-1,9c-0.1,1.1-0.2,4.1,0,8c0.3,5,0.8,5.9,1,11
					c0.1,3-0.1,2.7,0,6c0.1,5.1,0.6,9.1,1,12c1,7.7,2.1,11.5,1,12C421.5,250.2,420.7,249.6,420,249z"/>
			</g>
			<g>
				<path class="st52" d="M326,259c3.7-5,7.3-10,11-15c0.2-1.9,0.5-5.1,1-9c1.3-9.4,2.5-12.7,3-20c0.2-3.6-0.1-1.8,0-10
					c0.1-9,0.6-12.7,0-19c-0.3-3.1-0.7-5.5-1-7c-0.2-1.2-0.2-1.9,0-2c0.3-0.1,1,0.5,2,2c0.7,2.3,1.3,4.7,2,7c1,0.7,2,1.3,3,2
					c0.4,2.2,0.7,4.6,1,7c1,8.9,0.8,17,0,24c0.3,5.3,0.7,10.7,1,16c0.3,6.3,0.7,12.7,1,19c-0.3,3-0.7,6-1,9c-2.7-0.7-5.3-1.3-8-2
					c0-3.7,0-7.3,0-11c-1,0.9-2.5,2.2-4,4c-2.6,3.2-3,5.2-5,6C330.8,260.5,329,260.6,326,259z"/>
			</g>
			<g>
				<path class="st51" d="M340,250c1.5-8.5,2.7-18.2,3-29c0.5-15.8-1-29.7-3-41c-0.5-0.9-0.4-1.7,0-2c0.4-0.3,1.4,0,2,1
					c0.3,1.9,0.7,4.3,1,7c0,0,0.6,5,1,10c1,12.6,0.1,28.8,0,31c-0.3,5.9-0.9,13.8-2,23C341.3,250,340.7,250,340,250z"/>
			</g>
			<path class="st51" d="M311,233c0.8,0.1,3,0.3,5,2c2.3,1.9,2.9,4.3,3,5c0.6,0.2,0.9,0.1,1,0c0.6-0.5,0.1-2.6-1-4
				c-0.4-0.5-0.7-0.8-1-1c1.6,1.1,3.3,2.4,5,4c0.7,0.7,1.4,1.3,2,2c0.7,0.2,0.9,0.1,1,0c0.5-0.6-2.3-3.9-5-6c-0.1-0.1-1.8-1.1-5-3
				c-1.3-0.8-2.1-1.2-3-1C311.9,231.3,311.2,232.4,311,233z"/>
			<path class="st51" d="M292,277L292,277c1.3,3,2.7,6,4,9c0.3-1.3,0.7-2.7,1-4c-0.5-3.8-2-6.6-4-7c-0.3-0.1-0.6-0.1-1,0
				C292,275.7,292,276.3,292,277z"/>
			<path class="st28" d="M427,362c-0.3-3.3-0.7-6.7-1-10c-0.7,0.1-1.7,0.1-3,0c-1.3-0.1-2.1-0.4-4-1c-3-0.9-4.5-1.3-5-1
				c-1.3,0.9-0.5,4.4,0,6C418.3,358,422.7,360,427,362z"/>
			<g>
				<path class="st50" d="M401,288c5-3.3,10-6.7,15-10c4,14.3,8,28.7,12,43c-5.3,3.3-10.7,6.7-16,10
					C408.3,316.7,404.7,302.3,401,288z"/>
			</g>
			<path class="st50" d="M434,318c1.9-0.7,3.9-1.4,6-2c7.6-2.3,14.7-3.5,21-4c-3.7-14.7-7.3-29.3-11-44c-2.7,0.1-5.8,0.4-9,1
				c-7.4,1.3-13.4,3.7-18,6C426.7,289.3,430.3,303.7,434,318z"/>
			<path class="st50" d="M457,267c6,0.3,12,0.7,18,1c3.7,14.3,7.3,28.7,11,43c-6,0-12,0-18,0C464.3,296.3,460.7,281.7,457,267z"/>
			<path d="M395,289c3.5-3.1,8.5-7.1,15-11c4.6-2.8,12.9-7.8,25-11c4.3-1.1,14.3-3.8,27-3c1.5,0.1,7,0.7,18,2l0,0l0,0l0,0
				c1.6,0.6,1.9,0.8,2,1c0.1,0.3-0.2,0.9-2,2c-2.2-0.3-5.3-0.7-9-1c-4.6-0.4-10.9-0.8-19,0c-3.1,0.3-8.9,1-16,3
				c-3.9,1.1-10.5,3-18,7c-12.4,6.7-19.1,15-22,13C395.3,290.5,395.1,289.6,395,289z"/>
			<path d="M408,333c5.2-6.2,10.5-9.9,14-12c4.2-2.5,7.9-3.9,11-5c4.2-1.6,7.5-2.4,14-4c6.3-1.6,9.4-2.3,14-3c2.6-0.4,6.7-1,12-1
				c4.5,0,10.7,0.3,18,2c0-1,0-2,0-3c1.7-0.3,3.3-0.7,5-1c0.3,2.3,0.7,4.7,1,7c1.1,0.8,2.6,2,4,4c1.2,1.7,1.8,3.3,2,4
				c1.4,5.1-6.9,12.3-9,14c-2.5,2.1-8.1,6.4-26,13c-8.7,3.2-13.1,4.9-19,6c-9.8,1.9-18.2,1.6-24,1c0.3-0.7,0.7-1.3,1-2
				c6.9-0.4,9-0.7,9-1s-2.1-0.6-9-1c-3.1-0.4-6.9-1.2-11-3c-2.1-0.9-3.2-1-4-2c-1.7-2.3-0.4-5.8,0-7c3.5-10,25.9-17,29-18
				c0,0,15.6-4.8,35-5c7.5-0.1,14,1,14,1c2.1,0.4,3.8,0.7,5,1c0.6,1.1,0.9,2.2,1,3c0.5,4.3-2.7,8.9-8,12c-3,2.3-6,4.7-9,7
				c1.3-0.3,3.5-0.9,6-2c2.3-1.1,13-6.3,14-15c0.1-1,0.4-3.6-1-6c-1.2-2-3-3.1-5-4c-5.2-2.3-10.7-2.5-20-2c-5.4,0.3-8,0.4-12,1
				c-8.7,1.3-15,3.4-20,5c-6.2,2.1-10.1,3.4-15,6c-7.1,3.8-12.4,8.4-16,12C408.7,334.3,408.3,333.7,408,333z"/>
			<g>
				<path class="st5" d="M442,346c-3.2,0.5-25.7,3.8-28-2c-0.2-0.6-0.6-2.3,0-4c0.6-1.6,1.9-2.5,6-5c3-1.8,4.5-2.7,5-3
					c11.5-6,21-9,21-9c4.7-1.5,9.1-2.3,18-4c0,0,9.4-1.8,19-1c2,0.2,5.3,0.6,7,3c0.7,1.1,0.9,2.2,1,3c-0.7,1.3-2,3.1-4,5
					c-2.4,2.2-4.6,3.3-6,4c-11.6,5.6-17.4,8.5-19,9C457.1,343.6,450.3,345.4,442,346z"/>
			</g>
			<g>
				<path class="st50" d="M433,360c-0.2-0.4-0.1-0.7,0-2c0.1-1.3,0-2.3,0-3c6-0.7,12-1.3,18-2c0,1.7,0,3.3,0,5c-3,0.3-5.4,0.7-7,1
					c-2,0.4-4,0.7-6,1C435.2,360.5,433.5,360.8,433,360z"/>
			</g>
			<path class="st50" d="M459,351c5.4-0.8,9.4-2,12-3c3-1.1,6.1-2.6,7-3c1.6-0.8,3-1.5,4-2c0.3,3.7,0.7,7.3,1,11c-8,1-16,2-24,3
				C459,355,459,353,459,351z"/>
			<path class="st50" d="M491,353c-0.3-4.7-0.7-9.3-1-14c3.5-2.7,6.2-5.2,8-7c1.4-1.4,2.3-2.4,3-4c1.1-2.4,1-4.6,1-6
				c0-2.1-0.1-3.5-1-5c-1.2-2-3.1-2.3-3-3c0.1-0.5,1.3-1,6-1c0.8,6.8,1.5,12.2,2,16c0.8,6.3,1.6,11.1,3,21l0,0l0,0l-6,1
				C499,351.7,495,352.3,491,353z"/>
			<path class="st50" d="M437,368c-3.3-2-6.7-4-10-6c-0.3-1.7-0.7-3.3-1-5"/>
			<path d="M436,368c-3-2-6-4-9-6c-0.3-1.7-0.7-3.3-1-5c0.6,0.5,2,1.6,4,2c1.4,0.3,2.6,0.1,3,0c2.8-0.5,12.6-2,26-4
				c10.2-1.4,20.6-2.7,31-4c8.4-1,16.7-2,25-3c0.3,0.7,0.7,1.3,1,2c-1,0-2,0-3,0c-3.9,0.3-7,0.7-9,1c-5.2,0.7-6,1-13,2
				c-2.4,0.3-4,0.5-7,1c-2.9,0.5-4.6,0.8-6,1c-2,0.4-3.9,0.6-17,2c-7.4,0.8-7.6,0.8-9,1c-5.5,0.8-8.2,1.3-11,2c-1.8,0.5-3.5,1-6,1
				c-1.6,0-2.9-0.2-3,0c-0.1,0.3,2,1,4,2c1.6,0.9,3.8,2.4,6,5C440,368,438,368,436,368z"/>
			<g>
				<path class="st5" d="M333,391c2.7-4.6,7.9-13,18-20c10.7-7.3,21.4-9.2,26-10c1.2-0.2,5.4-0.9,11-1c0,0,8-0.2,15,1
					c15.1,2.6,29.1,13.7,32,16c-3.7,2.1-6.9,3.3-9,4c-4.5,1.4-7.8,1.6-9,4c-0.7,1.4-0.3,3,0,4c3.4,1.6,6.2,2,8,2c3,0.1,5.3-0.6,10-2
					c2.5-0.7,4.6-1.5,6-2c-0.3,2.1-0.1,3.8,0,5c0.2,1.7,0.7,5,3,8c1.1,1.5,1.3,1.1,3,3c2,2.3,2.5,3.8,4,6c1,1.5,2.6,3.6,5,6
					c0.4,2.2,0.8,5.3,1,9c0.1,1.6,0.6,12.1-2,22c-5.1,19.9-21.1,32.1-25,35c-4.6,3.5-13.6,10.2-27,13c-29.9,6.2-53.7-13-56-15
					c-3.9-3.3-21-18.3-24-44C320.4,412.8,329.8,396.4,333,391z"/>
			</g>
			<path d="M470,420c0-4.3,0-8.7,0-13c0-0.3,0-0.7,0-1c2,0,4,0,6,0h4c0.3,0.7,0.7,1.3,1,2c0,3.7,0,7.3,0,11c0,0.3,0,0.7,0,1
				c-1.4,0.6-4.4,1.7-8,1C471.8,420.8,470.8,420.4,470,420z"/>
			<g>
				<path class="st2" d="M325,484c0.5,0.4,7.9,6.2,11,7c0.4,0.1,1.2,0.3,2,0c0.6-0.2,0.7-0.5,2-2c1.4-1.6,1.9-2.1,2-3
					c0.1-0.4,0-0.8,0-1c-3-3-6-6-9-9c-7.3,0-14.7,0-22,0C315.7,478.7,320.3,481.3,325,484z"/>
			</g>
			<g>
				<path class="st0" d="M307,472c0-17,0-34,0-51c0.7,0,1.3,0,2,0c0.3-0.3,0.7-0.7,1-1c0-3,0-6,0-9c2,0.3,4,0.7,6,1
					c-0.3,2-0.8,5.1-1,9c-1.1,19.4,5.1,33.9,7,38c1.7,3.8,4.5,9.1,9,15c-7.3,0-14.7,0-22,0C308.3,473.3,307.7,472.7,307,472z"/>
			</g>
			<g>
				<path class="st2" d="M280,476c6.3,0,12.7,0,19,0c-3.7,2.7-7.3,5.3-11,8C285.3,481.3,282.7,478.7,280,476z"/>
			</g>
			<g>
				<path class="st0" d="M257,451c0-16.7,0-33.3,0-50c14,2.7,28,5.3,42,8c0,3.7,0,7.3,0,11c0.7,0.3,1.3,0.7,2,1c0.3,1,0.7,2,1,3
					c0,16,0,32,0,48c-0.3,0.7-0.7,1.3-1,2c-2.7,0-5.3,0-8,0c-4.7,0-9.3,0-14,0C271.7,466.3,264.3,458.7,257,451z"/>
			</g>
			<path d="M299,420c0-3.7,0-7.3,0-11c3.7,0.7,7.3,1.3,11,2c0,3,0,6,0,9c-1,0.4-2.4,0.8-4,1C302.9,421.3,300.4,420.5,299,420z"/>
			<g>
				<path class="st4" d="M292,231c2.8,0.9,6.9,2,12,3c6.1,1.1,9.7,1.8,10,1c0.6-1.5-9.8-6.4-17-9c-4.2-1.5-6.3-1.9-7-1
					C288.9,226.4,291.5,230.2,292,231z"/>
			</g>
			<g>
				<path class="st37" d="M289,286c0.4,0.7,0.9,1.7,1,3c0.2,2.5-1.2,4.7-2,6c-0.9,1.4-1.3,1.6-2,3c-0.7,1.4-0.6,2-1,3
					c-1,2.5-3.5,4.3-4,4C280.3,304.6,281.9,300,289,286z"/>
			</g>
			<path class="st37" d="M482,277c0.4-0.3,1.1-0.8,2-1c1-0.3,1.9-0.2,3,0c2.8,0.5,4.4,0.8,6,2c1,0.7,1.6,1.8,3,4
				c1.2,1.9,2.2,3.5,3,6c0.4,1.2,0.8,2.9,1,5c-0.4,0.7-1.1,1.7-2,3c-4.2,6.1-6.5,9.4-8,9c-1-0.2-0.9-1.8-2-7c0,0-1-4.9-3-12
				C484.4,283.9,483.4,280.7,482,277z"/>
			<g>
				<path class="st41" d="M485,286c1,0,2,0,3,0c0-1.3,0-2,0-2s0.7-0.2,1,0c0.2,0.2,0,0.5,0,1c0,0.7,0.4,1,1,2c0.7,1.1,0.4,1.1,1,2
					c0.5,0.8,1,1.6,2,2c0.3,0.1,1.4,0.6,2,0c0.4-0.4,0.4-1.2,0-2c0-0.7,0-1.7,0-3c-0.1-3.2-0.5-4.9,0-5c0.3-0.1,0.8,0.5,1,1
					c0.1,0.4,0,0.8,0,1s-0.5,2.4,0,4c0.3,1,0.7,0.9,1,2c0.1,0.4,0.3,1.2,0,2c-0.5,1.2-1.8,1.9-3,2c-1.8,0.1-3.2-1.2-4-2
					c-1.8-1.7-2.3-3.1-3-3c-0.4,0.1-0.8,0.7-1,3C485.7,289.3,485.3,287.7,485,286z"/>
			</g>
			<path class="st41" d="M486,290c1.3,2.5,2.8,3.6,4,4c1.4,0.5,2.4,0.3,5,1c1.3,0.3,2.3,0.7,3,1c-0.3,0.3-0.7,0.7-1,1
				c-1.7-0.5-3-0.8-4-1c-2-0.3-2.8-0.3-4-1c-0.2-0.1-1.2-0.8-2-2C486.2,291.8,486,290.6,486,290z"/>
			<path class="st41" d="M488,297c2.3,1,4.7,2,7,3c0,0.3,0,0.7,0,1c-1.3-0.3-2.7-0.7-4-1c-1,0-2,0-3,0C488,299,488,298,488,297z"/>
			<path class="st41" d="M489,303c1.4-0.7,2.6-0.6,3,0c0.2,0.3,0.2,0.7,0,1c-0.5,0.9-2.5,0.9-3,0C488.8,303.7,488.9,303.3,489,303z"
				/>
		</g>
	</g>
</g>
<g id="Scene4Bubbles">
	<g id="Bubble1">
		<g id="Bubble1_1_">
			<path d="M485.7,133.5V127l-4.9-9h3.2l1.8,4c0.5,1.1,0.9,2,1.4,3.1h0c0.4-1,0.8-1.9,1.3-3.1l1.9-4h3.2l-5.1,9v6.5H485.7z"/>
			<path d="M505.9,127.8c0,4.1-2.9,6-5.8,6c-3.2,0-5.6-2.2-5.6-5.8c0-3.7,2.4-5.9,5.8-5.9C503.7,122,505.9,124.4,505.9,127.8z
				 M497.5,127.9c0,2.2,1.1,3.8,2.8,3.8c1.6,0,2.8-1.6,2.8-3.8c0-1.8-0.8-3.8-2.7-3.8C498.3,124.1,497.5,126,497.5,127.9z"/>
			<path d="M518.3,130.1c0,1.3,0,2.4,0.1,3.4h-2.5l-0.1-1.7h-0.1c-0.5,0.8-1.6,1.9-3.6,1.9c-2,0-3.9-1.2-3.9-4.9v-6.6h2.8v6.1
				c0,1.9,0.6,3.1,2.1,3.1c1.1,0,1.9-0.8,2.2-1.5c0.1-0.2,0.2-0.5,0.2-0.9v-6.8h2.8V130.1z"/>
			<path d="M534.3,133.2c-0.6,0.3-1.8,0.6-3.2,0.6c-3.5,0-5.8-2.3-5.8-5.7c0-3.4,2.3-6,6.2-6c1,0,2.1,0.2,2.7,0.5l-0.5,2.1
				c-0.5-0.2-1.1-0.4-2.1-0.4c-2.2,0-3.4,1.6-3.4,3.6c0,2.3,1.5,3.6,3.4,3.6c1,0,1.7-0.2,2.2-0.4L534.3,133.2z"/>
			<path d="M542.8,133.5l-0.2-1.2h-0.1c-0.7,0.9-1.8,1.5-3.3,1.5c-2.3,0-3.5-1.6-3.5-3.3c0-2.8,2.5-4.3,6.6-4.2V126
				c0-0.7-0.3-2-2.3-2c-1.1,0-2.2,0.4-3,0.8l-0.6-1.8c0.8-0.5,2.3-1,4.1-1c3.6,0,4.6,2.3,4.6,4.7v4c0,1,0.1,2,0.2,2.7H542.8z
				 M542.4,128c-2,0-3.9,0.4-3.9,2.1c0,1.1,0.7,1.6,1.6,1.6c1.1,0,1.9-0.7,2.2-1.5c0.1-0.2,0.1-0.4,0.1-0.6V128z"/>
			<path d="M548.1,125.6c0-1.3,0-2.4-0.1-3.3h2.5l0.1,1.7h0.1c0.5-0.9,1.7-1.9,3.6-1.9c2,0,4,1.3,4,4.8v6.6h-2.8v-6.3
				c0-1.6-0.6-2.8-2.1-2.8c-1.1,0-1.9,0.8-2.2,1.7c-0.1,0.2-0.1,0.6-0.1,0.9v6.6h-2.8V125.6z"/>
			<path d="M576.4,117.2v13.2c0,1.1,0,2.4,0.1,3.1h-2.5l-0.1-1.8h-0.1c-0.7,1.3-2,2-3.6,2c-2.7,0-4.8-2.3-4.8-5.7c0-3.8,2.3-6,5-6
				c1.5,0,2.6,0.6,3.1,1.5h0v-6.3H576.4z M573.5,127c0-0.2,0-0.5-0.1-0.7c-0.3-1.1-1.2-2-2.4-2c-1.8,0-2.8,1.6-2.8,3.7
				c0,2.1,1,3.6,2.8,3.6c1.2,0,2.2-0.8,2.4-2c0.1-0.3,0.1-0.5,0.1-0.8V127z"/>
			<path d="M590.1,127.8c0,4.1-2.9,6-5.8,6c-3.2,0-5.6-2.2-5.6-5.8c0-3.7,2.4-5.9,5.8-5.9C587.8,122,590.1,124.4,590.1,127.8z
				 M581.6,127.9c0,2.2,1.1,3.8,2.8,3.8c1.6,0,2.8-1.6,2.8-3.8c0-1.8-0.8-3.8-2.7-3.8C582.4,124.1,581.6,126,581.6,127.9z"/>
			<path d="M454,158.5c0.1-0.8,0.1-2,0.1-3.1v-13.2h2.8v6.7h0c0.7-1.1,1.9-1.8,3.6-1.8c2.7,0,4.7,2.3,4.7,5.7c0,4-2.5,6-5.1,6
				c-1.4,0-2.7-0.6-3.5-1.9h-0.1l-0.1,1.7H454z M456.9,153.9c0,0.2,0,0.5,0.1,0.7c0.3,1.1,1.3,2,2.5,2c1.8,0,2.8-1.4,2.8-3.7
				c0-2-1-3.6-2.8-3.6c-1.1,0-2.2,0.8-2.5,2.1c-0.1,0.2-0.1,0.5-0.1,0.7V153.9z"/>
			<path d="M469.5,153.7c0.1,2,1.6,2.9,3.5,2.9c1.3,0,2.2-0.2,3.1-0.5l0.4,1.9c-1,0.4-2.3,0.7-3.9,0.7c-3.6,0-5.8-2.2-5.8-5.7
				c0-3.1,1.9-6,5.5-6c3.6,0,4.8,3,4.8,5.4c0,0.5,0,0.9-0.1,1.2H469.5z M474.4,151.7c0-1-0.4-2.7-2.3-2.7c-1.7,0-2.5,1.6-2.6,2.7
				H474.4z"/>
			<path d="M482.6,144.1v3.2h2.7v2.1h-2.7v4.9c0,1.4,0.4,2.1,1.4,2.1c0.5,0,0.8-0.1,1.1-0.1l0.1,2.2c-0.4,0.2-1.2,0.3-2.1,0.3
				c-1,0-1.9-0.4-2.4-0.9c-0.6-0.6-0.9-1.7-0.9-3.1v-5.3h-1.6v-2.1h1.6v-2.5L482.6,144.1z"/>
			<path d="M490.7,144.1v3.2h2.7v2.1h-2.7v4.9c0,1.4,0.4,2.1,1.4,2.1c0.5,0,0.8-0.1,1.1-0.1l0.1,2.2c-0.4,0.2-1.2,0.3-2.1,0.3
				c-1,0-1.9-0.4-2.4-0.9c-0.6-0.6-0.9-1.7-0.9-3.1v-5.3h-1.6v-2.1h1.6v-2.5L490.7,144.1z"/>
			<path d="M497.5,153.7c0.1,2,1.6,2.9,3.5,2.9c1.3,0,2.2-0.2,3.1-0.5l0.4,1.9c-1,0.4-2.3,0.7-3.9,0.7c-3.6,0-5.8-2.2-5.8-5.7
				c0-3.1,1.9-6,5.5-6c3.6,0,4.8,3,4.8,5.4c0,0.5,0,0.9-0.1,1.2H497.5z M502.4,151.7c0-1-0.4-2.7-2.3-2.7c-1.7,0-2.5,1.6-2.6,2.7
				H502.4z"/>
			<path d="M507.4,150.9c0-1.5,0-2.6-0.1-3.6h2.5l0.1,2.1h0.1c0.6-1.6,1.9-2.4,3.1-2.4c0.3,0,0.4,0,0.7,0.1v2.7
				c-0.2-0.1-0.5-0.1-0.8-0.1c-1.3,0-2.3,0.9-2.5,2.1c0,0.2-0.1,0.5-0.1,0.9v5.8h-2.8V150.9z"/>
			<path d="M523.6,144.1v3.2h2.7v2.1h-2.7v4.9c0,1.4,0.4,2.1,1.4,2.1c0.5,0,0.8-0.1,1.1-0.1l0.1,2.2c-0.4,0.2-1.2,0.3-2.1,0.3
				c-1,0-1.9-0.4-2.4-0.9c-0.6-0.6-0.9-1.7-0.9-3.1v-5.3h-1.6v-2.1h1.6v-2.5L523.6,144.1z"/>
			<path d="M528.4,142.2h2.8v6.7h0c0.4-0.5,0.8-1,1.4-1.3c0.5-0.3,1.2-0.5,1.9-0.5c1.9,0,3.9,1.3,3.9,4.9v6.6h-2.8v-6.3
				c0-1.6-0.6-2.9-2.2-2.9c-1.1,0-1.9,0.7-2.2,1.6c-0.1,0.2-0.1,0.5-0.1,0.9v6.7h-2.8V142.2z"/>
			<path d="M547.9,158.5l-0.2-1.2h-0.1c-0.7,0.9-1.8,1.5-3.3,1.5c-2.3,0-3.5-1.6-3.5-3.3c0-2.8,2.5-4.3,6.6-4.2V151
				c0-0.7-0.3-2-2.3-2c-1.1,0-2.2,0.4-3,0.8l-0.6-1.8c0.8-0.5,2.3-1,4.1-1c3.6,0,4.6,2.3,4.6,4.7v4c0,1,0.1,2,0.2,2.7H547.9z
				 M547.5,153c-2,0-3.9,0.4-3.9,2.1c0,1.1,0.7,1.6,1.6,1.6c1.1,0,1.9-0.7,2.2-1.5c0.1-0.2,0.1-0.4,0.1-0.6V153z"/>
			<path d="M553.2,150.6c0-1.3,0-2.4-0.1-3.3h2.5l0.1,1.7h0.1c0.5-0.9,1.7-1.9,3.6-1.9c2,0,4,1.3,4,4.8v6.6h-2.8v-6.3
				c0-1.6-0.6-2.8-2.1-2.8c-1.1,0-1.9,0.8-2.2,1.7c-0.1,0.2-0.1,0.6-0.1,0.9v6.6h-2.8V150.6z"/>
			<path d="M574.4,144.1v3.2h2.7v2.1h-2.7v4.9c0,1.4,0.4,2.1,1.4,2.1c0.5,0,0.8-0.1,1.1-0.1l0.1,2.2c-0.4,0.2-1.2,0.3-2.1,0.3
				c-1,0-1.9-0.4-2.4-0.9c-0.6-0.6-0.9-1.7-0.9-3.1v-5.3H570v-2.1h1.6v-2.5L574.4,144.1z"/>
			<path d="M579.2,142.2h2.8v6.7h0c0.4-0.5,0.8-1,1.4-1.3c0.5-0.3,1.2-0.5,1.9-0.5c1.9,0,3.9,1.3,3.9,4.9v6.6h-2.8v-6.3
				c0-1.6-0.6-2.9-2.2-2.9c-1.1,0-1.9,0.7-2.2,1.6c-0.1,0.2-0.1,0.5-0.1,0.9v6.7h-2.8V142.2z"/>
			<path d="M595.4,144.2c0,0.8-0.6,1.5-1.6,1.5c-0.9,0-1.6-0.7-1.6-1.5c0-0.9,0.6-1.5,1.6-1.5C594.8,142.6,595.4,143.3,595.4,144.2z
				 M592.4,158.5v-11.2h2.8v11.2H592.4z"/>
			<path d="M598.1,155.9c0.6,0.4,1.8,0.8,2.9,0.8c1.2,0,1.8-0.5,1.8-1.3c0-0.8-0.5-1.1-1.8-1.6c-2.2-0.8-3.1-1.9-3.1-3.3
				c0-2,1.6-3.5,4.2-3.5c1.2,0,2.3,0.3,3,0.7l-0.6,2c-0.5-0.3-1.4-0.6-2.4-0.6c-1,0-1.6,0.5-1.6,1.2c0,0.7,0.5,1.1,2,1.6
				c2,0.7,3,1.8,3,3.4c0,2-1.6,3.5-4.5,3.5c-1.4,0-2.6-0.3-3.4-0.8L598.1,155.9z"/>
			<path d="M607.5,157c0-1.1,0.7-1.8,1.7-1.8c1,0,1.7,0.7,1.7,1.8c0,1-0.7,1.8-1.7,1.8C608.2,158.7,607.5,158,607.5,157z
				 M608.2,153.7l-0.4-10.7h3l-0.4,10.7H608.2z"/>
			<path d="M613.3,157c0-1.1,0.7-1.8,1.7-1.8c1,0,1.7,0.7,1.7,1.8c0,1-0.7,1.8-1.7,1.8C614,158.7,613.3,158,613.3,157z M613.9,153.7
				l-0.4-10.7h3l-0.4,10.7H613.9z"/>
			<path d="M619,157c0-1.1,0.7-1.8,1.7-1.8c1,0,1.7,0.7,1.7,1.8c0,1-0.7,1.8-1.7,1.8C619.7,158.7,619,158,619,157z M619.7,153.7
				l-0.4-10.7h3l-0.4,10.7H619.7z"/>
		</g>
	</g>
	<g id="Bubble2">
		<g id="Bubble2_1_">
			<path d="M193.4,81.6c1-0.2,2.4-0.3,4.3-0.3c2.1,0,3.6,0.4,4.6,1.3c0.9,0.8,1.5,2,1.5,3.4c0,1.5-0.5,2.7-1.3,3.5
				c-1.1,1.1-2.9,1.7-4.9,1.7c-0.5,0-1,0-1.4-0.1v5.8h-2.8V81.6z M196.2,88.8c0.4,0.1,0.8,0.1,1.4,0.1c2.1,0,3.4-1.1,3.4-2.9
				c0-1.7-1.2-2.6-3.2-2.6c-0.8,0-1.3,0.1-1.6,0.1V88.8z"/>
			<path d="M206.3,81.4h2.8v13.1h6.4v2.4h-9.2V81.4z"/>
			<path d="M226.3,90h-5.8v4.5h6.5v2.3h-9.4V81.4h9v2.3h-6.2v4h5.8V90z"/>
			<path d="M232.5,92.5l-1.3,4.4h-2.9l5-15.5h3.6l5,15.5h-3l-1.4-4.4H232.5z M237,90.4l-1.2-3.8c-0.3-1-0.6-2-0.8-2.9h-0.1
				c-0.2,0.9-0.5,2-0.7,2.9l-1.2,3.8H237z"/>
			<path d="M244,93.8c0.9,0.5,2.3,1,3.7,1c1.8,0,2.8-0.8,2.8-2.1c0-1.2-0.8-1.9-2.7-2.6c-2.6-0.9-4.2-2.3-4.2-4.5
				c0-2.5,2.1-4.5,5.5-4.5c1.7,0,2.9,0.4,3.7,0.8l-0.7,2.3c-0.6-0.3-1.6-0.7-3.1-0.7c-1.8,0-2.6,1-2.6,1.9c0,1.2,0.9,1.7,3,2.5
				c2.7,1,4,2.4,4,4.6c0,2.5-1.9,4.7-5.9,4.7c-1.6,0-3.3-0.5-4.2-1L244,93.8z"/>
			<path d="M264.7,90h-5.8v4.5h6.5v2.3H256V81.4h9v2.3h-6.2v4h5.8V90z"/>
			<path class="st53" d="M195.4,118.8c0.9,0.5,2.3,1,3.7,1c1.8,0,2.8-0.8,2.8-2.1c0-1.2-0.8-1.9-2.7-2.6c-2.6-0.9-4.2-2.3-4.2-4.5
				c0-2.5,2.1-4.5,5.5-4.5c1.7,0,2.9,0.4,3.7,0.8l-0.7,2.3c-0.6-0.3-1.6-0.7-3.1-0.7c-1.8,0-2.6,1-2.6,1.9c0,1.2,0.9,1.7,3,2.5
				c2.7,1,4,2.4,4,4.6c0,2.5-1.9,4.7-5.9,4.7c-1.6,0-3.3-0.5-4.2-1L195.4,118.8z"/>
			<path class="st53" d="M210.3,108.8h-4.4v-2.4h11.7v2.4h-4.5v13.1h-2.8V108.8z"/>
			<path class="st53" d="M233.2,114c0,5.2-3.1,8.2-7.4,8.2c-4.4,0-7.1-3.3-7.1-7.9c0-4.8,3-8.1,7.4-8.1
				C230.5,106.1,233.2,109.6,233.2,114z M221.6,114.2c0,3.2,1.6,5.7,4.3,5.7c2.7,0,4.3-2.5,4.3-5.8c0-2.9-1.5-5.7-4.3-5.7
				C223.1,108.4,221.6,111,221.6,114.2z"/>
			<path class="st53" d="M235.6,106.6c1-0.2,2.4-0.3,4.3-0.3c2.1,0,3.6,0.4,4.6,1.3c0.9,0.8,1.5,2,1.5,3.4c0,1.5-0.5,2.7-1.3,3.5
				c-1.1,1.1-2.9,1.7-4.9,1.7c-0.5,0-1,0-1.4-0.1v5.8h-2.8V106.6z M238.4,113.8c0.4,0.1,0.8,0.1,1.4,0.1c2.1,0,3.4-1.1,3.4-2.9
				c0-1.7-1.2-2.6-3.2-2.6c-0.8,0-1.3,0.1-1.6,0.1V113.8z"/>
			<path class="st53" d="M248,120.4c0-1.1,0.7-1.8,1.7-1.8c1,0,1.7,0.7,1.7,1.8c0,1-0.7,1.8-1.7,1.8
				C248.7,122.1,248,121.4,248,120.4z M248.7,117.1l-0.4-10.7h3l-0.4,10.7H248.7z"/>
			<path class="st53" d="M253.8,120.4c0-1.1,0.7-1.8,1.7-1.8c1,0,1.7,0.7,1.7,1.8c0,1-0.7,1.8-1.7,1.8
				C254.5,122.1,253.8,121.4,253.8,120.4z M254.4,117.1l-0.4-10.7h3l-0.4,10.7H254.4z"/>
			<path class="st53" d="M259.6,120.4c0-1.1,0.7-1.8,1.7-1.8c1,0,1.7,0.7,1.7,1.8c0,1-0.7,1.8-1.7,1.8
				C260.3,122.1,259.5,121.4,259.6,120.4z M260.2,117.1l-0.4-10.7h3l-0.4,10.7H260.2z"/>
		</g>
	</g>
</g>
</svg>
