<?xml version="1.0" encoding="utf-8"?>
<!-- Generator: Adobe Adobe Illustrator 24.2.0, SVG Export Plug-In . SVG Version: 6.00 Build 0)  -->
<svg version="1.1" xmlns="http://www.w3.org/2000/svg" xmlns:xlink="http://www.w3.org/1999/xlink" x="0px" y="0px"
	 viewBox="0 0 800 600" style="enable-background:new 0 0 800 600;" xml:space="preserve">
<style type="text/css">
	.st0{display:none;}
	.st1{display:inline;fill:none;}
	.st2{fill:#E8F0F7;}
	.st3{fill:none;stroke:#000000;stroke-miterlimit:10;}
	.st4{fill:#A6B5C7;}
	.st5{fill:#2A3946;}
	.st6{fill:#BBC1C7;}
	.st7{fill:none;stroke:#FFFFFF;stroke-miterlimit:10;}
	.st8{fill:#FFE3D2;stroke:#231F20;stroke-miterlimit:10;}
	.st9{fill:#3A2D9C;stroke:#000000;stroke-miterlimit:10;}
	.st10{fill:#3A2D9C;}
	.st11{fill:#240078;stroke:#000000;stroke-miterlimit:10;}
	.st12{fill:#FFFFFF;stroke:#000000;stroke-miterlimit:10;}
	.st13{fill:#3A2D9C;stroke:#231F20;stroke-miterlimit:10;}
	.st14{fill:#392C9A;}
	.st15{fill:#180052;}
	.st16{fill:#180052;stroke:#231F20;stroke-miterlimit:10;}
	.st17{fill:#170051;}
	.st18{fill:#C6C6C6;}
	.st19{fill:#FFE3D2;}
	.st20{fill:#DADADA;}
	.st21{fill:none;stroke:#231F20;stroke-miterlimit:10;}
	.st22{fill:#FFFFFF;stroke:#231F20;stroke-miterlimit:10;}
	.st23{fill:#FF0A56;stroke:#231F20;stroke-miterlimit:10;}
	.st24{fill:#3A3D47;}
	.st25{fill:#3A3D47;stroke:#000000;stroke-miterlimit:10;}
	.st26{font-family:'MyriadPro-Regular';}
	.st27{font-size:28.5185px;}
	.st28{stroke:#000000;stroke-width:1;stroke-miterlimit:10.0003;}
	.st29{fill:#FFB9E8;stroke:#000000;stroke-miterlimit:10;}
	.st30{fill:none;}
</style>
<g id="Layer_1">
	<g id="Layer_1_1_" class="st0">
		<path class="st1" d="M120,165"/>
	</g>
	<g id="building">
		<polygon class="st2" points="365.5,41.5 362.5,2.5 538.04,0 534.5,36.5 		"/>
		<polygon class="st3" points="344.66,43.87 559.5,36.5 559.5,43.87 487.5,50.5 486.61,43.5 350.5,47.5 355.5,290.5 344.66,279.75 
					"/>
		<polygon class="st4" points="538.04,0 644.5,31.5 640.5,52.5 559.5,36.5 534.5,36.5 		"/>
		<polygon class="st5" points="355.5,55.5 487.5,55.5 484.85,134 478.5,322.5 355.5,325.87 		"/>
		<polygon class="st6" points="538.5,130.5 484.85,134 484.53,143.49 538.04,139.64 		"/>
		<polygon class="st6" points="487.5,65.16 559.5,65.16 559.5,43.87 487.5,50.5 		"/>
		<polyline class="st6" points="640.5,52.5 705.2,65.16 738.5,70.5 744.5,72.5 718.5,442.5 640.5,446.91 652.5,195.5 655.5,78.5 
			559.5,65.16 		"/>
		<polygon class="st6" points="480.88,251.79 552.5,240.5 546.5,454.5 640.5,446.91 652.89,180.39 483.67,169 		"/>
		<polygon class="st2" points="324.5,97.5 344.66,97.5 344.66,279.75 327.5,265.5 		"/>
		<polygon class="st3" points="331.5,105.5 344.66,105.5 344.66,279.75 331.5,270.53 		"/>
		<polygon class="st6" points="366.5,374.5 548.69,376.41 546.5,454.5 370.5,451.5 362.5,374.5 		"/>
		<path class="st4" d="M744.5,442.92l-198,11.58c0,0-6,11.84,0,11.92c6,0.08,203.48-11.92,203.48-11.92L744.5,442.92z"/>
		<polygon class="st6" points="756.63,454.67 546.5,466.42 546.5,479.28 760.63,466.42 		"/>
		<polygon class="st4" points="766.39,466.42 770,476.18 543.83,489.48 546.5,479.28 		"/>
		<polygon class="st2" points="427.5,476.5 401.92,476.5 407.5,464.5 427.5,466.42 		"/>
		<polygon class="st6" points="406.8,452.12 407.5,464.5 427.5,466.42 430.74,452.12 		"/>
		<polygon class="st5" points="612.09,198.7 598.5,351.5 634.26,351.5 644.5,202.16 		"/>
		<polygon class="st7" points="375.76,325.31 375.76,55.5 427.5,54.5 424.55,323.98 		"/>
		<polygon class="st7" points="465.33,55.5 459.54,323.02 478.5,322.5 487.5,55.5 		"/>
		<polygon class="st7" points="355.5,55.5 487.5,55.5 486.46,86.45 478.5,322.5 355.5,325.87 355.5,85.99 		"/>
		<polygon class="st7" points="356.5,88.5 486.46,86.45 480.88,204 354.59,210.7 		"/>
		<polygon class="st7" points="612.09,198.7 633.01,200.93 644.5,202.16 634.26,351.5 615.97,351.5 598.5,351.5 		"/>
		<polyline class="st7" points="628.5,201.5 615.97,351.5 598.5,351.5 606.6,260.41 640.31,263.32 636.21,323.02 		"/>
		<polygon class="st2" points="344.66,411.88 548.69,407.89 552.5,240.5 480.88,251.79 478.5,322.5 355.5,325.87 354.59,276.5 
			344.66,279.75 		"/>
	</g>
	<g id="costume">
		<path class="st8" d="M241.5,212.5c0.36-2.04,1.29-5.6,4-9c2.02-2.53,4.15-3.86,6-5c1.38-0.85,5.21-3.07,14-5
			c4.87-1.07,8.52-1.45,14-2c8.37-0.84,12.55-1.38,14-1c8.63,2.25,13.26,11.52,16,17c3.54,7.08,3.93,12.74,4,14
			c0.1,1.74,0.16,5.48-1,10c-0.19,0.72-1.52,5.75-4,9c-1.28,1.67-3.31,3.46-3.56,3.66l-0.44,0.34c0,0,4.38-1.76,8-5
			c1.3-1.16,3.09-3.05,4-4c1.44-1.51,1.9-2.07,2-2c0.23,0.16-3.58,3.91-6,10c-1.36,3.41-1.18,4.78-3,7c-1.36,1.66-2.28,1.89-4,4
			c-1.75,2.15-1.89,3.45-3,5c-2.98,4.17-7.56,6.01-10,7c-2.33,0.94-6.11,2.47-11,2c-3.08-0.29-5.14-1.24-9-3
			c-1.08-0.49-5.1-2.38-10-6c-1.08-0.8-4.47-3.3-7-6c-3.58-3.81-5.4-7.95-9-21C244.98,227.01,243.24,220.27,241.5,212.5z"/>
		<path class="st8" d="M290.5,294.5c-3.49-1.66-6.15-3.52-8-5c-1.89-1.51-3.95-3.18-6-6c-1.74-2.38-2.49-4.26-4-8
			c-1.33-3.3-1.34-4.24-1-5c0.2-0.45,0.91-1.94,1-3c0.01-0.07,0-1,0-1c2.42,0.87,4.47,1.53,6,2c2.6,0.8,3.32,0.93,4,1
			c2.57,0.25,6-1,6-1c2.9-0.97,6.68-3,9-4c2.54-1.1,1.34-1.93,6-6c3.81-3.32,4.84-2.97,8-6c3.31-3.18,4.83-6.11,5-6
			c0.24,0.15-3.21,5.38-7,13c-2.37,4.77-3.56,7.16-4,9c-1.3,5.46-1.58,14.56-1,17c0.03,0.13,0.14,0.54,0,1c-0.33,1.14-1.77,1.44-3,2
			c-2.95,1.34-2.52,3.13-6,5c-0.79,0.42-1.76,0.84-3,1C291.67,294.6,290.97,294.56,290.5,294.5z"/>
		<path class="st9" d="M200,204l18-35l19-30l2-5l4,4l9,9l6,5c1.17,1.17,2.33,2.33,3.5,3.5c-2.29,1.55-4.62,3.21-7,5
			c-4.01,3.02-7.67,6.05-11,9c-1.5,2.83-3,5.67-4.5,8.5c-0.5,3.83-1,7.67-1.5,11.5c-0.33,1.33-0.67,2.67-1,4
			C224.33,197,212.17,200.5,200,204z"/>
		<path class="st9" d="M243,133h24.8l29.2,3l19.51,2.54c9,0.65,17.99,1.31,26.99,1.96c-3.84,1.7-7.84,3.38-12,5
			c-9.43,3.68-18.48,6.63-27,9c-3.33,0.33-6.67,0.67-10,1c-1.81-0.5-3.61-1-5.42-1.5L278,152c-5.17,1.17-10.33,2.33-15.5,3.5
			c-2.76-2.21-6.34-5.1-10.5-8.5c-10.38-8.49-13.73-11.47-13-13C239.38,133.21,240.71,132.88,243,133z"/>
		<path class="st10" d="M317,200"/>
		<path class="st9" d="M242,218c-1.39,0.17-3.49-3.71-4-6c-0.1-0.43-0.16-0.88-0.16-0.88c-0.11-0.96,0.04-1.87,0.16-4.12
			c0,0,0,0,0-11c0-2.33,0-4.67,0-7c0-4,0-4,0-4c0.06-7.26,5.43-14.26,6-15c2.22-2.86,4.48-4.58,9-8c1.65-1.25,5.6-4.24,9-6
			c8.37-4.33,20.61-4.96,31,0c7.93,3.79,13.32,10.15,16,15c1.34,2.43,1.37,3.34,6,13c0.7,1.46,1.4,2.89,2,5
			c0.11,0.39,2.67,9.43,0,11c-1.06,0.63-2.23-0.35-6.5-2.5c-0.59-0.3-6.94-3.48-12-5c-4.3-1.29-7.76-1.41-10.5-1.5
			c-2.26-0.08-4.56,0.31-17,2c-7.8,1.06-9.39,1.46-11,2c-3.98,1.33-10.41,3.47-14,9C241.83,210.43,243.88,217.77,242,218z"/>
		<path class="st11" d="M236.5,204.5L236.5,204.5c0-0.03-9.31,0.73-15,1c-9.66,0.46-21.6,1.02-22-1c-0.67-3.42,32.44-10.81,35-10
			c0.09,0.03,0.56,0.2,1,0c1.14-0.52,0.82-2.97,1.06-2.99c0.3-0.02,1.32,3.52,0.94,7.99C237.32,201.61,236.87,203.33,236.5,204.5z"
			/>
		<path class="st11" d="M315.5,182.5c3.28,0.51,5.71-7.72,13-19c8.95-13.84,17.42-20.2,16-22c-0.69-0.88-2.9,0.37-13,4
			c-14.03,5.05-11.55,3.29-18,6c-6.64,2.79-9.25,4.04-14,4c-2.9-0.03-5.83-0.6-6,0c-0.16,0.58,2.46,1.46,5,3
			c5.83,3.55,8.71,9.35,12,15C314.19,179.85,313.75,182.23,315.5,182.5z"/>
		<polygon class="st12" points="427.5,351.5 675.5,353.5 675.5,519.63 524.3,519.63 519.42,519.63 517.5,525.5 520.5,538.5 
			529.5,547.5 536.5,551.5 517.21,551.5 501.5,544.5 479.5,525.5 471.5,510.5 473.5,520.5 458.5,520.5 430.74,520.51 		"/>
		<polygon class="st12" points="534.5,70.48 534.5,179.99 543.5,187.5 574.4,185.26 611.5,179.5 618.5,180.5 613.42,169 
			627.17,190.38 641.5,195.5 656.43,198.7 660.86,198.7 650.5,188.5 648.45,182.52 648.77,177.62 649.33,169 653.5,178.5 
			660.86,176.45 687.5,174.5 735.8,169 745.55,165 749.98,161.88 753.5,157.5 753.5,149.4 753.5,87.32 753.5,80.23 746.5,74.5 
			740.23,70.48 555.5,54.5 547.8,54.5 541.5,58.5 536.5,62.5 		"/>
		<path class="st13" d="M228.5,293.5c-6.43,0.06-11,2-11,2c-7.01,2.97-12.49,9.21-14,8c-0.27-0.22-0.51-0.81-1-2s-0.52-1.68-1-2
			c-0.67-0.44-1.6-0.13-2,0c-1.71,0.57-2.58,2.19-3,3c-0.7,1.34-0.42,1.63-1,3c-0.48,1.15-1.1,1.99-3,4c-1.8,1.91-2.7,2.86-4,4
			c-5.8,5.07-14.48,30.79-26,50c-2.82,4.71-3.78,5.63-6,10c-1.36,2.68-5.27,10.74-8,24c-0.82,3.97-1.54,11.31-3,26
			c-1.66,16.79-1.17,16.01-2,19c-1.17,4.21-2.85,8.29-2,14c0.37,2.48,1.1,4.51,2,7c1.69,4.69,2.76,7.66,5,11c0.9,1.35,1.7,2.31,2,4
			c0.37,2.05-0.4,2.91,0,5c0.11,0.56,0.29,1.17,2,4c1.91,3.16,2.87,4.74,4,6c1.49,1.66,2.86,3.18,5,4c2.22,0.85,3.21,0.15,7,0
			c2.16-0.09,5.78,0.28,13,1c2.14,0.21,4.59,0.48,6-1c0.87-0.91,0.91-2.01,1-2c1.17,0.14-4,42-4,42c-2.94,23.79-4.82,36.37-5,56
			c0,0.43-1.55,4.92,0,6c0.58,0.41,1.25,0.1,4,0c0,0,0,0,3,0c6.67,0,13.33,0,20,0h142c0.34-0.86,0.79-2.25,1-4
			c0.14-1.19,0.03-1.42,0-5c0-0.12,0,0.04,0-5c0-2.98,0-2.96,0-3c0.07-3.55,1.36-6.23,2-8c1.29-3.58,0.01-3.82,0-17
			c0-3.54,0.09-4.58,0-8c-0.04-1.4-0.06-1.57,0-2c0.55-3.91,4.9-6.33,6-7c4.37-2.65,2.72-4.22,13-18c8.68-11.63,8.97-9.4,11-14
			c2.49-5.63,3.19-11.53,8-14c1-0.51,2.08-0.83,4-2c1.16-0.71,3.37-2.18,6-5c8.64-9.27,13.35-23.97,14-26c0.54-1.67,1.07-3.56,1-6
			c-0.09-3.1-1.07-4.03-2-8c-0.44-1.88-0.22-1.64-1-9c-0.69-6.5-0.83-6.3-1-9c-0.1-1.59-0.11-2.47,0-10c0.13-9.51,0.17-10.2,0-12
			c-0.16-1.71-0.43-3.57-2-10c-1.73-7.08-2.59-10.61-4-15c-3.96-12.34-9.5-23.04-11-30c-0.59-2.73-1-5-1-5c-0.67-3.7-0.58-4.07-1-6
			c-0.83-3.8-1.29-5.9-3-8c-0.26-0.32-1.84-1.55-5-4c-0.57-0.44-1.15-0.88-2-1c-1.07-0.15-1.62,0.34-2,0c-0.5-0.45,0.28-1.48,0-3
			c0,0-0.17-0.89-1-2c-11.09-14.69-24-16-24-16c-16.05-1.62-27.81,14.07-45,20c-1.18,0.41-3.77,1.24-7,3c-3.96,2.15-6.98,4.65-11,8
			c-3.58,2.99-3.71,3.38-6,5c-1.25,0.89-8.06,5.68-10,4c-0.33-0.29-0.24-0.53-1-3c0,0-0.04-0.12-1-3
			C273.33,341,295.13,292.86,228.5,293.5z"/>
		<path class="st10" d="M175.5,364.5c-4.2,9.87-5.55,18.25-6,24c-0.45,5.77-1.06,13.47,1,23c1.28,5.95,2.88,9.27,2,15
			c-0.54,3.54-1.75,6.14-4,11c-1.9,4.1-3.55,7.59-7,11c-1.16,1.15-2.1,1.87-2,2c0.22,0.3,5.85-2.37,10-7c1.2-1.33,3.25-3.93,6-12
			c3.97-11.64,4.79-21.2,5-24c0.58-7.85,0.87-11.77,0-16c-0.98-4.8-2.77-8.69-1-13c0.32-0.77,1.09-2.37,2-5c1.49-4.3,1.28-5.33,1-6
			c-0.93-2.22-3.68-2.92-4-3C177.21,364.19,176.11,364.36,175.5,364.5"/>
		<path class="st14" d="M166.5,385.5c-0.2-0.07-0.87,1.53-4.44,9.78c-1.31,3.02-1.35,3.11-1.74,4.03c0,0-1.86,4.36-3.4,8.22
			c-2.24,5.61-4.34,10.89-6.43,17.98c-0.8,2.73-1.95,6.67-3,12c-0.8,4.09-1.28,7.68-2,13c-0.86,6.42-1.06,6.8-1,8
			c0.31,6.43,3.65,12.28,5,12c0.9-0.19,1.13-3.16,1-5c-0.15-2.16-0.88-3.72-1-4c-2.11-4.76,1.6-17.15,4-28
			c3.07-13.87,1.94-15.92,5-23c0.53-1.22,2.17-4.88,4-10c0.17-0.47,1.6-4.5,3-10C166.07,388.27,166.75,385.58,166.5,385.5z"/>
		<path class="st15" d="M156.5,454.5c0,0-2.39,2.68-4,6c-1.87,3.86-5.57,15.67,0,23c1.45,1.9,4.42,4.7,6,4c0.34-0.15,0.76-0.53,1-1
			c0.53-1.03-0.09-1.88,0-3c0.11-1.34,1.14-1.94,2-3c1.85-2.27,0.98-4.23,2-9c0.29-1.36,0.56-2.13,2-6c3.32-8.94,4.5-11.92,6-16
			c2.99-8.13,4.13-12.13,5-16c0.86-3.85,1.09-5.98,1-6c-0.16-0.03-0.52,5.92-4,12c-2.06,3.6-4.08,7.12-8,9c-1.66,0.79-4.2,1.55-7,4
			C157.55,453.33,156.84,454.11,156.5,454.5z"/>
		<path class="st3" d="M159.5,488.5c0.19,0.1,0.8,0.07,2,0c3.81-0.22,5.74-0.34,7-1c0.55-0.29,1.51-0.89,3-3c2.95-4.17,3.87-8.4,4-9
			c0.96-4.42,7.05-31.99,7-32c-0.02,0,0.22,6.84-4,13c-2.32,3.39-5.25,5.48-6,6c-2.76,1.91-4.27,2.06-6,3
			C158.12,470.05,156.18,486.71,159.5,488.5z"/>
		<path class="st3" d="M183.5,440.5c0.06,2.88-0.98,9.88-6,16c-2.19,2.67-4.27,4.11-7,6c-1.58,1.1-3.54,2.44-4,2
			c-0.51-0.49,1.24-2.76,3-6c1.39-2.57,2.26-5.04,4-10c2.15-6.14,3.22-10.64,4-14c0.62-2.64,0.89-4.16,1-6c0.18-2.86-0.19-3.71,0-6
			c0.26-3.04,1.11-3.86,2-7c1.23-4.35-0.01-4.19,1-11c0.73-4.9,1.6-6.52,1-10c-0.2-1.2-0.55-2.4-1-4c-1.49-5.27-2.22-5.35-2-7
			c0.33-2.46,2.04-3.06,2-6c-0.02-1.04-0.25-1.91,0-2c0.35-0.13,1.38,1.44,2,3c1.05,2.63,0.23,3.46,1,6c0.18,0.59,1.4,4.62,4,5
			c1.46,0.21,2.76-0.81,3-1c1.58-1.24,1.79-3.05,2-3c0.32,0.08-0.83,3.92-1,9c-0.01,0.38,0,0.24,0,6c0,2.5,0,3.75,0,4
			c-0.04,7.04-4.24,13.1-6,23c-0.43,2.43-0.38,3.19-1,5c-0.79,2.29-1.88,4.03-2.51-10.13C182.98,422.09,183.3,431.63,183.5,440.5z"
			/>
		<path class="st3" d="M179.5,463.5"/>
		<path class="st16" d="M205.5,402.5c-1.16,8.45-2.2,15.6-3,21c-7.39,49.92-8.29,43.41-8,49c0,0,0.86,7.58-1.57,15.14
			c-0.33,1.02-0.99,2.87-2.43,4.86c-0.86,1.19-2.83,4.08-6,5c-2.88,0.84-3.85-0.6-9-1c-5.61-0.44-6.62,1.1-11,0
			c-3.42-0.86-6.13-2.63-6-3c0.08-0.24,1.27,0.28,3,0c1.55-0.25,2.47-0.98,4-2c3.47-2.32,3.72-1.94,5-3c1.95-1.61,2.99-5.1,5-12
			c1.11-3.81,1.05-4.17,2-7c0.89-2.64,1.42-3.76,2-6c0.73-2.81,0.9-4.97,1-6c0.48-4.97,1.65-9.98,4-20c1.49-6.35,2.33-9.94,4-15
			c2.7-8.16,6.25-16.22,5-20c-0.17-0.5-0.93-2.49,0-4c0.24-0.39,0.32-0.3,1-1c1.06-1.09,1.29-1.75,3-4c0.66-0.87,0.79-0.99,1-1
			c0.96-0.04,0.95,2.36,3,4c1.23,0.98,2.05,0.77,3,2c0.78,1,0.92,2.02,1,2c0.14-0.04-0.95-2.74-1-6c-0.02-1.48,0.19-2.14,0-4
			c-0.05-0.47-0.11-0.96,0-1c0.29-0.09,0.69,3.03,3,5c1.35,1.15,2.09,0.84,3,2c0.99,1.27,0.58,2.26,1,4c0.94,3.88,4.09,3.39,6,8
			c0.6,1.45,0.76,2.63,2,4c0.99,1.09,2.13,1.72,2,2c-0.2,0.42-2.81-1.05-4,0c-0.66,0.58-1.01,2.02-1,2c-0.77,2.2-0.46,3.35,0,4
			c0.64,0.9,1.46,0.67,3,2c1.18,1.02,1.02,1.43,2,2c0.71,0.41,1.47,0.52,3,0.73c0,0,0.52,0.07,3,0.27c-3.34,0.19-4.54,1.14-5,2
			c-0.41,0.76-0.23,1.41-1,3c-0.56,1.16-0.88,1.26-1,2c-0.17,1.03,0.21,2.23,1,3c0.84,0.81,1.89,0.9,3,1c2.29,0.2,3.06-0.62,4,0
			c1.18,0.77,1.26,2.89,1,3c-0.19,0.08-0.45-0.93-1-1c-1.16-0.14-2.45,3.99-4,8c-1.91,4.94-3.05,6.71-4,9c-8.15,19.66-10,64-10,64
			c-0.81,19.49-0.73,33-1,33c-0.53,0-0.86-51.99-2-52c-0.76-0.01-1.42,23.01-2,23c-0.88-0.02,0.75-53.82-2-54
			c-1.58-0.11-4.86,17.37-6,33c-0.18,2.5-0.97,14-1,14s1.67-12.11-1-13c-0.68-0.23-1.27,1.42-4,3c-1.28,0.74-2.43,1.41-3,1
			c-0.91-0.65,0.63-3.32,1-8c0.14-1.71,0.07-3.11,0-4"/>
		<path class="st17" d="M271,350c-16.64,66.4-19.69,135.49-31,203c-4.51,26.91-6.08,40.1-7,40c-1.86-0.19,3.27-54.56,10-126
			c0,0,3.81-40.38,18-104c0.1-0.45-0.01,0.09,2-7c1.35-4.74,1.97-7,4-9c1.04-1.02,3.05-2.58,4-2
			C272.15,345.69,271.21,349.15,271,350z"/>
		<path class="st15" d="M342,396c-0.92-0.09-0.51-12.46,0.4-19.4c0.55-4.2,1.49-8.3,1.49-8.3s0.5-2.19,1.1-4.3
			c5.49-19.37,17-31,17-31c4.56-4.61,13.66-12.21,17-10c1.34,0.89,1.71,3.33,1,5c-1.32,3.12-6.34,3.39-9,4
			c-11.66,2.66-17.84,20.79-22,33C342.95,382.74,342.95,396.09,342,396z"/>
		<path class="st15" d="M380,334c-2.21,0.24,0.26,12.27-4,27c-4.66,16.11-12.59,18.87-19,37c-1.34,3.8-3.54,10.88-4,20
			c-0.16,3.09-0.23,4.63,0,6c2.43,14.22,26.27,22.22,27,21c0.32-0.53-3.98-2.41-9-9c-1.76-2.31-4.51-5.98-6-11
			c-1.61-5.41-1.18-10.42,0-16c2.08-9.86,5.13-15.12,10-26c10.72-23.96,10.8-31.69,10-37C384.1,339.99,381.6,333.83,380,334z"/>
		<path class="st15" d="M341,402L341,402c-0.22,0.12-0.56,0.29-0.96,0.49c-0.63,0.32-8.33,4.16-17.04,6.51
			c-9.69,2.61-18.53,2.81-27,3c-10.93,0.24-25.87,0.46-31-5c-0.5-0.54-2.1-2.4-3-2c-0.92,0.4-0.98,3.1,0,5c1.41,2.72,4.83,3.54,7,4
			c9.1,1.93,17.8,2.1,27,3c2.11,0.21,6,0.63,10,3c1.07,0.63,2.48,1.47,4,3c3.42,3.45,4,7.01,6,7c0.76,0,1.39-0.51,2-1
			c1.34-1.07,1.8-2.49,2-3c0.86-2.15,3.19-3.23,7-5c3.75-1.74,7.99-3.71,13-3c6.29,0.89,9.17,5.36,11,4c1.13-0.84,0.04-2.56,1-9
			c0.13-0.86,0.23-1.36,0-2c-0.7-2-3.22-1.67-6-4c-0.31-0.26-1.96-1.67-3-4c-0.96-2.15-0.67-3.42-1-4c-1.1-1.9-10.88,0.68-40,14"/>
		<path class="st16" d="M317,431c1.49,5.3,3.46,9.3,5,12c2.78,4.86,3.14,3.63,9,12c3.3,4.71,4.57,7.08,8,9c2.79,1.56,5.91,2.21,6,2
			c0.06-0.15-1.5-0.65-3-2c-1.98-1.78-2.63-3.95-3-5c-1.25-3.53-2.38-2.95-7-10c-4.46-6.82-6.69-10.22-7-13
			c-0.14-1.26-0.25-3.82-2-5c-1.34-0.9-2.86-0.47-3-1c-0.18-0.71,2.35-2.3,5-3c4.69-1.24,8.94,0.55,10,1
			c7.89,3.32,14.12,14.41,20,24c0,0,16.57,27.03,31,32c0.35,0.12,1.46,0.5,2,0c0.91-0.84-0.75-3.25-1-6c-0.33-3.65,1.96-6.63,3-8
			c4.09-5.35,8.73-3.42,14-9c2.87-3.05,4.39-6.7,4-7c-0.3-0.23-1.43,1.76-4,3c-3.27,1.58-5.31,0.21-10,1c-3.25,0.55-3.76,1.47-6,2
			c-4.28,1.02-8.11-0.96-19-8c-9.31-6.01-13.96-9.02-16-11c-6.88-6.67-12.41-15.59-11-17c0.54-0.54,2.02,0.12,4,1
			c3.47,1.55,5.8,3.69,8,6c4.38,4.6,4.59,8.68,8,10c0.28,0.11,1.46,0.54,3,1c2.62,0.78,3.51,0.94,4,1c1.24,0.14,2.28,0.08,3,0"/>
		<path class="st13" d="M267,417c-2.04,16.59-2.76,30.6-3,41c-0.76,33.12-1.21,53.2,5,69c1.13,2.88,3.77,8.87,4,17
			c0.2,6.95,0.35,12.26-2,18c-0.45,1.1-1.57,3.62-1,4s2.31-1.7,4-3c1.22-0.93,4.78-3.29,17-2c12.04,1.27,11.24,3.84,17,3
			c6.42-0.94,8.08-4.23,15-4c3.96,0.13,4.6,1.26,8,1c3.09-0.23,6.54-1.45,12-6c9.14-7.61,15.91-13.25,15-21
			c-0.7-5.95-5.71-11.3-11-13c-5.3-1.7-9.69,0.66-10,0c-1.37-2.9,47.36-26.84,55-31c0.65-0.36,2.3-0.32,2-1c-0.03-0.06-2.56,0.5-3,2
			c-0.22,0.74,0,2,0,2l0,0"/>
		<path class="st15" d="M288.5,569.5c-3.69,2.93,0.08,8-3,18c-1.43,4.65-3.34,7.08-2,9c1.2,1.73,4.46,2.24,6,1
			c1.3-1.05,0.74-2.83,1-6c0.26-3.25,1.01-3.33,4-12c2.82-8.18,2.56-9.3,2-10C295.08,567.74,290.92,567.58,288.5,569.5z"/>
		<path class="st18" d="M274,309c4.1-4.02,7.56-7,10-9c2.33-1.91,4.22-3.33,4-5c-0.21-1.56-2.08-1.84-5-4c-3.33-2.45-5.15-5.21-7-8
			c-1.87-2.82-3.22-4.86-4-8c-0.59-2.36-0.5-3.93-1-4c-0.88-0.12-2.3,4.71-3,8c-0.72,3.38-1.34,6.27-1,10c0.26,2.81,0.84,3.7,4,13
			c0.87,2.56,1.56,4.65,2,6"/>
		<path class="st19" d="M272,280"/>
		<path class="st20" d="M292,296c-0.76,2.12,1.83,4.05,5.41,10.03c1.67,2.78,2.83,5.23,3.59,6.97c0,0,0.1,0.2,4,8
			c0.51,1.02,0.84,1.01,1,1c1.03-0.05,1.13-3.74,3-9c1.3-3.64,1.75-3.26,2-5c0.51-3.49-1.3-5.07-3-10c-2.31-6.71-1.31-10.59-3-11
			c-1.38-0.33-2.03,2.26-6,5C294.94,294.81,292.67,294.14,292,296z"/>
		<path class="st21" d="M282,301"/>
		<g>
			<g>
				<path d="M237.54,502.17c1.93,0,1.93-3,0-3S235.6,502.17,237.54,502.17L237.54,502.17z"/>
			</g>
		</g>
		<g>
			<g>
				<path class="st15" d="M201.46,472.88c-5.24,19.67-5.15,40.22-5.22,60.43c-0.02,5.33,0.21,10.68,2.44,15.61
					c0.8,1.76,3.38,0.23,2.59-1.51c-1.93-4.26-2.04-9.05-2.03-13.65c0.01-4.82,0.04-9.64,0.11-14.47c0.14-9.77,0.5-19.55,1.79-29.24
					c0.73-5.52,1.79-10.99,3.22-16.37C204.85,471.81,201.96,471.02,201.46,472.88L201.46,472.88z"/>
			</g>
		</g>
		<g>
			<g>
				<path class="st15" d="M195.86,545.24c-1.72,17.3,3.39,34.29,3.54,51.54c0.02,1.93,3.02,1.93,3,0
					c-0.15-17.25-5.26-34.24-3.54-51.54C199.05,543.32,196.05,543.33,195.86,545.24L195.86,545.24z"/>
			</g>
		</g>
		<g>
			<g>
				<path class="st15" d="M211.99,592.01c0.46-5.56-0.39-11.18-0.47-16.75c-0.07-5.66,0.15-11.31,0.39-16.96
					c0.23-5.57,0.47-11.15,0.43-16.72c-0.04-5.57-0.37-11.13-0.58-16.7c-0.23-6.37-0.28-12.75,0.44-19.1c0.22-1.92-2.78-1.9-3,0
					c-1.28,11.26-0.09,22.55,0.12,33.83c0.2,11.16-0.81,22.29-0.81,33.44c0,3.11,0.09,6.21,0.29,9.32c0.21,3.22,0.46,6.43,0.19,9.65
					C208.83,593.93,211.83,593.92,211.99,592.01L211.99,592.01z"/>
			</g>
		</g>
		<g>
			<g>
				<path class="st15" d="M253.3,600.18c1.64-4.08,2.12-8.48,2.44-12.83c0.34-4.7,0.67-9.4,1.19-14.09
					c1.04-9.4,2.6-18.76,4.75-27.97c1.16-4.97,2.58-9.91,4.73-14.56c0.81-1.74-1.78-3.27-2.59-1.51
					c-3.88,8.36-5.71,17.53-7.34,26.55c-1.71,9.46-2.89,19.02-3.54,28.62c-0.34,5.09-0.61,10.21-2.53,14.99
					C249.69,601.17,252.59,601.95,253.3,600.18L253.3,600.18z"/>
			</g>
		</g>
		<g>
			<g>
				<path class="st15" d="M152.09,473.67c2.59-9.92,7-19.25,13.01-27.56c1.13-1.57-1.47-3.07-2.59-1.51
					c-6.15,8.5-10.67,18.12-13.32,28.28C148.71,474.74,151.6,475.54,152.09,473.67L152.09,473.67z"/>
			</g>
		</g>
		<g>
			<g>
				<path class="st15" d="M151.58,459.53c0.6-5.05,1.2-10.1,1.59-15.16c0.39-5.14,0.36-10.3,0.82-15.44
					c0.83-9.28,3.87-18.3,8.68-26.27c1-1.66-1.59-3.17-2.59-1.51c-3.81,6.31-6.57,13.28-8.04,20.51c-1.6,7.89-1.3,15.95-1.97,23.93
					c-0.39,4.66-0.94,9.3-1.49,13.94C148.36,461.44,151.36,461.42,151.58,459.53L151.58,459.53z"/>
			</g>
		</g>
		<g>
			<g>
				<path class="st15" d="M164.54,381.29c0.09,2.87-1.4,5.47-2.61,7.99c-1.3,2.69-2.64,5.36-4.02,8.02
					c-2.75,5.31-5.61,10.57-8.48,15.82c-0.93,1.7,1.66,3.21,2.59,1.51c3.02-5.53,6.04-11.07,8.92-16.68c1.4-2.73,2.78-5.48,4.1-8.25
					c1.27-2.67,2.59-5.38,2.49-8.41C167.48,379.37,164.48,379.36,164.54,381.29L164.54,381.29z"/>
			</g>
		</g>
		<g>
			<g>
				<path class="st15" d="M171.47,376.15c-3.49,7.55-4.31,15.84-4.44,24.07c-0.06,4.11-0.39,8.51,0.48,12.55
					c0.45,2.1,1.63,3.95,2.04,6.05c0.4,2.09,0.05,4.28-0.42,6.32c-1.13,4.95-2.79,9.83-4.78,14.5c-0.32,0.75-0.22,1.6,0.54,2.05
					c0.63,0.38,1.74,0.21,2.05-0.54c1.73-4.08,3.22-8.24,4.39-12.52c1.1-4.01,2.09-8.31,0.61-12.36c-0.76-2.07-1.61-3.93-1.8-6.17
					c-0.18-2.1-0.12-4.22-0.13-6.33c0-4.16,0.07-8.33,0.51-12.47c0.5-4.69,1.55-9.37,3.54-13.66
					C174.86,375.92,172.28,374.4,171.47,376.15L171.47,376.15z"/>
			</g>
		</g>
		<g>
			<g>
				<path class="st15" d="M386.99,446.51c6.2-8.99,10.39-19.29,12.22-30.06c0.32-1.89-2.57-2.7-2.89-0.8
					c-1.79,10.54-5.85,20.54-11.92,29.34C383.3,446.59,385.9,448.1,386.99,446.51L386.99,446.51z"/>
			</g>
		</g>
		<g>
			<g>
				<path class="st15" d="M398.24,387.29c-1.75-3.41-3.51-6.85-4.48-10.57c-1.01-3.89-0.85-7.91-0.5-11.88s0.89-7.96,0.65-11.96
					c-0.21-3.53-0.96-7.04-2.26-10.34c-1.47-3.76-3.55-7.19-6.19-10.25c-1.26-1.46-3.38,0.67-2.12,2.12
					c4.57,5.29,7.32,12.11,7.6,19.09c0.32,7.89-2.09,15.75-0.19,23.58c1,4.13,2.97,7.96,4.89,11.72
					C396.53,390.52,399.12,389.01,398.24,387.29L398.24,387.29z"/>
			</g>
		</g>
		<g>
			<g>
				<path class="st15" d="M213.88,306.08c-1,5.81-2.7,11.5-5.17,16.86c-2.28,4.92-5.68,10.2-2.94,15.67
					c0.87,1.73,3.45,0.21,2.59-1.51c-1.17-2.33-0.57-5.02,0.38-7.32c1.04-2.52,2.41-4.9,3.48-7.41c2.11-4.97,3.64-10.16,4.55-15.48
					C217.1,304.98,214.21,304.17,213.88,306.08L213.88,306.08z"/>
			</g>
		</g>
		<g>
			<g>
				<path class="st15" d="M201.31,303.81c-0.06,3.12,0.05,6.2,1.48,9.04c1.23,2.46,3.15,4.48,4.53,6.84
					c0.97,1.67,3.57,0.16,2.59-1.51c-1.3-2.23-3.07-4.15-4.3-6.41c-1.35-2.48-1.34-5.21-1.29-7.96
					C204.34,301.88,201.34,301.88,201.31,303.81L201.31,303.81z"/>
			</g>
		</g>
		<g>
			<g>
				<path class="st15" d="M198.76,299.92c-2.39,2.6-4.47,5.36-4.76,8.99c-0.31,3.92-0.19,7.91-0.28,11.85c-0.04,1.93,2.96,1.93,3,0
					c0.08-3.6,0.13-7.19,0.23-10.79c0.05-1.58,0.33-2.97,1.13-4.35c0.77-1.32,1.77-2.46,2.8-3.58
					C202.18,300.62,200.07,298.5,198.76,299.92L198.76,299.92z"/>
			</g>
		</g>
		<g>
			<g>
				<path class="st15" d="M172.13,365.79c-1.92,3.31-3.94,6.58-5.73,9.95c-1.77,3.33-2.96,6.95-2.19,10.75
					c0.38,1.89,3.27,1.09,2.89-0.8c-0.67-3.32,0.82-6.55,2.41-9.38c1.69-3.03,3.47-6.01,5.21-9.01
					C175.69,365.63,173.09,364.12,172.13,365.79L172.13,365.79z"/>
			</g>
		</g>
		<g>
			<g>
				<path class="st15" d="M171.03,376.97c1.93,0,1.93-3,0-3S169.1,376.97,171.03,376.97L171.03,376.97z"/>
			</g>
		</g>
		<g>
			<g>
				<path class="st15" d="M171.2,376.06c2.1-1.39,2.82-3.75,3.27-6.1c0.15-0.79-0.22-1.62-1.05-1.85c-0.79-0.22-1.63,0.26-1.85,1.05
					c-0.76,2.72-1.43,5.46-1.99,8.22c-0.21,1,0.43,1.82,1.45,1.9c3.06,0.23,3.1-3.93,3.42-5.98c0.41-2.61,1.03-5.31,0.7-7.97
					c-0.1-0.8-0.62-1.5-1.5-1.5c-0.73,0-1.6,0.69-1.5,1.5c0.26,2.09-0.12,4.15-0.44,6.21c-0.16,1.04-0.33,2.07-0.49,3.11
					c-0.07,0.47-0.12,0.95-0.24,1.41c0.01-0.03-0.09,0.39-0.13,0.36c-0.08-0.07,0.68-0.1,0.17-0.14c0.48,0.63,0.96,1.27,1.45,1.9
					c0.57-2.76,1.23-5.51,1.99-8.22c-0.96-0.27-1.93-0.53-2.89-0.8c-0.18,0.91-0.36,1.83-0.7,2.69c-0.24,0.6-0.69,1.28-1.19,1.62
					c-0.67,0.45-0.96,1.33-0.54,2.05C169.54,376.19,170.52,376.51,171.2,376.06L171.2,376.06z"/>
			</g>
		</g>
		<g>
			<g>
				<path class="st15" d="M300.62,562.26c2.25-23.79,2.83-47.73,1.71-71.61c-0.32-6.75-0.78-13.49-1.36-20.22
					c-0.17-1.91-3.17-1.93-3,0c2.07,23.81,2.48,47.75,1.17,71.62c-0.37,6.75-0.88,13.49-1.51,20.21
					C297.44,564.18,300.44,564.17,300.62,562.26L300.62,562.26z"/>
			</g>
		</g>
		<g>
			<g>
				<path class="st15" d="M318.78,567.31c3.77-19.83,3.33-40.32-1.33-59.97c-0.45-1.88-3.34-1.08-2.89,0.8
					c4.53,19.1,5,39.09,1.33,58.37C315.53,568.4,318.42,569.21,318.78,567.31L318.78,567.31z"/>
			</g>
		</g>
		<g>
			<g>
				<path class="st15" d="M256.52,392.13c18.35,0.66,36.75-0.2,54.96-2.61c5.13-0.68,10.24-1.47,15.33-2.38
					c1.9-0.34,1.09-3.23-0.8-2.89c-17.87,3.19-35.99,4.9-54.13,5.08c-5.12,0.05-10.24-0.02-15.35-0.2
					C254.59,389.06,254.59,392.07,256.52,392.13L256.52,392.13z"/>
			</g>
		</g>
		<path class="st3" d="M274.87,309.44c1.41-1.17,1.99-3.04,3.08-4.52c0.49-0.66,1.09-1.24,1.68-1.82c2.73-2.65,5.46-5.31,8.19-7.96
			c1.36,0,3.77,3.47,4.61,4.54s1.12,2.57,0.65,3.85c-0.79,2.15-3.42,3.4-3.69,5.68c-0.1,0.87,0.17,1.74,0.33,2.6
			c0.39,2.18,0,4.42-0.39,6.6c-0.52,2.92-1.05,5.84-1.57,8.76"/>
		<path class="st3" d="M302.82,319.19c-4.49,4.02-10.78,5.21-16.15,7.96c-1.22,0.62-2.41,1.34-3.37,2.31
			c-1.01,1.02-1.74,2.29-2.46,3.54c-2.09,3.65-4.21,7.37-5.08,11.49"/>
		<path class="st3" d="M276,347.15c0.07,0,0.15,0,0.22,0c3.27,0,7.11-2.7,9.35-5.08c0.75-0.79,1.36-1.7,2.1-2.5
			c1.26-1.37,2.84-2.41,4.4-3.42c2.57-1.68,5.16-3.36,7.98-4.55c2.66-1.11,5.68-1.9,7.44-4.18"/>
		<path class="st3" d="M291.7,297.04c0.4,3.51,3.45,6,5.53,8.85c3.66,4.99,4.59,11.66,8.56,16.4c1.12-4.5,3.44-9.32,5.4-13.52"/>
		<path class="st3" d="M274.4,309.33c-0.74-0.41-1.22-1.24-1.22-2.08"/>
		<path class="st3" d="M302.64,319.03c0.18-0.17,0.36-0.34,0.54-0.5c-0.27,0.22-0.55,0.44-0.82,0.66"/>
		<path class="st3" d="M311.29,308.15c0.17-0.39,0.35-0.77,0.52-1.16c-0.2,0.38-0.4,0.75-0.6,1.13"/>
		<path class="st12" d="M108.5,185.5c-0.32-1.31,7.12-2.17,11-9c1.82-3.21,3.2-8.35,1-11c-2.7-3.26-9.73-1.48-12-1
			c-18.93,4.03-54.69-7.92-72-30c-3.4-4.33-15.22-19.41-13-37c4.57-36.17,65.34-57.85,110-58c33.92-0.11,66.68,12.17,84,32
			c4.96,5.68,15.6,17.86,15,34c-0.28,7.53-2.92,13.57-4,16c-4.78,10.7-12.22,16.68-19,22c-21.67,17.01-49.49,23.77-58,21
			c-0.68-0.22-3.71-1.31-5,0c-1.35,1.37,0.51,4.05,0,7c-0.58,3.34-3.99,5.68-9,8C124.28,185.61,108.96,187.38,108.5,185.5z"/>
		<path class="st9" d="M235.5,197.5"/>
	</g>
	<g id="paper">
		<path class="st22" d="M146,310l9-11c5.97-2.84,11.22-5.16,13-5h4.47c33.16,46.53,64.48,92.22,91.53,136l-11,14l-10,6L146,310z"/>
	</g>
	<g id="hands">
		<path class="st8" d="M155.5,331.5c-2.32-1.75-3.97-2.51-6-4c-1.65-1.21-1.88-1.67-2-2c-0.66-1.84,0.85-3.81,1-4
			c0.44-0.55,1-1.04,3-2c2.56-1.23,2.85-0.93,5-2c2.1-1.05,2.35-1.64,4-2c0.11-0.03,1.4-0.3,3,0c0.75,0.14,1.72,0.33,2,1
			c0.09,0.22,0.04,0.32,0,1c-0.07,1.29,0.1,1.38,0,2c-0.04,0.24-0.2,1.31-1,2c-0.64,0.56-1.11,0.36-2,1c-0.2,0.14-0.46,0.52-1,1
			c0,0-0.19,0.17-0.35,0.3c-1.12,0.92-4.01,0.52-4.65,1.7c-0.22,0.4-0.16,0.93,0,1c0.22,0.1,0.7-0.64,1-1c1.21-1.46,2.9-1.1,6-2
			c2.31-0.67,1.99-1.04,5-2c1.81-0.57,3.26-0.87,4-1c0,0,3.79-0.69,8,0c0.68,0.11,1.6,0.3,2,1c0.14,0.25,0.28,0.66,0,2
			c-0.31,1.52-0.47,2.28-1,3c-1.15,1.55-3.2,1.79-5,2c-1.77,0.21-1.67-0.15-4,0c-2.58,0.17-3.87,0.26-5,1
			c-0.77,0.5-1.49,1.26-2.97,1.74c-0.51,0.16-0.93,0.24-1.03,0.26c-1,0.17-1.58,0.06-3,0c-1.45-0.06-2,0-2,0c0-0.01,5.54-0.46,6,1
			c0.13,0.41-0.15,0.93,0,1c0.18,0.09,0.61-0.6,1-1c0.78-0.8,1.86-0.94,4-1c3.55-0.1,4.18,0.19,6,0c1.63-0.17,1.48-0.43,4-1
			c3.43-0.77,6.44-1.41,9,0c1.44,0.79,1.9,1.78,2,2c0.12,0.28,0.67,1.61,0,3c-0.5,1.05-1.5,1.43-3,2c-2.28,0.86-4.35,0.95-6,1
			c-1.17,0.04-2.71,0.01-3,0c-1.96-0.04-2.21-0.12-3,0c-0.94,0.15-1,0.33-3,1c-1.36,0.46-3.02,0.94-3,1s1.6-0.54,2,0
			c0.17,0.23-0.02,0.46,0,1c0.03,0.73,0.43,1,1,2c0.77,1.34,0.56,1.74,1,2c0.61,0.36,1.31-0.27,3-1c1.1-0.47,0.98-0.3,3-1
			c3.05-1.07,2.82-1.3,5-2c2.52-0.81,1.71-0.14,5-1c0.63-0.16,1.36-0.37,2,0c0.86,0.5,0.98,1.73,1,2c0.12,1.31-0.54,2.31-1,3
			c-0.34,0.52-1.7,2.56-4,3c-1.25,0.24-1.37-0.27-3,0c-0.92,0.15-1.3,0.38-3,1c-1.89,0.69-2.93,0.56-3,1c-0.04,0.27,0.43,0.36,1,1
			c0.65,0.74,0.47,1.13,1,2c0.64,1.05,1.16,0.91,2,2c0.57,0.74,0.59,1.15,1,2c1.3,2.71,3.2,3.02,3,4c-0.1,0.52-0.69,0.74-5,3
			c-0.3,0.16-1.03,0.55-1,1c0.03,0.52,1.06,0.82,1,1c-0.03,0.1-0.36,0.03-1,0c-0.54-0.02-0.88,0-1,0c-1.12-0.01-3.32-2.34-4-3
			c-0.4-0.39-0.33-0.25-6-3c-2.82-1.37-3.83-1.88-5-3c-0.83-0.79-1.71-1.65-2-3c-0.32-1.48,0.44-1.91,0-3c-0.65-1.62-2.62-1.44-3-3
			c-0.18-0.73,0.2-0.98,0-2s-0.76-1.68-1-2c-1.39-1.82-2.3-5.26-2-8c0.17-1.6,0.74-2.78,0-4
			C156.24,332.08,155.94,331.83,155.5,331.5z"/>
		<path class="st21" d="M160.94,342.23c0.87-2.45,1.74-4.9,2.61-7.35c-0.1-0.28-0.19-0.54,0.06-0.7c0.35-0.23,0.45-0.54,0.56-0.94"
			/>
		<path class="st21" d="M168.42,344.98c0.9-0.68,1.77-1.4,2.61-2.16"/>
		<path class="st21" d="M160.97,342.05c-0.04,0.86-0.15,1.72-0.34,2.56"/>
		<path class="st21" d="M174.43,359.87c0.33-1.02,1.05-1.86,1.57-2.79c0.84-1.52,1.13-3.27,1.4-4.98"/>
		<path class="st21" d="M171.01,356.99c3.14-1.78,5.05-5.29,8.26-6.93"/>
		<path class="st21" d="M167.68,350.09c2.13-0.84,4.03-2.26,5.42-4.08c0.37-0.09,0.7-0.43,1.02-0.64"/>
		<path class="st21" d="M171.7,342c-0.19,0.24-0.47,0.41-0.78,0.44C171.17,342.2,171.45,342.24,171.7,342z"/>
		<path class="st21" d="M156.12,331.14c0.56-1.63,0.09-3.41,0.19-5.12"/>
		<path class="st21" d="M184.5,378.5c-0.8,2.53,1.65,3.21,2,8c0.07,0.93,0.1,2.6,1,3c0.11,0.05,0.3,0.11,1,0c0.98-0.15,1.99-0.3,3-1
			c0.66-0.46,0.43-0.53,2-2c0.77-0.73,0.85-0.73,1-1c0.51-0.94-0.1-1.58,0-3c0.09-1.32,0.65-1.19,1-3c0.15-0.79,0.36-1.83,0-3
			c-0.26-0.87-0.5-0.71-1-2c-0.43-1.1-0.46-1.74-1-2c-0.37-0.18-0.76-0.07-1,0c-2.48,0.74-4,2-4,2
			C186.02,376.56,184.79,377.6,184.5,378.5z"/>
		<path class="st22" d="M182.5,375.5c-0.21-0.1-0.76,0.64-1,1c-2.34,3.54-2,9-2,9c0.41,6.66,0.86,13.48,1,17c0,0,0.13,3.4,0,8
			c-0.38,13.22-4.14,24.52-6,30c-2.37,6.99-3.69,14.41-7,21c-0.35,0.69-1.72,3.37-1,4c0.32,0.28,1,0.11,3-1c3.64-2.02,5.46-3.03,7-5
			c1.37-1.75,2.03-3.48,3-6c0.55-1.43,0.87-2.55,1-3c1.94-6.79,5.93-22.77,7-27c2.55-10.07,3.31-11.69,4-17c0.5-3.85,0.3-4.54,1-9
			c0.88-5.65,1.99-9.54,1-10c-1.03-0.48-2.92,3.46-5,3c-1.3-0.29-1.97-2.14-3-5c-1.16-3.21-0.76-4.37-2-6c-0.3-0.39-0.85-1.02-1-2
			C182.33,376.45,182.72,375.6,182.5,375.5z"/>
		<path class="st21" d="M159.5,486.5c0.83-3.88,2.21-9.98,4-16c0.37-1.23,0.8-2.64,2-4c2.32-2.63,4.79-2.03,8-4
			c4.42-2.7,5.34-7.27,6-7c0.69,0.29-1.17,4.99-3,13c-1.65,7.21-1.6,9.76-4,14c-2.03,3.58-4,5.18-6,6c-0.68,0.28-4.16,1.7-6,0
			C159.86,487.91,159.6,487.11,159.5,486.5"/>
		<path class="st8" d="M268.5,414.5L268.5,414.5L268.5,414.5L268.5,414.5L268.5,414.5c-14.5-8.49-14.51-8.41-15-9c0,0-2.53-3.02-6-4
			c-0.15-0.04-0.55-0.16-1,0c-0.6,0.21-0.89,0.79-1,1c-0.55,1.09-0.21,2.37,0,3c0.87,2.58,2.51,2.72,5,6c1.58,2.08,1.49,2.78,3,4
			c1.6,1.29,3.09,1.64,3,2c-0.1,0.41-2.13,0.39-4,0c-2.53-0.52-3.46-1.43-5-2c-2.15-0.8-3.2-0.08-9,1c-6.12,1.13-9.17,1.7-11,1
			c-1.8-0.69-3.39-1.98-7-3c-0.86-0.24-1.95-0.5-3,0c-1.64,0.79-1.98,2.85-2,3c-0.47,3.11,3.55,5.71,4,6c3.41,2.19,4.48,0.15,11,2
			c3.08,0.87,5.36,2.05,8,1c1.06-0.42,1.93-1.1,2-1c0.11,0.15-1.54,1.99-4,3c-2.26,0.93-4.17,0.74-5.95,0.57
			c-0.35-0.03-2.03-0.21-2.05-0.57c-0.02-0.39,1.99-0.54,2-1c0.01-0.52-2.51-1.22-5-1c-1.22,0.11-2.24,0.21-3,1
			c-0.63,0.66-0.76,1.44-1,3c-0.16,0.99-0.29,1.89,0,3c0.15,0.57,0.35,1.36,1,2c0.72,0.71,1.63,0.86,3,1
			c2.29,0.23,3.43,0.35,4.61,0.25c5.4-0.47,10.38,0.77,10.39,0.75c0-0.02-10.35-1.17-11,1c-0.07,0.24,0.03,0.35,0,2
			c-0.02,1.46-0.1,1.64,0,2c0.27,0.92,1.32,1.49,3,2c2.91,0.88,4.51,0.61,8,1c3.36,0.38,5,0.99,5,1c0,0.02-4.63-1.67-6,0
			c-0.66,0.81-0.39,2.17,0,3c0.69,1.45,2.21,2.25,5,3c8.96,2.4,18.09,0.81,18.79,1.01c0.02,0.01,0.13,0.04,0.21-0.01
			c0.24-0.15,0.04-0.85,0-1c-0.01-0.06-0.01-2.04,0-6c0.01-5.64,5-26.63,5-29c0,0,0-0.76,0-2C268.5,415.17,268.5,414.83,268.5,414.5
			L268.5,414.5L268.5,414.5L268.5,414.5"/>
		<path class="st23" d="M193.5,401.5c0.19,0.03,0.57-3.45,3-7c0.85-1.25,1.29-1.87,2-2c2.92-0.53,6.35,7.32,7,7
			c0.35-0.17-0.53-2.47-1-4c-3.3-10.84,1.88-23.78,3-26c0.32-0.63,0.92-1.58,1-3c0.07-1.22-0.29-1.73,0-3c0.11-0.45,0.31-1.31,1-2
			c0.73-0.73,1.63-0.92,2-1c2.06-0.45,3.95-1.52,6-2c3.64-0.86,6.88-2.68,11-5c6.24-3.51,4.9-4.19,9-6c3.86-1.71,7.63-2.24,13-3
			c4.59-0.65,6.99-0.65,7-1c0,0,0.01-0.42-14-2c0.38-0.91,0.99-2.01,2-3c1.5-1.47,3.04-1.87,3-2c-0.09-0.25-6.23,0.49-13,4
			c-5.5,2.85-6.32,4.88-15,10c-4.23,2.49-5.92,3.13-6,3c-0.13-0.21,4.2-2.36,8-7c0.32-0.4,1.8-2.23,3-5c1-2.31,1.7-3.95,1-5
			c-0.87-1.31-2.97-0.28-7-1c-4.53-0.8-5.39-2.72-7-2c-2.14,0.96-0.55,4.29-3,11c-1.71,4.69-3.56,5.97-3,9c0.22,1.19,0.91,3.2,0,4
			c-0.45,0.39-1.06,0.3-2,1c-0.58,0.43-0.9,0.88-1,1c-1.37,1.69-8.92,0.8-12,1c-5.23,0.35-10.7,3.74-11,7c-0.09,0.97,0.28,1.99,1,4
			c0.86,2.39,1.29,3.59,2,4c2.3,1.34,5.08-3.29,13-6c1.37-0.47,2.66-0.8,4-2c2.64-2.36,3.14-5.95,3-6c-0.24-0.09-4.59,9.57-7,20
			c-0.68,2.97-1.12,5.64-2,11C194.5,392.5,193.04,401.42,193.5,401.5z"/>
		<path class="st21" d="M204.52,360.21c1,0.63,2.14,1.03,3.31,1.18"/>
		<path class="st21" d="M209.96,360.44c-0.85-0.99-1.79-1.91-2.8-2.74c2.49-1.24,5.87-2.7,8.36-3.94"/>
		<path class="st21" d="M199.43,359.7c1.63-1.77,4.21-2.31,6.13-3.76"/>
		<path class="st21" d="M208.77,366.39c0.57-0.44,1.14-0.89,1.7-1.33c0.58-0.45,1.16-0.91,1.81-1.24c2.04-1.03,4.65-0.81,6.4-2.27"
			/>
		<path class="st21" d="M204.18,359.23c0.25,0.86,1.23,1.23,2.08,1.5c0.78,0.24,1.57,0.48,2.35,0.72"/>
		<path class="st21" d="M215.04,353.02c0.75-0.48,1.46-1.04,2.11-1.66"/>
		<path class="st21" d="M198.05,392.48c0.24-2.22,0.51-4.44,0.82-6.65"/>
		<path class="st21" d="M243.23,340.35c-2.29,1.14-4.69,2.05-7.16,2.71"/>
	</g>
	<g id="hair">
		<path class="st24" d="M242,218c-0.77,0.1-0.48,8.66-1.5,14.5c-1.11,6.4-2.07,5.8-3,11c-2.25,12.62,1,24,1,24
			c0.68,2.4,2.13,6.72,0,10c-0.57,0.87-0.97,1.03-2,2c-3.24,3.06-3.95,5.98-6,10c-2.44,4.79-2.9,3.53-6,9c-2.45,4.32-4.47,7.89-5,13
			c-0.47,4.5,0.43,8.17,1,10c1.72,5.55,5.33,10.15,6,11c0,0,2.75,3.49,4,6c0,0,0.05,0.09,1,2c-0.23,0.76-0.41,1.67,0,2
			c0.77,0.63,2.94-1.29,6-3c4.69-2.63,9.61-3.73,10-3c0.36,0.67-3.33,2.41-3,4c0.55,2.68,12.01,2.65,12,3
			c-0.01,0.39-14.28-2.45-21,5c-0.16,0.17-0.77,1.12-2,3c-8.83,13.55-9.56,15.13-9,17c0.65,2.17,2.38,2.58,4,7
			c0.55,1.5,0.64,1.6,1,2c1.1,1.23,3.34,1.97,12,0c6.6-1.5,9.91-2.26,12-4c2.94-2.44,2.75-4.35,6-10c3.78-6.57,5.66-6.07,9-12
			c2.36-4.18,5.51-9.78,7-18c0.56-3.09,1.72-9.84,0-18c-1.5-7.11-3.56-7.61-6-17c-1.73-6.67-2.6-10-2-14c0.85-5.67,1.7-11.38,5-16
			c0.42-0.59,1.34-0.8,1-2c-0.54-1.88-7.37-3.14-10-6c-0.13-0.14-0.47-0.53-1-1c-1.42-1.27-2.76-1.88-3-2c-2.26-1.1-5.32-6.21-7-9
			l0,0C247.75,239.59,243.25,217.84,242,218z"/>
		<path class="st24" d="M293.5,191.5c-0.01,0.03,0.25,0.2,0.89,0.43c2.83,1.01,8.59,4.92,12.11,9.57c2.38,3.14,3.25,6.43,5,13
			c1.95,7.35,2.93,11.03,2,16c-0.27,1.45-1.33,6.36-5,11c-0.63,0.79-2.38,2.4-2.3,2.49c0.07,0.07,1.12-1.04,2.8-1.99
			c2.31-1.3,4.49-1.54,4.5-1.5s-2.52,0.07-4.5,1.5c-3.47,2.5-3.48,8.03-3.5,12.5c-0.02,6.94,1.86,12.03,2,12
			c0.11-0.02-1.17-2.99,0-6c1.4-3.59,5.61-5.46,6-5c0.46,0.54-5.19,3.27-8,10c-2.77,6.62-1.64,14.36-0.53,22.01
			c0.22,1.48,0.46,2.66,0.53,2.99c2.56,12.76,6.09,10.5,6,18c-0.17,14.21-14,38.92-14,41c0,0.03,0,0.43,0,1
			c-0.01,1.7-0.06,1.89-0.02,1.98c0.01,0.01,0.01,0.02,0.02,0.02c0.26,0.36,0.61,25.48,7,33c5.42,6.37,19.75,5.5,24,0
			c2.21-2.86,0.84-5.85,3-7c3.73-1.98,8.8,6.41,19,7c2.07,0.12,5.64,0.33,8-2c3.96-3.92,1.13-11.67,1-12c-2.61-6.46-4.11-12.02-5-16
			c-0.95-4.24-1.62-7.29-1.72-11.46c-0.11-4.74-0.24-10.23,2.72-15.54c0.4-0.72,5.98-10.08,15-10c4.26,0.04,9.64,2.19,11,6
			c0.74,2.06,0.08,4,0,4c-0.18-0.01,2.72-9.99-2-18c-1.77-3-4.59-5.69-7-8c-2.16-2.07-4.05-3.62-5.77-4.88
			c-7.9-5.77-9.53-5.52-12.23-8.12c-5.22-5.02-1.54-9.39-6-22c-3.34-9.46-5.85-8.23-9-18c-2.09-6.46-0.9-7.22-4-19
			c-1.99-7.56-3-11.43-5-15c-0.77-1.38-3.86-6.84-10-12C308.77,193.63,293.58,191.27,293.5,191.5z"/>
		<path class="st21" d="M260.39,341.87c-9.15-10.04-13.04-19.27-14.89-25.37c-1.37-4.53-2.13-9.28-3.66-18.77
			c-1.32-8.23-2.16-15.06-2.69-19.75"/>
		<path class="st21" d="M249.44,260.2c-5.82,8.23-8.13,18.87-6.23,28.77c1.25,6.53,4.2,12.59,7.11,18.56"/>
		<path class="st21" d="M264.44,268.94c-3.11,8.6-6.27,17.64-4.95,26.69c0.87,5.93,3.62,11.42,6.71,16.55"/>
		<path class="st21" d="M233.84,296.57c-2.49,2.41-4.61,5.19-6.29,8.22c-1.04,1.88-1.93,3.96-1.83,6.11
			c0.13,2.75,1.84,5.14,3.48,7.35c2.83,3.81,5.66,7.63,8.49,11.44c1.73,2.33,3.52,5.43,2.03,7.92"/>
		<path class="st21" d="M251.27,364.09c3.05-3.11,4.53-7.68,3.89-11.99c-0.22-1.43-0.65-2.84-0.73-4.28"/>
		<path class="st21" d="M239.74,370.93c1.8-2.43,3.59-4.85,5.39-7.28c1.97-2.66,4-5.49,4.32-8.78"/>
		<path class="st21" d="M232.04,370.4c2.04-4.69,4.16-9.39,7.11-13.57c1.82-2.58,4-5.05,4.73-8.12"/>
		<path class="st21" d="M319.29,324.95c0.82-3.11,1.64-6.22,2.46-9.32c0.54-2.03,1.07-4.1,0.87-6.19c-0.17-1.7-0.82-3.31-1.47-4.89
			c-1.9-4.59-3.89-9.15-5.95-13.67c-1-2.19-2.04-4.53-1.69-6.91"/>
		<path class="st21" d="M324.71,261.03c-3.13,5.25-6.35,10.87-6.2,16.98c0.05,1.94,0.45,3.85,0.89,5.74
			c0.59,2.51,1.29,5.03,2.49,7.31"/>
		<path class="st21" d="M330.71,259.22c1.13,4.42,1.75,8.97,1.83,13.54c0.07,3.83-0.21,7.75,0.97,11.4c0.36,1.11,0.9,2.19,0.9,2.19
			c1.2,2.59,2.52,4.29,3.1,5.05c2.03,2.68,5.68,8.41,6.68,9.8c1.94,2.71,6.7,6.67,20.31,9.3"/>
		<path class="st21" d="M336.45,305.27c2.22,5.08,4.45,10.15,6.67,15.23c0.58,1.32,1.16,2.65,1.5,4.06
			c1.49,6.15-1.92,12.49-6.29,17.07"/>
		<path class="st21" d="M330.43,324.51c-1.46,4.9-2.97,9.89-5.86,14.11c-0.95,1.38-2.04,2.67-2.96,4.07
			c-4.16,6.34-4.43,14.43-3.88,21.99"/>
		<path class="st21" d="M353.34,365.37c-1.94-5.52-3.88-11.04-5.82-16.55c-0.52-1.48-1.05-3-1.06-4.57c-0.01-1.87,0.49-3.4,0.91-4.4
			"/>
		<path class="st21" d="M313.35,201.89c3.1,6.05,4.89,12.76,5.2,19.55"/>
		<path class="st21" d="M330.95,226.82c-6.01,9-8.11,20.14-13.89,29.29"/>
		<path class="st25" d="M353.5,211.5"/>
		<path class="st25" d="M252.5,281.5"/>
		<path class="st24" d="M269,323"/>
		<path class="st24" d="M325,261"/>
	</g>
	<g id="text">
		<text transform="matrix(1.0809 -0.0223 0.0206 0.9998 369.2133 32.4397)" class="st26 st27">UNIVERSITY</text>
	</g>
	<g id="Layer_8">
		<path class="st24" d="M279.5,211.5c0.1-0.08,0.26-0.21,0.45-0.37c0.38-0.3,2.75-2.17,5.55-3.63c2.72-1.42,7.05-3.68,12-3
			c1.38,0.19,3.02,0.63,3,1c-0.02,0.33-1.35,0.43-4,1c-1.79,0.38-2.8,0.6-4,1c-0.7,0.23-1.9,0.65-6,3c-1.31,0.75-3.02,1.76-5,3"/>
		<path class="st24" d="M268,214c-2.95,0.09-5.48,0.29-7.5,0.5c-1.85,0.19-7.57,0.84-10,3c-0.19,0.17-0.58,0.54-1,1
			c-0.53,0.57-2.31,2.52-2,3c0.32,0.5,2.69-1.01,6-2c0.41-0.12,0.69-0.18,1.22-0.31c2.9-0.7,5.21-1.05,6.28-1.19
			c1.55-0.21,3.4-0.4,5.5-0.5"/>
		<path class="st3" d="M277.5,232.5c0.29,2.15,0.17,3.84,0,5c-0.2,1.36-0.5,2.26,0,3c0.59,0.89,1.95,1.02,3,1"/>
		<path class="st3" d="M285.5,219.5c1.65-0.9,1.3-1.15,3-2c2.45-1.22,4.81-1.51,9-2c2.46-0.29,2.92-0.22,3,0
			c0.28,0.72-3.68,2.83-4,3c-0.51,0.27-2.06,1.06-5,2c-2.34,0.74-6.39,2.03-7,1c-0.16-0.27-0.1-0.72,0-1
			C284.71,219.92,285.25,219.64,285.5,219.5z"/>
		<path class="st3" d="M252.5,227.5c1.17-0.59,2.87-1.36,5-2c1.33-0.4,2.92-0.87,5-1c2.43-0.15,5.87,0.13,6,1
			c0.11,0.71-2.06,1.61-3,2c-0.74,0.3-2.04,0.77-4,1c-1.54,0.18-1.64,0-6,0c-1.99,0-2.99,0-3,0c-0.43,0.06-0.93,0.16-1,0
			C251.41,228.31,251.97,227.87,252.5,227.5z"/>
		
			<ellipse transform="matrix(0.9949 -0.1012 0.1012 0.9949 -21.6186 27.5873)" class="st28" cx="261.1" cy="226.87" rx="2.44" ry="1.62"/>
		
			<ellipse transform="matrix(0.9949 -0.1012 0.1012 0.9949 -20.6474 30.5909)" class="st28" cx="291.19" cy="218.8" rx="2.44" ry="1.62"/>
		<path class="st29" d="M274.5,253.5c0.24-0.67,0.9-1.03,4-2c2.32-0.73,2.39-0.66,3-1c0.79-0.43,1.15-0.8,2-1
			c0.55-0.13,1.04-0.09,2,0c1.71,0.16,2.84,0.27,4,1c0.51,0.32,1.06,0.66,1,1c-0.09,0.55-1.68,0.39-4,1c-0.93,0.25-0.74,0.29-5,2
			c-1.96,0.79-2.35,0.92-3,1c-1.24,0.16-3.52,0.13-4-1C274.32,254.08,274.44,253.66,274.5,253.5z"/>
	</g>
	<rect x="598.59" y="432.55" class="st30" width="0.53" height="18.31"/>
</g>
<g id="Scene2Bubbles">
	<g id="Bubble_2">
		<g id="Bubble_2_1_">
			<path d="M488.32,402.92l-1.15,3.81h-2.55l4.33-13.48h3.14l4.38,13.48h-2.64l-1.22-3.81H488.32z M492.2,401.06l-1.06-3.32
				c-0.26-0.83-0.48-1.75-0.68-2.53h-0.04c-0.2,0.79-0.4,1.72-0.64,2.53l-1.04,3.33H492.2z"/>
			<path d="M502.39,399.89c0-1.12-0.04-2.05-0.08-2.9h2.1l0.11,1.43h0.06c0.47-0.75,1.36-1.65,3-1.65c1.29,0,2.28,0.72,2.7,1.8h0.04
				c0.34-0.53,0.75-0.94,1.19-1.22c0.55-0.37,1.17-0.57,1.98-0.57c1.61,0,3.25,1.1,3.25,4.23v5.73h-2.4v-5.39
				c0-1.62-0.56-2.58-1.74-2.58c-0.84,0-1.46,0.59-1.71,1.3c-0.08,0.24-0.12,0.55-0.12,0.82v5.84h-2.4v-5.63
				c0-1.37-0.55-2.33-1.68-2.33c-0.92,0-1.54,0.72-1.77,1.39c-0.09,0.25-0.12,0.54-0.12,0.81v5.76h-2.4V399.89z"/>
			<path d="M528.06,403.81c0,1.16,0.04,2.13,0.08,2.92h-2.15l-0.12-1.47h-0.06c-0.41,0.68-1.37,1.69-3.12,1.69
				c-1.78,0-3.39-1.07-3.39-4.25v-5.71h2.46v5.3c0,1.62,0.51,2.65,1.82,2.65c0.99,0,1.63-0.69,1.88-1.32
				c0.08-0.21,0.13-0.48,0.13-0.76v-5.88h2.46V403.81z"/>
			<path d="M530.61,404.47c0.54,0.34,1.6,0.71,2.48,0.71c1.08,0,1.57-0.45,1.57-1.09c0-0.66-0.4-0.99-1.6-1.42
				c-1.91-0.65-2.7-1.69-2.69-2.84c0-1.71,1.42-3.05,3.7-3.05c1.07,0,2.01,0.27,2.58,0.58l-0.49,1.73c-0.41-0.23-1.2-0.56-2.06-0.56
				c-0.88,0-1.36,0.43-1.36,1.03c0,0.62,0.47,0.92,1.7,1.36c1.77,0.63,2.59,1.53,2.6,2.97c0,1.78-1.38,3.06-3.96,3.06
				c-1.18,0-2.25-0.28-2.97-0.68L530.61,404.47z"/>
			<path d="M541.68,394.27c0,0.74-0.53,1.33-1.4,1.33c-0.82,0-1.35-0.59-1.35-1.33c0-0.75,0.55-1.33,1.38-1.33
				C541.14,392.93,541.67,393.51,541.68,394.27z M539.07,406.73v-9.74h2.46v9.74H539.07z"/>
			<path d="M551.34,406.44c-0.51,0.24-1.53,0.5-2.75,0.5c-3.05,0-5.02-1.96-5.02-4.98c0-2.92,1.99-5.18,5.42-5.18
				c0.91,0,1.82,0.2,2.38,0.44l-0.44,1.85c-0.4-0.19-0.99-0.38-1.86-0.38c-1.88,0-2.99,1.37-2.98,3.16c0,2,1.31,3.14,2.99,3.14
				c0.84,0,1.45-0.18,1.93-0.38L551.34,406.44z"/>
			<path d="M557.31,399.89c0-1.12-0.04-2.05-0.08-2.9h2.1l0.11,1.43h0.06c0.47-0.75,1.36-1.65,3-1.65c1.29,0,2.28,0.72,2.7,1.8h0.04
				c0.34-0.53,0.75-0.94,1.19-1.22c0.55-0.37,1.17-0.57,1.98-0.57c1.61,0,3.25,1.1,3.25,4.23v5.73h-2.4v-5.39
				c0-1.62-0.56-2.58-1.74-2.58c-0.84,0-1.46,0.59-1.71,1.3c-0.08,0.24-0.12,0.55-0.12,0.82v5.84h-2.4v-5.63
				c0-1.37-0.55-2.33-1.68-2.33c-0.92,0-1.54,0.72-1.77,1.39c-0.09,0.25-0.12,0.54-0.12,0.81v5.76h-2.4V399.89z"/>
			<path d="M579.75,406.73l-0.17-1.08h-0.06c-0.59,0.77-1.61,1.3-2.87,1.3c-1.98,0-3.07-1.41-3.07-2.9c0-2.46,2.19-3.7,5.78-3.69
				v-0.16c0-0.64-0.25-1.7-1.98-1.7c-0.95,0-1.96,0.31-2.62,0.73l-0.49-1.6c0.74-0.45,2-0.86,3.53-0.86c3.12,0,4.02,1.97,4.02,4.11
				v3.51c0,0.88,0.04,1.74,0.15,2.35H579.75z M579.42,401.96c-1.74-0.02-3.4,0.34-3.4,1.83c0,0.95,0.63,1.4,1.4,1.4
				c0.98,0,1.69-0.63,1.93-1.35c0.05-0.17,0.07-0.36,0.07-0.54V401.96z"/>
			<path d="M582.26,408.98c0.8-0.06,1.45-0.26,1.85-0.69c0.46-0.49,0.64-1.27,0.64-3.39v-7.91h2.46v8.62c0,2.02-0.39,3.28-1.28,4.15
				c-0.85,0.8-2.21,1.14-3.43,1.15L582.26,408.98z M587.35,394.27c0,0.73-0.52,1.33-1.4,1.33c-0.83,0-1.35-0.6-1.35-1.33
				c0-0.75,0.55-1.33,1.39-1.33C586.82,392.93,587.34,393.52,587.35,394.27z"/>
			<path d="M599.08,401.77c0,3.58-2.51,5.18-5,5.18c-2.75,0-4.87-1.9-4.87-5.02c0-3.2,2.1-5.16,5.04-5.16
				C597.14,396.77,599.08,398.81,599.08,401.77z M591.74,401.87c0,1.87,0.94,3.29,2.42,3.29c1.41,0,2.39-1.36,2.39-3.32
				c0-1.53-0.68-3.28-2.38-3.28C592.45,398.56,591.74,400.25,591.74,401.87z"/>
			<path d="M601.11,400.12c0-1.3-0.03-2.26-0.08-3.13h2.13l0.09,1.85h0.07c0.48-1.37,1.62-2.07,2.67-2.07
				c0.24,0,0.38,0.01,0.58,0.05v2.32c-0.21-0.04-0.42-0.07-0.72-0.07c-1.17,0-1.99,0.75-2.21,1.86c-0.04,0.22-0.06,0.48-0.06,0.74
				v5.05h-2.46V400.12z"/>
			<path d="M611.17,393.03c-0.55,1.83-1.41,3.88-2.16,5.12l-1.52,0.15c0.53-1.47,1.05-3.47,1.3-5.08L611.17,393.03z"/>
			<path d="M612.83,404.47c0.54,0.34,1.6,0.71,2.48,0.71c1.08,0,1.57-0.45,1.57-1.09c0-0.66-0.4-0.99-1.6-1.42
				c-1.91-0.65-2.7-1.69-2.69-2.84c0-1.71,1.42-3.05,3.7-3.05c1.07,0,2.01,0.27,2.58,0.58l-0.49,1.73c-0.41-0.23-1.2-0.56-2.06-0.56
				c-0.88,0-1.36,0.43-1.36,1.03c0,0.62,0.47,0.92,1.7,1.36c1.77,0.63,2.59,1.53,2.6,2.97c0,1.78-1.38,3.06-3.96,3.06
				c-1.18,0-2.25-0.28-2.97-0.68L612.83,404.47z"/>
			<path d="M489.25,417.53V429c0,1,0.04,2.07,0.08,2.73h-2.19l-0.11-1.54h-0.04c-0.58,1.09-1.76,1.76-3.16,1.76
				c-2.33,0-4.17-1.98-4.17-4.98c-0.01-3.26,2.02-5.2,4.37-5.2c1.33,0,2.29,0.55,2.73,1.27h0.04v-5.51H489.25z M486.79,426.05
				c0-0.2-0.01-0.44-0.06-0.64c-0.22-0.95-1.01-1.73-2.12-1.73c-1.59,0-2.47,1.4-2.47,3.2c0,1.79,0.89,3.1,2.44,3.1
				c1.01,0,1.88-0.69,2.13-1.75c0.06-0.22,0.07-0.46,0.07-0.72V426.05z"/>
			<path d="M494.51,419.27c0,0.74-0.53,1.33-1.4,1.33c-0.82,0-1.35-0.59-1.35-1.33c0-0.75,0.55-1.33,1.38-1.33
				C493.97,417.93,494.5,418.51,494.51,419.27z M491.9,431.73v-9.74h2.46v9.74H491.9z"/>
			<path d="M497.02,425.22c0-1.26-0.04-2.31-0.08-3.23h2.16l0.12,1.5h0.04c0.72-1.1,1.85-1.72,3.34-1.72c2.23,0,4.08,1.91,4.08,4.95
				c0,3.53-2.21,5.23-4.43,5.23c-1.22,0-2.24-0.51-2.74-1.3h-0.04v5.04h-2.46V425.22z M499.48,427.65c0,0.24,0.02,0.46,0.07,0.67
				c0.25,1,1.12,1.72,2.16,1.72c1.56,0,2.48-1.3,2.48-3.21c0-1.72-0.84-3.13-2.42-3.13c-1.01,0-1.95,0.74-2.2,1.82
				c-0.05,0.2-0.09,0.42-0.09,0.62V427.65z"/>
			<path d="M508.72,417.53h2.46v14.2h-2.46V417.53z"/>
			<path d="M523.11,426.77c0,3.58-2.51,5.18-5,5.18c-2.75,0-4.87-1.9-4.87-5.02c0-3.2,2.1-5.16,5.04-5.16
				C521.17,421.77,523.11,423.81,523.11,426.77z M515.77,426.87c0,1.87,0.94,3.29,2.42,3.29c1.41,0,2.39-1.36,2.39-3.32
				c0-1.53-0.68-3.28-2.38-3.28C516.48,423.56,515.77,425.25,515.77,426.87z"/>
			<path d="M525.14,424.89c0-1.12-0.04-2.05-0.08-2.9h2.1l0.11,1.43h0.06c0.47-0.75,1.36-1.65,3-1.65c1.29,0,2.28,0.72,2.7,1.8h0.04
				c0.34-0.53,0.75-0.94,1.19-1.22c0.55-0.37,1.17-0.57,1.98-0.57c1.61,0,3.25,1.1,3.25,4.23v5.73h-2.4v-5.39
				c0-1.62-0.56-2.58-1.74-2.58c-0.84,0-1.46,0.59-1.71,1.3c-0.08,0.24-0.12,0.55-0.12,0.82v5.84h-2.4v-5.63
				c0-1.37-0.55-2.33-1.68-2.33c-0.92,0-1.54,0.72-1.77,1.39c-0.09,0.25-0.12,0.54-0.12,0.81v5.76h-2.4V424.89z"/>
			<path d="M547.58,431.73l-0.17-1.08h-0.06c-0.59,0.77-1.61,1.3-2.87,1.3c-1.98,0-3.07-1.41-3.07-2.9c0-2.46,2.19-3.7,5.78-3.69
				v-0.16c0-0.64-0.25-1.7-1.98-1.7c-0.95,0-1.96,0.31-2.62,0.73l-0.49-1.6c0.74-0.45,2-0.86,3.53-0.86c3.12,0,4.02,1.97,4.02,4.11
				v3.51c0,0.88,0.04,1.74,0.15,2.35H547.58z M547.25,426.96c-1.74-0.02-3.4,0.34-3.4,1.83c0,0.95,0.63,1.4,1.4,1.4
				c0.98,0,1.69-0.63,1.93-1.35c0.05-0.17,0.07-0.36,0.07-0.54V426.96z"/>
			<path d="M560.77,425.56v1.7h-5.1v-1.7H560.77z"/>
			<path d="M575.81,417.53V429c0,1,0.04,2.07,0.08,2.73h-2.19l-0.11-1.54h-0.04c-0.58,1.09-1.76,1.76-3.16,1.76
				c-2.33,0-4.17-1.98-4.17-4.98c-0.01-3.26,2.02-5.2,4.37-5.2c1.33,0,2.29,0.55,2.73,1.27h0.04v-5.51H575.81z M573.35,426.05
				c0-0.2-0.01-0.44-0.06-0.64c-0.22-0.95-1.01-1.73-2.12-1.73c-1.59,0-2.47,1.4-2.47,3.2c0,1.79,0.89,3.1,2.44,3.1
				c1.01,0,1.88-0.69,2.13-1.75c0.06-0.22,0.07-0.46,0.07-0.72V426.05z"/>
			<path d="M587.71,426.77c0,3.58-2.51,5.18-5,5.18c-2.75,0-4.87-1.9-4.87-5.02c0-3.2,2.1-5.16,5.04-5.16
				C585.77,421.77,587.71,423.81,587.71,426.77z M580.37,426.87c0,1.87,0.94,3.29,2.42,3.29c1.41,0,2.39-1.36,2.39-3.32
				c0-1.53-0.68-3.28-2.38-3.28C581.08,423.56,580.37,425.25,580.37,426.87z"/>
			<path d="M595.42,421.99l1.76,5.22c0.19,0.6,0.41,1.35,0.55,1.89h0.06c0.15-0.55,0.33-1.28,0.52-1.91l1.53-5.2h2.63l-2.44,6.65
				c-1.34,3.63-2.24,5.25-3.39,6.26c-0.97,0.84-1.97,1.16-2.58,1.25l-0.56-2.07c0.41-0.1,0.93-0.32,1.42-0.67
				c0.47-0.31,1.01-0.88,1.35-1.55c0.1-0.17,0.15-0.31,0.15-0.43c0-0.11-0.03-0.25-0.13-0.48l-3.58-8.94H595.42z"/>
			<path d="M613.13,426.77c0,3.58-2.51,5.18-5,5.18c-2.75,0-4.87-1.9-4.87-5.02c0-3.2,2.1-5.16,5.04-5.16
				C611.19,421.77,613.13,423.81,613.13,426.77z M605.79,426.87c0,1.87,0.94,3.29,2.42,3.29c1.41,0,2.39-1.36,2.39-3.32
				c0-1.53-0.68-3.28-2.38-3.28C606.5,423.56,605.79,425.25,605.79,426.87z"/>
			<path d="M623.87,428.81c0,1.16,0.04,2.13,0.08,2.92h-2.15l-0.12-1.47h-0.06c-0.41,0.68-1.37,1.69-3.12,1.69
				c-1.78,0-3.39-1.07-3.39-4.25v-5.71h2.46v5.3c0,1.62,0.51,2.65,1.82,2.65c0.99,0,1.63-0.69,1.88-1.32
				c0.08-0.21,0.13-0.48,0.13-0.76v-5.88h2.46V428.81z"/>
			<path d="M491.51,454.47c0.54,0.34,1.6,0.71,2.48,0.71c1.08,0,1.57-0.45,1.57-1.09c0-0.66-0.4-0.99-1.6-1.42
				c-1.91-0.65-2.7-1.69-2.69-2.84c0-1.71,1.42-3.05,3.7-3.05c1.07,0,2.01,0.27,2.58,0.58l-0.49,1.73c-0.41-0.23-1.2-0.56-2.06-0.56
				c-0.88,0-1.36,0.43-1.36,1.03c0,0.62,0.47,0.92,1.7,1.36c1.77,0.63,2.59,1.53,2.6,2.97c0,1.78-1.38,3.06-3.96,3.06
				c-1.18,0-2.25-0.28-2.97-0.68L491.51,454.47z"/>
			<path d="M501.71,452.54c0.07,1.77,1.43,2.54,3.01,2.54c1.13,0,1.94-0.18,2.69-0.45l0.37,1.69c-0.83,0.35-1.99,0.62-3.4,0.62
				c-3.16,0-5.01-1.95-5.01-4.94c0-2.69,1.63-5.23,4.76-5.23c3.17,0,4.2,2.6,4.2,4.74c0,0.46-0.04,0.83-0.09,1.03H501.71z
				 M505.99,450.83c0.01-0.9-0.38-2.37-2.03-2.37c-1.52,0-2.15,1.38-2.26,2.37H505.99z"/>
			<path d="M510.29,450.12c0-1.3-0.03-2.26-0.08-3.13h2.13l0.09,1.85h0.07c0.48-1.37,1.62-2.07,2.67-2.07
				c0.24,0,0.38,0.01,0.58,0.05v2.32c-0.21-0.04-0.42-0.07-0.72-0.07c-1.17,0-1.99,0.75-2.21,1.86c-0.04,0.22-0.06,0.48-0.06,0.74
				v5.05h-2.46V450.12z"/>
			<path d="M519.14,452.54c0.07,1.77,1.43,2.54,3.01,2.54c1.13,0,1.94-0.18,2.69-0.45l0.37,1.69c-0.83,0.35-1.99,0.62-3.4,0.62
				c-3.16,0-5.01-1.95-5.01-4.94c0-2.69,1.63-5.23,4.76-5.23c3.17,0,4.2,2.6,4.2,4.74c0,0.46-0.04,0.83-0.09,1.03H519.14z
				 M523.43,450.83c0.01-0.9-0.38-2.37-2.03-2.37c-1.52,0-2.15,1.38-2.26,2.37H523.43z"/>
			<path d="M527.73,449.89c0-1.12-0.04-2.05-0.08-2.9h2.15l0.12,1.46h0.06c0.43-0.76,1.49-1.68,3.1-1.68c1.7,0,3.46,1.09,3.46,4.17
				v5.79h-2.46v-5.5c0-1.4-0.51-2.46-1.86-2.46c-0.98,0-1.66,0.69-1.92,1.45c-0.08,0.2-0.11,0.5-0.11,0.78v5.73h-2.46V449.89z"/>
			<path d="M544.65,456.73l-0.17-1.08h-0.06c-0.59,0.77-1.61,1.3-2.87,1.3c-1.98,0-3.07-1.41-3.07-2.9c0-2.46,2.19-3.7,5.78-3.69
				v-0.16c0-0.64-0.25-1.7-1.98-1.7c-0.95,0-1.96,0.31-2.62,0.73l-0.49-1.6c0.74-0.45,2-0.86,3.53-0.86c3.12,0,4.02,1.97,4.02,4.11
				v3.51c0,0.88,0.04,1.74,0.15,2.35H544.65z M544.32,451.96c-1.74-0.02-3.4,0.34-3.4,1.83c0,0.95,0.63,1.4,1.4,1.4
				c0.98,0,1.69-0.63,1.93-1.35c0.05-0.17,0.07-0.36,0.07-0.54V451.96z"/>
			<path d="M558.3,442.53V454c0,1,0.04,2.07,0.08,2.73h-2.19l-0.11-1.54h-0.04c-0.58,1.09-1.76,1.76-3.16,1.76
				c-2.33,0-4.17-1.98-4.17-4.98c-0.01-3.26,2.02-5.2,4.37-5.2c1.33,0,2.29,0.55,2.73,1.27h0.04v-5.51H558.3z M555.84,451.05
				c0-0.2-0.01-0.44-0.06-0.64c-0.22-0.95-1.01-1.73-2.12-1.73c-1.59,0-2.47,1.4-2.47,3.2c0,1.79,0.89,3.1,2.44,3.1
				c1.01,0,1.88-0.69,2.13-1.75c0.06-0.22,0.07-0.46,0.07-0.72V451.05z"/>
			<path d="M562.68,452.54c0.07,1.77,1.43,2.54,3.01,2.54c1.13,0,1.94-0.18,2.69-0.45l0.37,1.69c-0.83,0.35-1.99,0.62-3.4,0.62
				c-3.16,0-5.01-1.95-5.01-4.94c0-2.69,1.63-5.23,4.76-5.23c3.17,0,4.2,2.6,4.2,4.74c0,0.46-0.04,0.83-0.09,1.03H562.68z
				 M566.97,450.83c0.01-0.9-0.38-2.37-2.03-2.37c-1.52,0-2.15,1.38-2.26,2.37H566.97z"/>
			<path d="M576.95,446.99l1.76,5.22c0.19,0.6,0.41,1.35,0.55,1.89h0.06c0.15-0.55,0.33-1.28,0.52-1.91l1.53-5.2h2.63l-2.44,6.65
				c-1.34,3.63-2.24,5.25-3.39,6.26c-0.97,0.84-1.97,1.16-2.58,1.25l-0.56-2.07c0.41-0.1,0.93-0.32,1.42-0.67
				c0.47-0.31,1.01-0.88,1.35-1.55c0.1-0.17,0.15-0.31,0.15-0.43c0-0.11-0.03-0.25-0.13-0.48l-3.58-8.94H576.95z"/>
			<path d="M594.66,451.77c0,3.58-2.51,5.18-5,5.18c-2.75,0-4.87-1.9-4.87-5.02c0-3.2,2.1-5.16,5.04-5.16
				C592.72,446.77,594.66,448.81,594.66,451.77z M587.32,451.87c0,1.87,0.94,3.29,2.42,3.29c1.41,0,2.39-1.36,2.39-3.32
				c0-1.53-0.68-3.28-2.38-3.28C588.03,448.56,587.32,450.25,587.32,451.87z"/>
			<path d="M605.4,453.81c0,1.16,0.04,2.13,0.08,2.92h-2.15l-0.12-1.47h-0.06c-0.41,0.68-1.37,1.69-3.12,1.69
				c-1.78,0-3.39-1.07-3.39-4.25v-5.71h2.46v5.3c0,1.62,0.51,2.65,1.82,2.65c0.99,0,1.63-0.69,1.88-1.32
				c0.08-0.21,0.13-0.48,0.13-0.76v-5.88h2.46V453.81z"/>
			<path d="M608.07,450.12c0-1.3-0.03-2.26-0.08-3.13h2.13l0.09,1.85h0.07c0.48-1.37,1.62-2.07,2.67-2.07
				c0.24,0,0.38,0.01,0.58,0.05v2.32c-0.21-0.04-0.42-0.07-0.72-0.07c-1.17,0-1.99,0.75-2.21,1.86c-0.04,0.22-0.06,0.48-0.06,0.74
				v5.05h-2.46V450.12z"/>
			<path d="M485.73,483.98c0.8-0.06,1.45-0.26,1.85-0.69c0.46-0.49,0.64-1.27,0.64-3.39v-7.91h2.46v8.62c0,2.02-0.39,3.28-1.28,4.15
				c-0.85,0.8-2.21,1.14-3.43,1.15L485.73,483.98z M490.82,469.27c0,0.73-0.52,1.33-1.4,1.33c-0.83,0-1.35-0.6-1.35-1.33
				c0-0.75,0.55-1.33,1.39-1.33C490.29,467.93,490.81,468.52,490.82,469.27z"/>
			<path d="M502.55,476.77c0,3.58-2.51,5.18-5,5.18c-2.75,0-4.87-1.9-4.87-5.02c0-3.2,2.1-5.16,5.04-5.16
				C500.62,471.77,502.55,473.81,502.55,476.77z M495.21,476.87c0,1.87,0.94,3.29,2.42,3.29c1.41,0,2.39-1.36,2.39-3.32
				c0-1.53-0.68-3.28-2.38-3.28C495.92,473.56,495.21,475.25,495.21,476.87z"/>
			<path d="M504.5,481.73c0.04-0.66,0.08-1.73,0.08-2.73v-11.47h2.46v5.8h0.04c0.6-0.95,1.66-1.56,3.11-1.56
				c2.38,0,4.08,1.97,4.06,4.94c0,3.5-2.22,5.24-4.42,5.24c-1.26,0-2.37-0.48-3.07-1.69h-0.04l-0.11,1.47H504.5z M507.04,477.7
				c0,0.2,0.02,0.4,0.06,0.58c0.26,1,1.11,1.72,2.17,1.72c1.54,0,2.48-1.23,2.48-3.2c0-1.71-0.83-3.12-2.45-3.12
				c-1,0-1.92,0.71-2.18,1.8c-0.04,0.19-0.08,0.41-0.08,0.64V477.7z"/>
			<path d="M523.03,469.27c0,0.74-0.53,1.33-1.4,1.33c-0.82,0-1.35-0.59-1.35-1.33c0-0.75,0.55-1.33,1.38-1.33
				C522.49,467.93,523.02,468.51,523.03,469.27z M520.42,481.73v-9.74h2.46v9.74H520.42z"/>
			<path d="M525.54,474.89c0-1.12-0.04-2.05-0.08-2.9h2.15l0.12,1.46h0.06c0.43-0.76,1.49-1.68,3.1-1.68c1.7,0,3.46,1.09,3.46,4.17
				v5.79h-2.46v-5.5c0-1.4-0.51-2.46-1.86-2.46c-0.98,0-1.66,0.69-1.92,1.45c-0.08,0.2-0.11,0.5-0.11,0.78v5.73h-2.46V474.89z"/>
			<path d="M539.8,469.2v2.79h2.34v1.83h-2.34v4.3c0,1.19,0.32,1.8,1.26,1.8c0.42,0,0.74-0.05,0.96-0.11l0.05,1.87
				c-0.37,0.14-1.02,0.25-1.79,0.25c-0.91,0-1.66-0.31-2.12-0.8c-0.53-0.56-0.77-1.46-0.77-2.73v-4.58H536v-1.83h1.39v-2.21
				L539.8,469.2z"/>
			<path d="M545.73,477.54c0.07,1.77,1.43,2.54,3.01,2.54c1.13,0,1.94-0.18,2.69-0.45l0.37,1.69c-0.83,0.35-1.99,0.62-3.4,0.62
				c-3.16,0-5.01-1.95-5.01-4.94c0-2.69,1.63-5.23,4.76-5.23c3.17,0,4.2,2.6,4.2,4.74c0,0.46-0.04,0.83-0.09,1.03H545.73z
				 M550.02,475.83c0.01-0.9-0.38-2.37-2.03-2.37c-1.52,0-2.15,1.38-2.26,2.37H550.02z"/>
			<path d="M554.32,475.12c0-1.3-0.03-2.26-0.08-3.13h2.13l0.09,1.85h0.07c0.48-1.37,1.62-2.07,2.67-2.07
				c0.24,0,0.38,0.01,0.58,0.05v2.32c-0.21-0.04-0.42-0.07-0.72-0.07c-1.17,0-1.99,0.75-2.21,1.86c-0.04,0.22-0.06,0.48-0.06,0.74
				v5.05h-2.46V475.12z"/>
			<path d="M562.99,471.99l1.58,4.95c0.28,0.86,0.48,1.64,0.67,2.43h0.06c0.18-0.81,0.4-1.57,0.66-2.43l1.54-4.95h2.59l-3.72,9.74
				h-2.43l-3.62-9.74H562.99z"/>
			<path d="M574.21,469.27c0,0.74-0.53,1.33-1.4,1.33c-0.82,0-1.35-0.59-1.35-1.33c0-0.75,0.55-1.33,1.38-1.33
				C573.67,467.93,574.2,468.51,574.21,469.27z M571.6,481.73v-9.74h2.46v9.74H571.6z"/>
			<path d="M578.46,477.54c0.07,1.77,1.43,2.54,3.01,2.54c1.13,0,1.94-0.18,2.69-0.45l0.37,1.69c-0.83,0.35-1.99,0.62-3.4,0.62
				c-3.16,0-5.01-1.95-5.01-4.94c0-2.69,1.63-5.23,4.76-5.23c3.17,0,4.2,2.6,4.2,4.74c0,0.46-0.04,0.83-0.09,1.03H578.46z
				 M582.74,475.83c0.01-0.9-0.38-2.37-2.03-2.37c-1.52,0-2.15,1.38-2.26,2.37H582.74z"/>
			<path d="M588.51,471.99l1.02,4.42c0.23,1.04,0.45,2.09,0.63,3.16h0.05c0.2-1.05,0.5-2.14,0.78-3.14l1.28-4.43h1.99l1.22,4.32
				c0.3,1.13,0.57,2.19,0.78,3.25h0.04c0.15-1.05,0.38-2.12,0.65-3.25l1.08-4.32h2.42l-3.05,9.74h-2.29l-1.17-3.97
				c-0.3-1.02-0.52-1.93-0.74-3.12h-0.04c-0.21,1.2-0.45,2.15-0.74,3.12l-1.24,3.97h-2.29l-2.88-9.74H588.51z"/>
			<path d="M601.9,479.47c0.54,0.34,1.6,0.71,2.48,0.71c1.08,0,1.57-0.45,1.57-1.09c0-0.66-0.4-0.99-1.6-1.42
				c-1.91-0.65-2.7-1.69-2.69-2.84c0-1.71,1.42-3.05,3.7-3.05c1.07,0,2.01,0.27,2.58,0.58l-0.49,1.73c-0.41-0.23-1.2-0.56-2.06-0.56
				c-0.88,0-1.36,0.43-1.36,1.03c0,0.62,0.47,0.92,1.7,1.36c1.77,0.63,2.59,1.53,2.6,2.97c0,1.78-1.38,3.06-3.96,3.06
				c-1.18,0-2.25-0.28-2.97-0.68L601.9,479.47z"/>
			<path d="M611.82,477.61l-0.04-0.51c-0.09-1.05,0.27-2.16,1.21-3.28c0.76-0.91,1.27-1.61,1.27-2.38c0-0.84-0.53-1.41-1.66-1.43
				c-0.69,0-1.49,0.23-2,0.6l-0.58-1.77c0.7-0.45,1.86-0.82,3.13-0.82c2.48,0,3.62,1.45,3.62,3.04c0,1.45-0.87,2.44-1.72,3.41
				c-0.79,0.92-1.11,1.75-1.07,2.71l0.01,0.42H611.82z M611.34,480.39c0-0.92,0.63-1.57,1.52-1.57c0.91,0,1.51,0.65,1.51,1.57
				c0,0.88-0.6,1.56-1.52,1.56C611.95,481.95,611.33,481.28,611.34,480.39z"/>
		</g>
	</g>
	<g id="Bubble_1">
		<g id="Bubble_1_1_">
			<path d="M86.43,91.17c-0.08-1.74-0.17-3.83-0.16-5.67h-0.05c-0.45,1.65-1.01,3.47-1.59,5.18l-1.98,5.83h-1.89l-1.79-5.75
				c-0.53-1.73-1.01-3.56-1.36-5.26h-0.04c-0.06,1.76-0.14,3.92-0.24,5.75l-0.3,5.42h-2.3l0.9-13.48h3.24l1.76,5.42
				c0.48,1.59,0.92,3.19,1.24,4.7h0.06c0.36-1.47,0.83-3.12,1.35-4.71l1.87-5.4h3.2l0.77,13.48h-2.4L86.43,91.17z"/>
			<path d="M100.21,93.76c0,1.16,0.04,2.13,0.08,2.92h-2.15l-0.12-1.47h-0.06c-0.41,0.68-1.37,1.69-3.12,1.69
				c-1.77,0-3.39-1.07-3.39-4.25v-5.71h2.46v5.3c0,1.62,0.51,2.65,1.82,2.65c0.99,0,1.63-0.69,1.88-1.32
				c0.08-0.21,0.13-0.48,0.13-0.76v-5.88h2.46V93.76z"/>
			<path d="M102.76,94.41c0.54,0.34,1.6,0.71,2.48,0.71c1.08,0,1.57-0.45,1.57-1.09c0-0.66-0.4-0.99-1.6-1.42
				c-1.91-0.65-2.7-1.69-2.69-2.84c0-1.71,1.42-3.05,3.7-3.05c1.07,0,2.01,0.27,2.58,0.58l-0.49,1.73c-0.41-0.23-1.2-0.56-2.06-0.56
				c-0.88,0-1.36,0.43-1.36,1.03c0,0.62,0.47,0.92,1.7,1.36c1.77,0.63,2.59,1.53,2.6,2.97c0,1.78-1.38,3.06-3.96,3.06
				c-1.18,0-2.25-0.28-2.97-0.68L102.76,94.41z"/>
			<path d="M113.82,84.21c0,0.74-0.53,1.33-1.4,1.33c-0.82,0-1.35-0.59-1.35-1.33c0-0.75,0.55-1.33,1.38-1.33
				C113.29,82.88,113.82,83.45,113.82,84.21z M111.22,96.67v-9.74h2.46v9.74H111.22z"/>
			<path d="M123.48,96.38c-0.51,0.24-1.53,0.5-2.75,0.5c-3.05,0-5.02-1.96-5.02-4.98c0-2.92,1.99-5.18,5.42-5.18
				c0.91,0,1.82,0.2,2.38,0.44l-0.44,1.85c-0.4-0.19-0.99-0.38-1.86-0.38c-1.88,0-2.99,1.37-2.98,3.16c0,2,1.31,3.14,2.99,3.14
				c0.84,0,1.45-0.18,1.93-0.38L123.48,96.38z"/>
			<path d="M140.93,91.17c-0.08-1.74-0.17-3.83-0.16-5.67h-0.05c-0.45,1.65-1.01,3.47-1.59,5.18l-1.98,5.83h-1.89l-1.79-5.75
				c-0.53-1.73-1.01-3.56-1.36-5.26h-0.04c-0.06,1.76-0.14,3.92-0.24,5.75l-0.3,5.42h-2.3l0.9-13.48h3.24l1.76,5.42
				c0.48,1.59,0.92,3.19,1.24,4.7h0.06c0.36-1.47,0.83-3.12,1.35-4.71l1.87-5.4h3.2l0.77,13.48h-2.4L140.93,91.17z"/>
			<path d="M151.47,96.67l-0.17-1.08h-0.06c-0.59,0.77-1.61,1.31-2.87,1.31c-1.98,0-3.07-1.41-3.07-2.9c0-2.46,2.19-3.7,5.78-3.69
				v-0.16c0-0.64-0.25-1.7-1.98-1.7c-0.95,0-1.95,0.31-2.62,0.73l-0.49-1.6c0.74-0.45,2-0.86,3.53-0.86c3.12,0,4.02,1.97,4.02,4.11
				v3.51c0,0.89,0.04,1.74,0.15,2.35H151.47z M151.15,91.9c-1.74-0.02-3.4,0.34-3.4,1.83c0,0.95,0.63,1.4,1.4,1.4
				c0.98,0,1.69-0.63,1.93-1.35c0.05-0.17,0.07-0.36,0.07-0.54V91.9z"/>
			<path d="M153.98,98.93c0.8-0.06,1.45-0.26,1.85-0.69c0.46-0.49,0.64-1.27,0.64-3.39v-7.91h2.46v8.62c0,2.02-0.39,3.28-1.28,4.15
				c-0.85,0.8-2.21,1.15-3.43,1.15L153.98,98.93z M159.07,84.21c0,0.73-0.52,1.33-1.4,1.33c-0.83,0-1.35-0.6-1.35-1.33
				c0-0.75,0.55-1.33,1.39-1.33C158.54,82.88,159.07,83.46,159.07,84.21z"/>
			<path d="M170.81,91.71c0,3.58-2.51,5.19-5,5.19c-2.75,0-4.87-1.9-4.87-5.02c0-3.19,2.1-5.16,5.04-5.16
				C168.87,86.72,170.81,88.76,170.81,91.71z M163.46,91.81c0,1.87,0.94,3.29,2.42,3.29c1.41,0,2.39-1.36,2.39-3.32
				c0-1.53-0.68-3.28-2.38-3.28C164.17,88.5,163.46,90.19,163.46,91.81z"/>
			<path d="M172.83,90.07c0-1.3-0.03-2.26-0.08-3.13h2.13l0.09,1.85h0.07c0.48-1.37,1.62-2.07,2.67-2.07c0.24,0,0.38,0.01,0.58,0.05
				v2.32c-0.21-0.04-0.42-0.07-0.72-0.07c-1.17,0-1.99,0.75-2.21,1.86c-0.04,0.22-0.06,0.48-0.06,0.74v5.05h-2.46V90.07z"/>
			<path d="M182.9,82.97c-0.55,1.83-1.41,3.88-2.16,5.12l-1.52,0.15c0.53-1.47,1.05-3.47,1.3-5.08L182.9,82.97z"/>
			<path d="M184.56,94.41c0.54,0.34,1.6,0.71,2.48,0.71c1.08,0,1.57-0.45,1.57-1.09c0-0.66-0.4-0.99-1.6-1.42
				c-1.91-0.65-2.7-1.69-2.69-2.84c0-1.71,1.42-3.05,3.7-3.05c1.07,0,2.01,0.27,2.58,0.58l-0.49,1.73c-0.41-0.23-1.2-0.56-2.06-0.56
				c-0.88,0-1.36,0.43-1.36,1.03c0,0.62,0.47,0.92,1.7,1.36c1.77,0.63,2.59,1.53,2.6,2.97c0,1.78-1.38,3.06-3.96,3.06
				c-1.18,0-2.25-0.28-2.97-0.68L184.56,94.41z"/>
			<path d="M81.13,107.47v11.47c0,1,0.04,2.07,0.08,2.73h-2.19l-0.11-1.54h-0.04c-0.58,1.09-1.76,1.76-3.16,1.76
				c-2.33,0-4.17-1.98-4.17-4.98c-0.02-3.26,2.02-5.2,4.37-5.2c1.33,0,2.29,0.55,2.73,1.27h0.04v-5.51H81.13z M78.67,115.99
				c0-0.2-0.01-0.44-0.06-0.64c-0.22-0.95-1.01-1.73-2.12-1.73c-1.59,0-2.47,1.4-2.47,3.2c0,1.79,0.89,3.1,2.44,3.1
				c1.01,0,1.88-0.69,2.13-1.75c0.06-0.22,0.07-0.46,0.07-0.72V115.99z"/>
			<path d="M86.38,109.21c0,0.74-0.53,1.33-1.4,1.33c-0.82,0-1.35-0.59-1.35-1.33c0-0.75,0.55-1.33,1.38-1.33
				C85.85,107.88,86.38,108.45,86.38,109.21z M83.78,121.67v-9.74h2.46v9.74H83.78z"/>
			<path d="M88.89,115.16c0-1.26-0.04-2.31-0.08-3.23h2.16l0.12,1.5h0.04c0.72-1.1,1.85-1.72,3.34-1.72c2.23,0,4.09,1.91,4.09,4.95
				c0,3.53-2.21,5.23-4.43,5.23c-1.23,0-2.24-0.51-2.74-1.3h-0.04v5.04h-2.46V115.16z M91.35,117.6c0,0.24,0.02,0.46,0.07,0.67
				c0.25,1,1.12,1.72,2.16,1.72c1.56,0,2.48-1.3,2.48-3.21c0-1.73-0.84-3.13-2.42-3.13c-1.01,0-1.95,0.74-2.2,1.82
				c-0.05,0.2-0.09,0.42-0.09,0.62V117.6z"/>
			<path d="M100.6,107.47h2.46v14.2h-2.46V107.47z"/>
			<path d="M114.99,116.71c0,3.58-2.51,5.19-5,5.19c-2.75,0-4.87-1.9-4.87-5.02c0-3.19,2.1-5.16,5.04-5.16
				C113.05,111.72,114.99,113.76,114.99,116.71z M107.64,116.81c0,1.87,0.94,3.29,2.42,3.29c1.41,0,2.39-1.36,2.39-3.32
				c0-1.53-0.68-3.28-2.38-3.28C108.35,113.5,107.64,115.19,107.64,116.81z"/>
			<path d="M117.02,114.83c0-1.12-0.04-2.05-0.08-2.9h2.1l0.11,1.43h0.06c0.47-0.76,1.36-1.65,3-1.65c1.29,0,2.28,0.72,2.7,1.8h0.04
				c0.34-0.53,0.75-0.94,1.19-1.22c0.55-0.37,1.17-0.57,1.98-0.57c1.61,0,3.25,1.1,3.25,4.23v5.73h-2.4v-5.39
				c0-1.62-0.56-2.58-1.74-2.58c-0.84,0-1.46,0.59-1.71,1.3c-0.08,0.24-0.12,0.55-0.12,0.82v5.84h-2.4v-5.63
				c0-1.37-0.55-2.33-1.68-2.33c-0.92,0-1.54,0.72-1.77,1.39c-0.09,0.25-0.12,0.54-0.12,0.81v5.76h-2.4V114.83z"/>
			<path d="M139.45,121.67l-0.17-1.08h-0.06c-0.59,0.77-1.61,1.31-2.87,1.31c-1.98,0-3.07-1.41-3.07-2.9c0-2.46,2.19-3.7,5.78-3.69
				v-0.16c0-0.64-0.25-1.7-1.98-1.7c-0.95,0-1.95,0.31-2.62,0.73l-0.49-1.6c0.74-0.45,2-0.86,3.53-0.86c3.12,0,4.02,1.97,4.02,4.11
				v3.51c0,0.89,0.04,1.74,0.15,2.35H139.45z M139.13,116.9c-1.74-0.02-3.4,0.34-3.4,1.83c0,0.95,0.63,1.4,1.4,1.4
				c0.98,0,1.69-0.63,1.93-1.35c0.05-0.17,0.07-0.36,0.07-0.54V116.9z"/>
			<path d="M142.97,124.1c0.54-1.52,1.08-3.62,1.34-5.28l2.58-0.2c-0.57,1.89-1.46,4.04-2.25,5.33L142.97,124.1z"/>
			<path d="M153,107.47h2.46v5.79h0.04c0.31-0.46,0.72-0.84,1.23-1.12c0.48-0.27,1.07-0.43,1.68-0.43c1.66,0,3.4,1.1,3.4,4.22v5.73
				h-2.46v-5.46c0-1.41-0.51-2.49-1.87-2.49c-0.96,0-1.64,0.65-1.91,1.38c-0.08,0.21-0.11,0.48-0.11,0.74v5.83H153V107.47z"/>
			<path d="M173.15,118.76c0,1.16,0.04,2.13,0.08,2.92h-2.15l-0.12-1.47h-0.06c-0.41,0.68-1.37,1.69-3.12,1.69
				c-1.78,0-3.39-1.07-3.39-4.25v-5.71h2.46v5.3c0,1.62,0.51,2.65,1.82,2.65c0.99,0,1.63-0.69,1.88-1.32
				c0.08-0.21,0.13-0.48,0.13-0.76v-5.88h2.46V118.76z"/>
			<path d="M175.81,107.47h2.46v5.79h0.04c0.31-0.46,0.72-0.84,1.23-1.12c0.48-0.27,1.07-0.43,1.68-0.43c1.66,0,3.4,1.1,3.4,4.22
				v5.73h-2.46v-5.46c0-1.41-0.51-2.49-1.87-2.49c-0.96,0-1.64,0.65-1.91,1.38c-0.08,0.21-0.11,0.48-0.11,0.74v5.83h-2.46V107.47z"
				/>
			<path d="M188.72,117.55l-0.04-0.51c-0.09-1.05,0.27-2.16,1.21-3.28c0.76-0.91,1.27-1.61,1.27-2.38c0-0.84-0.53-1.41-1.66-1.43
				c-0.69,0-1.49,0.23-2,0.6l-0.58-1.77c0.7-0.45,1.86-0.82,3.13-0.82c2.48,0,3.62,1.45,3.62,3.04c0,1.45-0.87,2.44-1.72,3.41
				c-0.79,0.92-1.11,1.75-1.07,2.7l0.01,0.43H188.72z M188.23,120.34c0-0.92,0.63-1.57,1.52-1.57c0.91,0,1.51,0.65,1.51,1.57
				c0,0.88-0.6,1.56-1.52,1.56C188.85,121.89,188.23,121.22,188.23,120.34z"/>
		</g>
	</g>
	<g id="Bubble_3">
		<g id="Bubble_3_1_">
			<path d="M546.58,111.38v-5.61l-4.27-7.87h2.82l1.61,3.46c0.46,0.99,0.81,1.76,1.17,2.67h0.04c0.33-0.86,0.72-1.69,1.17-2.68
				l1.62-3.45h2.78l-4.48,7.8v5.68H546.58z"/>
			<path d="M556.66,107.19c0.07,1.77,1.43,2.54,3.01,2.54c1.13,0,1.94-0.18,2.69-0.45l0.37,1.7c-0.83,0.35-1.99,0.62-3.4,0.62
				c-3.16,0-5.01-1.95-5.01-4.94c0-2.69,1.63-5.23,4.76-5.23c3.17,0,4.2,2.6,4.2,4.74c0,0.46-0.04,0.82-0.09,1.03H556.66z
				 M560.94,105.48c0.01-0.9-0.38-2.37-2.03-2.37c-1.52,0-2.15,1.38-2.26,2.37H560.94z"/>
			<path d="M565.25,104.87c0-1.26-0.04-2.31-0.08-3.23h2.16l0.12,1.5h0.04c0.72-1.1,1.85-1.72,3.34-1.72c2.23,0,4.08,1.91,4.08,4.95
				c0,3.53-2.21,5.23-4.43,5.23c-1.22,0-2.24-0.51-2.74-1.3h-0.04v5.04h-2.46V104.87z M567.71,107.3c0,0.24,0.02,0.46,0.07,0.67
				c0.25,1,1.12,1.72,2.16,1.72c1.56,0,2.48-1.3,2.48-3.21c0-1.73-0.84-3.13-2.42-3.13c-1.01,0-1.95,0.74-2.2,1.82
				c-0.05,0.2-0.09,0.42-0.09,0.62V107.3z"/>
			<path d="M575.78,113.8c0.54-1.52,1.08-3.62,1.34-5.28l2.58-0.2c-0.57,1.89-1.47,4.04-2.25,5.33L575.78,113.8z"/>
			<path d="M588.62,98.85v2.79h2.34v1.83h-2.34v4.3c0,1.19,0.32,1.8,1.26,1.8c0.42,0,0.74-0.05,0.96-0.11l0.05,1.87
				c-0.37,0.14-1.02,0.25-1.79,0.25c-0.91,0-1.66-0.31-2.12-0.8c-0.53-0.56-0.77-1.46-0.77-2.73v-4.58h-1.39v-1.83h1.39v-2.21
				L588.62,98.85z"/>
			<path d="M592.83,97.18h2.46v5.79h0.04c0.31-0.46,0.72-0.84,1.22-1.12c0.48-0.27,1.07-0.43,1.68-0.43c1.66,0,3.4,1.1,3.4,4.22
				v5.73h-2.46v-5.46c0-1.41-0.51-2.49-1.87-2.49c-0.96,0-1.64,0.65-1.91,1.38c-0.08,0.21-0.11,0.48-0.11,0.74v5.83h-2.46V97.18z"/>
			<path d="M606,107.19c0.07,1.77,1.43,2.54,3.01,2.54c1.13,0,1.94-0.18,2.69-0.45l0.37,1.7c-0.83,0.35-1.99,0.62-3.4,0.62
				c-3.16,0-5.01-1.95-5.01-4.94c0-2.69,1.63-5.23,4.76-5.23c3.17,0,4.2,2.6,4.2,4.74c0,0.46-0.04,0.82-0.09,1.03H606z
				 M610.28,105.48c0.01-0.9-0.38-2.37-2.03-2.37c-1.52,0-2.15,1.38-2.26,2.37H610.28z"/>
			<path d="M627.44,108.46c0,1.16,0.04,2.13,0.08,2.92h-2.15l-0.12-1.47h-0.06c-0.41,0.68-1.37,1.69-3.12,1.69
				c-1.78,0-3.39-1.07-3.39-4.25v-5.71h2.46v5.3c0,1.62,0.51,2.65,1.82,2.65c0.99,0,1.63-0.69,1.88-1.32
				c0.08-0.21,0.13-0.48,0.13-0.76v-5.88h2.46V108.46z"/>
			<path d="M630.11,97.18h2.46v14.2h-2.46V97.18z"/>
			<path d="M638.06,98.85v2.79h2.34v1.83h-2.34v4.3c0,1.19,0.32,1.8,1.26,1.8c0.42,0,0.74-0.05,0.96-0.11l0.05,1.87
				c-0.37,0.14-1.02,0.25-1.79,0.25c-0.91,0-1.66-0.31-2.12-0.8c-0.53-0.56-0.77-1.46-0.77-2.73v-4.58h-1.39v-1.83h1.39v-2.21
				L638.06,98.85z"/>
			<path d="M644.87,98.92c0,0.74-0.53,1.33-1.4,1.33c-0.82,0-1.35-0.59-1.35-1.33c0-0.75,0.55-1.33,1.38-1.33
				C644.34,97.58,644.87,98.16,644.87,98.92z M642.27,111.38v-9.74h2.46v9.74H642.27z"/>
			<path d="M647.39,104.54c0-1.12-0.04-2.05-0.08-2.9h2.1l0.11,1.43h0.06c0.47-0.76,1.36-1.65,3-1.65c1.29,0,2.28,0.72,2.7,1.8h0.04
				c0.34-0.53,0.75-0.94,1.19-1.22c0.55-0.37,1.17-0.57,1.98-0.57c1.61,0,3.25,1.1,3.25,4.23v5.73h-2.4v-5.39
				c0-1.62-0.56-2.58-1.74-2.58c-0.84,0-1.46,0.59-1.71,1.3c-0.08,0.24-0.12,0.55-0.12,0.82v5.84h-2.4v-5.63
				c0-1.37-0.55-2.33-1.68-2.33c-0.92,0-1.54,0.72-1.77,1.39c-0.09,0.25-0.12,0.54-0.12,0.81v5.76h-2.4V104.54z"/>
			<path d="M669.82,111.38l-0.17-1.08h-0.06c-0.59,0.77-1.61,1.31-2.87,1.31c-1.98,0-3.07-1.41-3.07-2.9c0-2.46,2.19-3.7,5.78-3.69
				v-0.16c0-0.64-0.25-1.7-1.98-1.7c-0.95,0-1.96,0.31-2.62,0.73l-0.49-1.6c0.74-0.45,2-0.86,3.53-0.86c3.12,0,4.02,1.97,4.02,4.11
				v3.51c0,0.89,0.04,1.74,0.15,2.35H669.82z M669.5,106.61c-1.74-0.02-3.4,0.34-3.4,1.83c0,0.95,0.63,1.4,1.4,1.4
				c0.98,0,1.69-0.63,1.93-1.35c0.05-0.17,0.07-0.36,0.07-0.54V106.61z"/>
			<path d="M677.32,98.85v2.79h2.34v1.83h-2.34v4.3c0,1.19,0.32,1.8,1.26,1.8c0.42,0,0.74-0.05,0.96-0.11l0.05,1.87
				c-0.37,0.14-1.02,0.25-1.79,0.25c-0.9,0-1.66-0.31-2.12-0.8c-0.53-0.56-0.77-1.46-0.77-2.73v-4.58h-1.39v-1.83h1.39v-2.21
				L677.32,98.85z"/>
			<path d="M683.26,107.19c0.07,1.77,1.43,2.54,3.01,2.54c1.13,0,1.94-0.18,2.69-0.45l0.37,1.7c-0.83,0.35-1.99,0.62-3.4,0.62
				c-3.16,0-5.01-1.95-5.01-4.94c0-2.69,1.63-5.23,4.76-5.23c3.17,0,4.2,2.6,4.2,4.74c0,0.46-0.04,0.82-0.09,1.03H683.26z
				 M687.54,105.48c0.01-0.9-0.38-2.37-2.03-2.37c-1.52,0-2.15,1.38-2.26,2.37H687.54z"/>
			<path d="M698.8,98.85v2.79h2.34v1.83h-2.34v4.3c0,1.19,0.32,1.8,1.26,1.8c0.42,0,0.74-0.05,0.96-0.11l0.05,1.87
				c-0.37,0.14-1.02,0.25-1.79,0.25c-0.91,0-1.66-0.31-2.12-0.8c-0.53-0.56-0.77-1.46-0.77-2.73v-4.58H695v-1.83h1.39v-2.21
				L698.8,98.85z"/>
			<path d="M705.61,98.92c0,0.74-0.53,1.33-1.4,1.33c-0.82,0-1.35-0.59-1.35-1.33c0-0.75,0.55-1.33,1.38-1.33
				C705.08,97.58,705.6,98.16,705.61,98.92z M703,111.38v-9.74h2.46v9.74H703z"/>
			<path d="M715.27,111.09c-0.51,0.24-1.53,0.5-2.75,0.5c-3.05,0-5.02-1.96-5.02-4.98c0-2.92,1.99-5.18,5.42-5.18
				c0.91,0,1.82,0.2,2.38,0.44l-0.44,1.85c-0.4-0.19-0.99-0.38-1.86-0.38c-1.88,0-2.99,1.37-2.98,3.16c0,2,1.31,3.14,2.99,3.14
				c0.84,0,1.45-0.18,1.93-0.38L715.27,111.09z"/>
			<path d="M719.56,105.91h0.04c0.23-0.38,0.51-0.79,0.77-1.14l2.38-3.13h2.96l-3.61,3.98l4.12,5.76h-3.02l-2.8-4.3l-0.83,0.99v3.32
				h-2.46v-14.2h2.46V105.91z"/>
			<path d="M729.02,107.19c0.07,1.77,1.43,2.54,3.01,2.54c1.13,0,1.94-0.18,2.69-0.45l0.37,1.7c-0.83,0.35-1.99,0.62-3.4,0.62
				c-3.16,0-5.01-1.95-5.01-4.94c0-2.69,1.63-5.23,4.76-5.23c3.17,0,4.2,2.6,4.2,4.74c0,0.46-0.04,0.82-0.09,1.03H729.02z
				 M733.3,105.48c0.01-0.9-0.38-2.37-2.03-2.37c-1.52,0-2.15,1.38-2.26,2.37H733.3z"/>
			<path d="M740.42,98.85v2.79h2.34v1.83h-2.34v4.3c0,1.19,0.32,1.8,1.26,1.8c0.42,0,0.74-0.05,0.96-0.11l0.05,1.87
				c-0.37,0.14-1.02,0.25-1.79,0.25c-0.9,0-1.66-0.31-2.12-0.8c-0.53-0.56-0.77-1.46-0.77-2.73v-4.58h-1.39v-1.83h1.39v-2.21
				L740.42,98.85z"/>
			<path d="M556,122.85v2.79h2.34v1.83H556v4.3c0,1.19,0.32,1.8,1.26,1.8c0.42,0,0.74-0.05,0.96-0.11l0.05,1.87
				c-0.37,0.14-1.02,0.25-1.79,0.25c-0.91,0-1.66-0.31-2.12-0.8c-0.53-0.56-0.77-1.46-0.77-2.73v-4.58h-1.39v-1.83h1.39v-2.21
				L556,122.85z"/>
			<path d="M569.45,130.41c0,3.58-2.51,5.19-5,5.19c-2.75,0-4.87-1.9-4.87-5.02c0-3.19,2.1-5.16,5.04-5.16
				C567.51,125.42,569.45,127.46,569.45,130.41z M562.1,130.52c0,1.87,0.94,3.29,2.42,3.29c1.41,0,2.39-1.36,2.39-3.32
				c0-1.53-0.68-3.28-2.38-3.28C562.81,127.21,562.1,128.9,562.1,130.52z"/>
			<path d="M571.17,134.02c0-0.93,0.63-1.59,1.53-1.59c0.9,0,1.51,0.65,1.52,1.59c0,0.91-0.6,1.58-1.53,1.58
				C571.79,135.6,571.16,134.93,571.17,134.02z"/>
			<path d="M575.89,134.02c0-0.93,0.63-1.59,1.53-1.59c0.9,0,1.51,0.65,1.52,1.59c0,0.91-0.6,1.58-1.53,1.58
				C576.51,135.6,575.88,134.93,575.89,134.02z"/>
			<path d="M581.75,134.34c0-0.74,0.48-1.26,1.18-1.26c0.72,0,1.18,0.52,1.18,1.26c0,0.72-0.46,1.26-1.18,1.26
				C582.23,135.6,581.73,135.06,581.75,134.34z M588.41,134.34c0-0.74,0.5-1.26,1.2-1.26s1.16,0.52,1.18,1.26
				c0,0.72-0.48,1.26-1.2,1.26C588.89,135.6,588.39,135.06,588.41,134.34z M595.07,134.34c0-0.74,0.5-1.26,1.2-1.26
				s1.18,0.52,1.18,1.26c0,0.72-0.46,1.26-1.2,1.26C595.55,135.6,595.07,135.06,595.07,134.34z"/>
			<path d="M609.63,132.46c0,1.16,0.04,2.13,0.08,2.92h-2.15l-0.12-1.47h-0.06c-0.41,0.68-1.37,1.69-3.12,1.69
				c-1.78,0-3.39-1.07-3.39-4.25v-5.71h2.46v5.3c0,1.62,0.51,2.65,1.82,2.65c0.99,0,1.63-0.69,1.88-1.32
				c0.08-0.21,0.13-0.48,0.13-0.76v-5.88h2.46V132.46z"/>
			<path d="M612.3,128.54c0-1.12-0.04-2.05-0.08-2.9h2.15l0.12,1.46h0.06c0.43-0.76,1.49-1.68,3.1-1.68c1.7,0,3.46,1.09,3.46,4.17
				v5.78h-2.46v-5.49c0-1.4-0.51-2.46-1.86-2.46c-0.98,0-1.66,0.69-1.92,1.44c-0.08,0.2-0.11,0.5-0.11,0.78v5.73h-2.46V128.54z"/>
			<path d="M625.47,131.19c0.07,1.77,1.43,2.54,3.01,2.54c1.13,0,1.94-0.18,2.69-0.45l0.37,1.7c-0.83,0.35-1.99,0.62-3.4,0.62
				c-3.16,0-5.01-1.95-5.01-4.94c0-2.69,1.63-5.23,4.76-5.23c3.17,0,4.2,2.6,4.2,4.74c0,0.46-0.04,0.82-0.09,1.03H625.47z
				 M629.75,129.48c0.01-0.9-0.38-2.37-2.03-2.37c-1.52,0-2.15,1.38-2.26,2.37H629.75z"/>
			<path d="M634.06,128.54c0-1.12-0.04-2.05-0.08-2.9h2.1l0.11,1.43h0.06c0.47-0.76,1.36-1.65,3-1.65c1.29,0,2.28,0.72,2.7,1.8h0.04
				c0.34-0.53,0.75-0.94,1.19-1.22c0.55-0.37,1.17-0.57,1.98-0.57c1.61,0,3.25,1.1,3.25,4.23v5.73h-2.4v-5.39
				c0-1.62-0.56-2.58-1.74-2.58c-0.84,0-1.46,0.59-1.71,1.3c-0.08,0.24-0.12,0.55-0.12,0.82v5.84h-2.4v-5.63
				c0-1.37-0.55-2.33-1.68-2.33c-0.92,0-1.54,0.72-1.77,1.39c-0.09,0.25-0.12,0.54-0.12,0.81v5.76h-2.4V128.54z"/>
			<path d="M651.01,128.87c0-1.26-0.04-2.31-0.08-3.23h2.16l0.12,1.5h0.04c0.72-1.1,1.85-1.72,3.34-1.72c2.23,0,4.08,1.91,4.08,4.95
				c0,3.53-2.21,5.23-4.43,5.23c-1.22,0-2.24-0.51-2.74-1.3h-0.04v5.04h-2.46V128.87z M653.48,131.3c0,0.24,0.02,0.46,0.07,0.67
				c0.25,1,1.12,1.72,2.16,1.72c1.56,0,2.48-1.3,2.48-3.21c0-1.73-0.84-3.13-2.42-3.13c-1.01,0-1.95,0.74-2.2,1.82
				c-0.05,0.2-0.09,0.42-0.09,0.62V131.3z"/>
			<path d="M662.72,121.18h2.46v14.2h-2.46V121.18z"/>
			<path d="M677.11,130.41c0,3.58-2.51,5.19-5,5.19c-2.75,0-4.87-1.9-4.87-5.02c0-3.19,2.1-5.16,5.04-5.16
				C675.17,125.42,677.11,127.46,677.11,130.41z M669.76,130.52c0,1.87,0.94,3.29,2.42,3.29c1.41,0,2.39-1.36,2.39-3.32
				c0-1.53-0.68-3.28-2.38-3.28C670.47,127.21,669.76,128.9,669.76,130.52z"/>
			<path d="M680.67,125.64l1.76,5.22c0.19,0.6,0.41,1.35,0.55,1.89h0.06c0.15-0.55,0.33-1.28,0.52-1.91l1.53-5.2h2.63l-2.44,6.65
				c-1.34,3.64-2.24,5.25-3.39,6.26c-0.97,0.84-1.97,1.16-2.58,1.25l-0.56-2.07c0.41-0.1,0.93-0.32,1.42-0.67
				c0.47-0.31,1.01-0.88,1.35-1.55c0.1-0.17,0.15-0.31,0.15-0.43c0-0.11-0.03-0.25-0.13-0.48l-3.58-8.94H680.67z"/>
			<path d="M689.14,128.54c0-1.12-0.04-2.05-0.08-2.9h2.1l0.11,1.43h0.06c0.47-0.76,1.36-1.65,3-1.65c1.29,0,2.28,0.72,2.7,1.8h0.04
				c0.34-0.53,0.75-0.94,1.19-1.22c0.55-0.37,1.17-0.57,1.98-0.57c1.61,0,3.25,1.1,3.25,4.23v5.73h-2.4v-5.39
				c0-1.62-0.56-2.58-1.74-2.58c-0.84,0-1.46,0.59-1.71,1.3c-0.08,0.24-0.12,0.55-0.12,0.82v5.84h-2.4v-5.63
				c0-1.37-0.55-2.33-1.68-2.33c-0.92,0-1.54,0.72-1.77,1.39c-0.09,0.25-0.12,0.54-0.12,0.81v5.76h-2.4V128.54z"/>
			<path d="M707.83,131.19c0.07,1.77,1.43,2.54,3.01,2.54c1.13,0,1.94-0.18,2.69-0.45l0.37,1.7c-0.83,0.35-1.99,0.62-3.4,0.62
				c-3.16,0-5.01-1.95-5.01-4.94c0-2.69,1.63-5.23,4.76-5.23c3.17,0,4.2,2.6,4.2,4.74c0,0.46-0.04,0.82-0.09,1.03H707.83z
				 M712.11,129.48c0.01-0.9-0.38-2.37-2.03-2.37c-1.52,0-2.15,1.38-2.26,2.37H712.11z"/>
			<path d="M716.42,128.54c0-1.12-0.04-2.05-0.08-2.9h2.15l0.12,1.46h0.06c0.43-0.76,1.49-1.68,3.1-1.68c1.7,0,3.46,1.09,3.46,4.17
				v5.78h-2.46v-5.49c0-1.4-0.51-2.46-1.86-2.46c-0.98,0-1.66,0.69-1.92,1.44c-0.08,0.2-0.11,0.5-0.11,0.78v5.73h-2.46V128.54z"/>
			<path d="M730.67,122.85v2.79h2.34v1.83h-2.34v4.3c0,1.19,0.32,1.8,1.26,1.8c0.42,0,0.74-0.05,0.96-0.11l0.05,1.87
				c-0.37,0.14-1.02,0.25-1.79,0.25c-0.91,0-1.66-0.31-2.12-0.8c-0.53-0.56-0.77-1.46-0.77-2.73v-4.58h-1.39v-1.83h1.39v-2.21
				L730.67,122.85z"/>
		</g>
	</g>
	<g>
		<g>
			<path d="M-69.48-74.2h2.46v11.42h5.54v2.07h-8.01V-74.2z"/>
			<path d="M-50.45-65.69c0,3.58-2.51,5.19-5,5.19c-2.75,0-4.87-1.9-4.87-5.02c0-3.19,2.1-5.16,5.04-5.16
				C-52.39-70.68-50.45-68.64-50.45-65.69z M-57.8-65.58c0,1.87,0.94,3.29,2.42,3.29c1.41,0,2.39-1.36,2.39-3.32
				c0-1.53-0.68-3.28-2.38-3.28C-57.09-68.89-57.8-67.2-57.8-65.58z"/>
			<path d="M-48.43-67.33c0-1.3-0.03-2.26-0.08-3.13h2.13l0.09,1.85h0.07c0.48-1.37,1.62-2.07,2.67-2.07c0.24,0,0.38,0.01,0.58,0.05
				v2.32c-0.21-0.04-0.42-0.07-0.72-0.07c-1.17,0-1.99,0.75-2.21,1.86c-0.04,0.22-0.06,0.48-0.06,0.74v5.05h-2.46V-67.33z"/>
			<path d="M-39.57-64.91c0.07,1.77,1.43,2.54,3.01,2.54c1.13,0,1.94-0.18,2.69-0.45l0.36,1.7c-0.83,0.35-1.99,0.62-3.4,0.62
				c-3.16,0-5.01-1.95-5.01-4.94c0-2.69,1.63-5.23,4.76-5.23c3.17,0,4.2,2.6,4.2,4.74c0,0.46-0.04,0.82-0.09,1.03H-39.57z
				 M-35.29-66.63c0.01-0.9-0.38-2.37-2.03-2.37c-1.52,0-2.15,1.38-2.26,2.37H-35.29z"/>
			<path d="M-30.98-67.56c0-1.12-0.04-2.05-0.08-2.9h2.1l0.11,1.43h0.06c0.47-0.76,1.36-1.65,3-1.65c1.29,0,2.28,0.72,2.7,1.8h0.04
				c0.34-0.53,0.75-0.94,1.19-1.22c0.55-0.37,1.17-0.57,1.98-0.57c1.61,0,3.25,1.1,3.25,4.23v5.73h-2.4v-5.39
				c0-1.62-0.56-2.58-1.74-2.58c-0.84,0-1.46,0.59-1.71,1.3c-0.08,0.24-0.12,0.55-0.12,0.82v5.84h-2.4v-5.63
				c0-1.37-0.55-2.33-1.68-2.33c-0.92,0-1.54,0.72-1.77,1.39c-0.09,0.25-0.12,0.54-0.12,0.81v5.76h-2.4V-67.56z"/>
			<path d="M-7.34-74.2v13.48H-9.8V-74.2H-7.34z"/>
			<path d="M-4.61-67.23c0-1.26-0.04-2.31-0.08-3.23h2.16l0.12,1.5h0.04c0.72-1.1,1.85-1.72,3.34-1.72c2.23,0,4.09,1.91,4.09,4.95
				c0,3.53-2.21,5.23-4.43,5.23c-1.23,0-2.24-0.51-2.74-1.3h-0.04v5.04h-2.46V-67.23z M-2.15-64.8c0,0.24,0.02,0.46,0.07,0.67
				c0.25,1,1.12,1.72,2.16,1.72c1.56,0,2.48-1.3,2.48-3.21c0-1.73-0.84-3.13-2.42-3.13c-1.01,0-1.95,0.74-2.2,1.82
				c-0.05,0.2-0.09,0.42-0.09,0.62V-64.8z"/>
			<path d="M6.98-62.99c0.54,0.34,1.6,0.71,2.48,0.71c1.08,0,1.57-0.45,1.57-1.09c0-0.66-0.4-0.99-1.6-1.42
				c-1.91-0.65-2.7-1.69-2.69-2.84c0-1.71,1.42-3.05,3.7-3.05c1.07,0,2.01,0.27,2.58,0.58l-0.49,1.73c-0.41-0.23-1.2-0.56-2.06-0.56
				c-0.88,0-1.36,0.43-1.36,1.03c0,0.62,0.47,0.92,1.7,1.36c1.77,0.63,2.59,1.53,2.6,2.97c0,1.78-1.38,3.06-3.96,3.06
				c-1.18,0-2.25-0.28-2.97-0.68L6.98-62.99z"/>
			<path d="M24.15-63.64c0,1.16,0.04,2.13,0.08,2.92h-2.15l-0.12-1.47H21.9c-0.41,0.68-1.37,1.69-3.12,1.69
				c-1.78,0-3.39-1.07-3.39-4.25v-5.71h2.46v5.3c0,1.62,0.51,2.65,1.82,2.65c0.99,0,1.63-0.69,1.88-1.32
				c0.08-0.21,0.13-0.48,0.13-0.76v-5.88h2.46V-63.64z"/>
			<path d="M26.82-67.56c0-1.12-0.04-2.05-0.08-2.9h2.1l0.11,1.43h0.06c0.47-0.76,1.36-1.65,3-1.65c1.29,0,2.28,0.72,2.7,1.8h0.04
				c0.34-0.53,0.75-0.94,1.19-1.22c0.55-0.37,1.17-0.57,1.98-0.57c1.61,0,3.25,1.1,3.25,4.23v5.73h-2.4v-5.39
				c0-1.62-0.56-2.58-1.74-2.58c-0.84,0-1.46,0.59-1.71,1.3c-0.08,0.24-0.12,0.55-0.12,0.82v5.84h-2.4v-5.63
				c0-1.37-0.55-2.33-1.68-2.33c-0.92,0-1.54,0.72-1.77,1.39c-0.09,0.25-0.12,0.54-0.12,0.81v5.76h-2.4V-67.56z"/>
		</g>
	</g>
</g>
<g id="Layer_3">
</g>
</svg>
