<?xml version="1.0" encoding="utf-8"?>
<!-- Generator: Adobe Adobe Illustrator 24.2.0, SVG Export Plug-In . SVG Version: 6.00 Build 0)  -->
<svg version="1.1" id="Layer_1" xmlns="http://www.w3.org/2000/svg" xmlns:xlink="http://www.w3.org/1999/xlink" x="0px" y="0px"
	 viewBox="0 0 800 600" style="enable-background:new 0 0 800 600;" xml:space="preserve">
<style type="text/css">
	.st0{display:none;}
	.st1{display:inline;}
	.st2{fill:#D17346;}
	.st3{fill:#AC584A;}
	.st4{fill:#CF7144;}
	.st5{fill:#EBF6FC;}
	.st6{fill:#CDE2F5;}
	.st7{fill:#B3CBE3;}
	.st8{fill:none;stroke:#000000;stroke-miterlimit:10;}
	.st9{fill:#C2CDEA;}
	.st10{fill:#D6EDA0;}
	.st11{fill:#FFFFFF;}
	.st12{fill:#DDE5F5;}
	.st13{fill:#C7D29F;}
	.st14{fill:#B491CA;}
	.st15{fill:#353642;}
	.st16{fill:#4F352A;}
	.st17{fill:#281A14;}
	.st18{fill:#FCE6C5;stroke:#000000;stroke-miterlimit:10;}
	.st19{fill:#C06354;stroke:#000000;stroke-miterlimit:10;}
	.st20{fill:#AF6A5A;stroke:#000000;stroke-miterlimit:10;}
	.st21{fill:#CF856A;}
	.st22{fill:#E9EAF6;stroke:#000000;stroke-miterlimit:10;}
	.st23{fill:#CF856A;stroke:#000000;stroke-miterlimit:10;}
	.st24{fill:#18253B;stroke:#000000;stroke-miterlimit:10;}
	.st25{stroke:#000000;stroke-miterlimit:10;}
	.st26{fill:#FFFFFF;stroke:#000000;stroke-miterlimit:10;}
	.st27{fill:none;stroke:#F4D8B3;stroke-miterlimit:10;}
	.st28{fill:#F4D8B3;}
	.st29{fill:#B9009F;stroke:#000000;stroke-miterlimit:10;}
</style>
<g id="Layer_1_1_" class="st0">
	<g class="st1">
		<g>
			<path class="st2" d="M549.52,545.82c0.8-15.21,3.53-30.4,8.79-44.72c2.04-5.57,4.38-11.01,6.22-16.67
				c2.8-8.63,5.05-17.41,7.14-26.23c2.25-9.51,4.42-19.04,6.4-28.62c0.39-1.88-2.5-2.69-2.89-0.8c-1.73,8.37-3.61,16.71-5.56,25.03
				c-2.11,9.03-4.32,18.03-7.06,26.89c-1.89,6.11-4.25,11.99-6.53,17.95c-2.27,5.94-4.08,12.05-5.52,18.24
				c-2.2,9.49-3.48,19.19-3.99,28.91C546.42,547.75,549.42,547.75,549.52,545.82L549.52,545.82z"/>
		</g>
	</g>
	<g class="st1">
		<g>
			<path class="st2" d="M528.23,356.99c2.39,2.8,4.79,5.61,7.39,8.23c1.25,1.26,2.59,2.42,3.84,3.68c1.25,1.26,2.25,2.67,3.31,4.09
				c2.11,2.82,4.58,5.3,7.08,7.77c2.58,2.55,4.99,5.2,7.31,7.98c1.24,1.48,3.35-0.65,2.12-2.12c-2.32-2.78-4.73-5.44-7.31-7.98
				c-2.53-2.49-5.03-4.99-7.13-7.86c-1.02-1.4-2.04-2.76-3.26-3.99c-1.25-1.26-2.59-2.43-3.84-3.68c-2.6-2.61-5-5.42-7.39-8.23
				C529.1,353.39,526.98,355.52,528.23,356.99L528.23,356.99z"/>
		</g>
	</g>
	<g class="st1">
		<g>
			<path class="st2" d="M534.06,354.39c0.84,1.48,1.71,2.96,2.92,4.18c1.17,1.19,2.45,2.22,3.53,3.51c2.27,2.72,4.12,5.72,6.7,8.18
				c2.6,2.48,5.55,4.57,8.44,6.7c3.22,2.38,6.45,4.77,9.67,7.15c1.55,1.15,3.05-1.45,1.51-2.59c-3.03-2.24-6.05-4.48-9.08-6.71
				c-2.88-2.13-5.83-4.19-8.42-6.67c-2.42-2.31-4.21-5.09-6.3-7.69c-1.02-1.27-2.15-2.36-3.35-3.45c-1.3-1.19-2.17-2.6-3.03-4.13
				C535.7,351.2,533.1,352.71,534.06,354.39L534.06,354.39z"/>
		</g>
	</g>
	<g class="st1">
		<g>
			<path class="st2" d="M574.11,373.6c1.86,1.22,3.77,2.39,5.58,3.68c0.75,0.53,1.44,1.13,2.11,1.84c0.75,0.79,1.46,1.56,2.34,2.21
				c0.65,0.48,1.68,0.11,2.05-0.54c0.45-0.76,0.11-1.57-0.54-2.05c-0.16-0.12-0.62-0.56-0.87-0.82c-0.35-0.36-0.68-0.74-1.03-1.1
				c-0.77-0.8-1.64-1.48-2.54-2.12c-1.82-1.29-3.72-2.46-5.58-3.68c-0.68-0.44-1.66-0.14-2.05,0.54
				C573.14,372.28,573.43,373.16,574.11,373.6L574.11,373.6z"/>
		</g>
	</g>
	<g class="st1">
		<g>
			<path class="st2" d="M528.22,357.36c2.82,7.15,6.17,14.09,10.1,20.7c1.97,3.31,4.07,6.54,6.31,9.68
				c1.11,1.55,2.25,3.08,3.41,4.59c1.09,1.41,2.14,2.86,3.75,3.71c1.7,0.91,3.22-1.68,1.51-2.59c-1.54-0.82-2.56-2.47-3.59-3.82
				c-1.08-1.42-2.12-2.85-3.14-4.31c-2.08-2.97-4.05-6.03-5.89-9.15c-3.7-6.27-6.91-12.83-9.58-19.6
				C530.41,354.78,527.51,355.56,528.22,357.36L528.22,357.36z"/>
		</g>
	</g>
	<g class="st1">
		<g>
			<path class="st2" d="M578.18,427.66c-1.55-3.41-3.8-6.49-6.6-8.98c-1.58-1.4-3.26-2.66-4.74-4.17c-1.37-1.4-2.66-2.88-4.16-4.14
				c-2.96-2.48-6.04-4.4-7.8-7.97c-1.9-3.87-3.46-7.94-5.16-11.9c-0.76-1.77-3.35-0.24-2.59,1.51c1.68,3.9,3.23,7.88,5.07,11.7
				c1.76,3.65,4.65,5.8,7.73,8.26c1.53,1.22,2.85,2.61,4.19,4.03c1.4,1.48,2.93,2.76,4.49,4.07c3.01,2.53,5.36,5.53,6.99,9.11
				C576.39,430.93,578.97,429.4,578.18,427.66L578.18,427.66z"/>
		</g>
	</g>
	<g class="st1">
		<g>
			<path class="st2" d="M528.76,370.68c-1.35-3.39-3.69-6.1-6.02-8.85c-1.12-1.33-2.21-2.68-3.11-4.17
				c-0.78-1.3-1.88-3.22-1.67-4.79c-0.07,0.25-0.14,0.5-0.2,0.76c-0.18,0.07-0.09,0.04,0.26-0.07c0.15-0.05,0.31-0.08,0.47-0.09
				c0.37-0.04,0.73-0.02,1.09,0.05c1.89,0.36,2.69-2.53,0.8-2.89c-2.35-0.45-5.83,0.11-5.36,3.22c0.35,2.31,1.42,4.48,2.73,6.4
				c2.58,3.8,6.41,6.89,8.14,11.23c0.3,0.75,1,1.28,1.85,1.05C528.43,372.33,529.06,371.44,528.76,370.68L528.76,370.68z"/>
		</g>
	</g>
	<g class="st1">
		<g>
			<path class="st2" d="M512.37,524.04c1.06-5.1,2.13-10.23,3.91-15.14c1.81-5,4.46-9.73,6.81-14.49c0.85-1.73-1.74-3.25-2.59-1.51
				c-2.39,4.87-5.06,9.68-6.95,14.77c-1.87,5.04-2.97,10.32-4.07,15.57C509.08,525.13,511.97,525.94,512.37,524.04L512.37,524.04z"
				/>
		</g>
	</g>
	<g class="st1">
		<g>
			<path class="st3" d="M637.13,510.89c5.89,1.51,12.12,3.07,16.93,7c0.63,0.51,1.51,0.61,2.12,0c0.53-0.53,0.63-1.61,0-2.12
				c-5.26-4.29-11.8-6.12-18.26-7.77C636.05,507.51,635.26,510.41,637.13,510.89L637.13,510.89z"/>
		</g>
	</g>
	<g class="st1">
		<g>
			<path class="st3" d="M658.25,515.77c4.71-16.26,9.41-32.53,14.12-48.79c4.38-15.12,9.2-31.17,5.44-46.96
				c-1.86-7.79-5.71-15.01-11.02-20.98c-1.29-1.45-3.4,0.68-2.12,2.12c4.65,5.22,8.05,11.49,9.89,18.24
				c2,7.34,1.97,15.07,0.85,22.56c-1.16,7.74-3.33,15.29-5.51,22.79c-2.26,7.81-4.52,15.63-6.78,23.44
				c-2.58,8.93-5.17,17.86-7.75,26.79C654.81,516.83,657.71,517.63,658.25,515.77L658.25,515.77z"/>
		</g>
	</g>
	<g class="st1">
		<g>
			<path class="st3" d="M606.77,440.32c3.65-8,8.66-15.28,14.28-22.02c2.79-3.35,5.72-6.59,8.71-9.77c3.12-3.31,6.36-6.59,10.17-9.1
				c4.16-2.74,8.94-4.47,13.97-4.1c1.93,0.14,1.92-2.86,0-3c-9.59-0.71-17.71,5.33-24.09,11.82c-6.46,6.56-12.6,13.57-17.86,21.14
				c-2.97,4.28-5.61,8.78-7.77,13.52C603.39,440.55,605.97,442.08,606.77,440.32L606.77,440.32z"/>
		</g>
	</g>
	<g class="st1">
		<g>
			<path class="st3" d="M621.06,577.81c17.96-2.85,36.07-4.75,54.23-5.71c5.17-0.27,10.34-0.46,15.51-0.58c1.93-0.04,1.93-3.04,0-3
				c-18.4,0.42-36.77,1.8-55.02,4.16c-5.18,0.67-10.36,1.41-15.52,2.23C618.36,575.21,619.16,578.11,621.06,577.81L621.06,577.81z"
				/>
		</g>
	</g>
	<g class="st1">
		<g>
			<path class="st4" d="M606.08,319.57c-2.06-0.28-4.48-0.14-5.66,1.87c-1.08,1.85-0.31,3.98,0.46,5.77c1.5,3.5,3.63,6.69,6.71,8.98
				c0.65,0.48,1.68,0.11,2.05-0.54c0.45-0.76,0.11-1.57-0.54-2.05c-2.28-1.69-3.87-4.15-5.08-6.68c-0.49-1.02-1.27-2.38-1.15-3.55
				c0.15-1.37,2.33-0.92,3.2-0.8c0.8,0.11,1.5-0.77,1.5-1.5C607.58,320.17,606.89,319.68,606.08,319.57L606.08,319.57z"/>
		</g>
	</g>
	<g class="st1">
		<g>
			<path class="st4" d="M604,327.7c1.21,0.05,2.42-0.06,3.61-0.27c0.35-0.06,0.72-0.39,0.9-0.69c0.19-0.32,0.27-0.8,0.15-1.16
				c-0.12-0.36-0.34-0.71-0.69-0.9c-0.37-0.2-0.74-0.23-1.16-0.15c-0.22,0.04-0.45,0.08-0.67,0.11c0.13-0.02,0.27-0.04,0.4-0.05
				c-0.84,0.11-1.69,0.15-2.54,0.11c-0.78-0.03-1.54,0.71-1.5,1.5C602.54,327.04,603.16,327.66,604,327.7L604,327.7z"/>
		</g>
	</g>
</g>
<g id="Layer_2_1_">
	<polygon class="st5" points="531,157 535,363 754.36,363 754.36,157 	"/>
	<polygon class="st6" points="543.5,166.5 543.5,240.56 543.5,347.92 747.3,347.92 747.3,166.5 	"/>
	<polygon class="st6" points="590.6,219.62 596.78,219.62 596.78,238.12 590.6,240.56 	"/>
	<path class="st7" d="M656.06,240.56v-50.89c14.6-4.59,22.82-2.35,30.93,0v52.06L656.06,240.56z"/>
	<path class="st7" d="M696.78,240.56v-50.89c12.71-3.56,22.68-3.56,29.9,0v50.89H696.78z"/>
	<path class="st7" d="M736.47,240.56v-50.89c3.61-3.56,7.22-3.56,10.82,0v52.06L736.47,240.56z"/>
	<path class="st8" d="M656.06,189.67"/>
	<path class="st8" d="M747.3,189.67"/>
	<rect x="45" y="54.1" class="st5" width="46.63" height="86.08"/>
	<polygon class="st5" points="149.5,56.5 149.5,138.12 249.36,138.12 249.5,54.5 	"/>
	<polygon class="st5" points="256.06,54.5 357.61,54.5 357.61,134.52 256.06,138.12 	"/>
	<polygon class="st5" points="363.5,54.5 450.39,54.5 444.5,131.5 363.5,131.5 	"/>
	<rect x="222.5" y="127.5" class="st9" width="20.16" height="7.02"/>
	<path class="st10" d="M60.5,309.5c2.93-7.81,6.48-19.36,8.14-33.79c0.42-3.7,0.57-6.54,0.86-12.21c1.03-19.66,1.47-29.71-2-40
		c-1.32-3.93-5.38-15.95-11-16c-5.67-0.05-9.94,12.13-12,18c-1.12,3.2-5.61,16.7-4,38c0.99,13.13,3.27,15.47,4,27
		c0.14,2.18,0.56,9.97,2.98,19.93c0,0.02,0.01,0.05,0.02,0.07c0,0,3.87,1.16,7,1c5.3-0.27,7.54-36.42,22-42c0.57-0.22,4.1-1.58,6,0
		c1.98,1.65,1.09,5.61-2,16c-5.9,19.85-7.75,22.64-11,24C67.81,310.21,64.91,310.86,60.5,309.5z"/>
	<polygon class="st11" points="596.78,154.1 597,92 611,90 611.73,154.1 	"/>
	<rect x="619.5" y="81.5" class="st11" width="15.43" height="72.6"/>
	<polygon class="st5" points="679.77,81.5 634.93,81.5 634.93,154.1 645.4,154.1 645.4,97.14 661.22,97.14 660.7,90.5 679.77,90.5 	
		"/>
	<polygon class="st11" points="657.35,154.1 656.06,97.14 645.4,97.14 645.4,154.1 	"/>
	<polygon class="st11" points="675.13,154.1 675.13,90.5 660.7,90.5 662.76,154.1 	"/>
	<rect x="675.13" y="90.5" class="st5" width="40.21" height="63.6"/>
	<polyline class="st5" points="617.4,90.5 611.73,90.5 611.73,154.1 619.5,154.1 	"/>
	<ellipse class="st7" cx="604.5" cy="121.5" rx="3" ry="10"/>
	<ellipse class="st7" cx="627.5" cy="92" rx="3" ry="1.5"/>
	<ellipse class="st7" cx="650.5" cy="122.5" rx="3" ry="16"/>
	<rect x="686.5" y="106.5" class="st7" width="21" height="34"/>
	<rect x="44.5" y="311.5" class="st12" width="39" height="22"/>
	<rect x="211.5" y="359.5" class="st12" width="543" height="25"/>
	<rect x="123.5" y="279.5" class="st6" width="67" height="54"/>
	<polygon class="st5" points="346.5,556.5 44.5,556.5 44.5,333.5 346.5,333.5 346.5,540.19 	"/>
	<rect x="64.5" y="127.5" class="st9" width="22" height="7"/>
	<path class="st13" d="M50.5,310.5c2.29-15.77,4.11-33.18,5-52c0.87-18.35,0.74-35.42,0-51"/>
	<polygon class="st7" points="747.3,241.73 543.5,240.56 543.5,247.61 747.3,247.61 	"/>
</g>
<g id="Layer_4">
	<path class="st14" d="M158.61,285.98c2.03,0.49,5.15,1.23,9,2c8.48,1.7,14.1,2.16,25,3c6.63,0.51,10.68,0.65,13-2
		c1.62-1.85,1.46-3.97,2-4c1.54-0.1,5.02,16.96,6,35c1.85,33.93-4.88,75.53-14,76c-5.15,0.26-9.63-12.65-16-31
		c-8.49-24.46-8.04-37.52-18-63C162.84,294.88,160.22,289.29,158.61,285.98z"/>
</g>
<g id="Layer_3">
	<path class="st15" d="M507,521c-4.61-2.2-9.63-5.01-11-10c-1.08-3.93,1.14-5.41,1-9c-0.4-10.62-20.28-11.83-27-26
		c-4.42-9.32-0.88-19.47,0-22c4.56-13.09,14.09-12.15,24-26c11.53-16.11,11.11-34.82,11-40c-0.24-10.8-2.83-10.66-6-28
		c-2.04-11.18-4.96-27.87-2-48c1.25-8.49,3.5-22.8,13-38c4.26-6.81,12.23-19.57,23-23c2.44-0.78,7.82-1.96,16-5
		c2.21-0.82,3.66-1.42,6-2c3.31-0.82,7.25-1.33,13-1c19.22,1.11,31,6,31,6c18.85,7.82,29.34,21.21,33,26c3.69,4.83,7.79,13.22,16,30
		c11.19,22.87,9.96,23.11,14,28c5.91,7.15,7.5,5.41,32,23c7.04,5.06,11.7,8.71,21,16c14.66,11.49,16.9,13.95,19,17
		c2.26,3.28,9.13,13.3,8,26c-0.97,10.88-7.39,18.82-14,27c-7.69,9.51-10.42,8.78-13,15c-3.54,8.54,0.74,11.97,0,27
		c-0.4,8-0.95,19.24-8,27c-6.09,6.7-14.48,8.02-20,9c-34.5,6.13-27.76,11.69-59,16c-18.49,2.55-43.66-0.3-94-6
		C534,530,523.29,528.79,507,521z"/>
	<path class="st16" d="M529.5,337.5L529.5,337.5L529.5,337.5c0.1,0.55,0.34,1.36,1,2c0.87,0.85,2.02,0.94,4,1
		c3.16,0.09,4.74,0.14,6,0c3.53-0.39,5.48-0.61,7-2l0,0c-0.01,0,2.07-1.05,2-2c-0.04-0.58-0.88-0.95-1-1c-0.69-0.3-1.35-0.15-2,0
		c-2.29,0.54-3.43,0.81-4,1c-2,0.67-2.04,0.84-3,1c-0.62,0.1-0.6,0.03-3,0c0,0-1.67,0-5,0c-0.33,0-0.67,0-1,0
		S529.83,337.5,529.5,337.5"/>
	<path class="st17" d="M550.5,354.5c0.18-1.16,0.63-1.71,1-2c0.63-0.5,1.13-0.3,2-1c0.46-0.37,0.93-0.92,1-1
		c0.45-0.53,0.59-0.82,1-1c0.31-0.13,0.8-0.22,1,0c0.14,0.15,0.03,0.34,0,1c-0.03,0.71,0.09,0.72,0,1c-0.11,0.35-0.33,0.4-1,1
		c0,0-0.33,0.33-1,1c-0.33,0.33-0.67,0.67-1,1s-0.67,0.67-1,1"/>
	<path class="st18" d="M516.5,347.5c-1.67-1.6-2.47-3.42-4-7c-2.26-5.27-3.39-7.91-3-10c0.76-4.1,4.23-4.05,6-9
		c1.72-4.81-0.6-7.55,1-9c2.59-2.34,9.93,3.66,20,8c8.71,3.76,15.44,4.54,28,6c15.62,1.82,29.94,1.05,31-3c0.27-1.02-0.39-1.94,0-5
		c0.24-1.92,0.51-3.82,2-5c1.06-0.84,2.27-0.95,3-1c2.81-0.2,5,1.3,6,2c4.32,3.04,7.16,9.09,7,15c-0.06,2.27-0.19,6.76-3,10
		c-0.68,0.79-1.56,1.55-2,3c-0.65,2.16,0.24,3.98,1,6c2.31,6.19,0.5,6.76,3,13c1.04,2.6,2.19,4.6,3,6c0.7,1.22,2.15,3.72,4,6
		c3.97,4.88,6.57,4.7,8,7c4.9,7.85-13.64,28.86-15,28c-0.34-0.21,0.72-1.57,1-5c0.09-1.04,0.26-4.22-1-8c-0.32-0.96-1.35-3.82-4-7
		c-3-3.6-5.76-4.85-9-7c-8.63-5.73-14.34-13.69-16-16c-3.84-5.35-5.14-9.04-8-9c-2.04,0.03-4.17,1.94-5,4s-0.27,4.05,0,5
		c0.73,2.56,2.21,3.77,2,4c-0.41,0.44-5.72-4.02-11-8c-9.35-7.03-14.1-10.54-18-10c-2.35,0.32-5.52,1.69-8,0
		c-1.03-0.7-1.49-1.61-3-2c-1.73-0.45-4,0-4,0l-2,2c1.22,3.84,1,4,1,4c-0.46,0.33-1.95-1.65-5-4
		C519.18,348.94,518.4,349.32,516.5,347.5z"/>
	<path class="st19" d="M522.5,491.5c-1.87-0.14-2.03-2.8-6-6c-2.88-2.32-4.56-2.33-5-4c-0.51-1.95,1.31-3.78,3-6
		c0.03-0.04,2.02-4.03,6-12c6.99-14,14.06-27.97,21-42c0,0,1.13-2.29,4-6c3.95-5.12,5.47-5.08,6-5c1.05,0.17,1.03,0.99,3,3
		c2.76,2.82,4.1,2.53,6,5c0.48,0.62,1.59,2.06,2,4c0.76,3.56-1.26,6.79-2,8c-29.24,47.85-32,54-32,54
		C527.87,485.9,525.31,491.71,522.5,491.5z"/>
	<path class="st19" d="M587.5,480.5c-1.33-0.59-1.71-0.61-2-1c-1.5-2.04,3.81-8.23,6-11c6.91-8.73,9.64-17.37,13-28
		c2.13-6.73,1.25-11.77,4-22c0.53-1.96,1.5-5.36,4-9c2.68-3.9,4.53-4.31,7-7c7.84-8.53,4.83-21.32,9-22c0.53-0.09,0.48,0.14,3,1
		c3.73,1.28,6.51,1.71,8,2c5.01,0.97,17.03,4.5,23,7c6.07,2.55,17.53,7.75,23,19c2.2,4.53,2.64,8.44,3,12
		c2.69,26.42,4.04,39.64,3,57c-0.68,11.4-1.71,17.59-2,33c-0.06,3.4-0.14,7.95,0,14c0.35,14.94,0.61,25.65,4,38
		c3.57,13,10,15.86,8,20c-2.71,5.6-14.94,3.94-32,3c-5.58-0.31-43.38-2.4-78,1c-12.61,1.24-25.33-0.1-38,0
		c-6.88,0.05-16.39,0.16-18-4c-1.13-2.93,2.93-4.72,4-12c0.98-6.65-1.63-10.46,1-13c1.84-1.77,3.99-0.76,6-3
		c2.21-2.47,1.65-5.99,2-6c0.58-0.01-0.98,9.73,3,17c5.61,10.25,20.19,11.83,22,12c14.17,1.35,24.64-7.24,28-10
		c6.72-5.51,7.29-9.15,17-25c15.55-25.37,20.42-26.36,19-32c-3.61-14.31-39-23.96-45-28C591.72,482.97,590.15,481.68,587.5,480.5z"
		/>
	<path class="st18" d="M548.5,547.5c-0.28-0.01,0.18,3.8-2,7c-2.16,3.16-5.8,4.14-9,5c-3.4,0.91-8.41,2.29-13,0
		c-1.6-0.8-2.69-1.78-7-8c-5.87-8.47-8.83-12.78-10-17c-0.58-2.07-1.76-6.48-1-12c0.61-4.45,2-6.15,4-11c5.01-12.17,5.15-23.1,7-23
		c0.45,0.02,0.51,0.68,2,2c1.31,1.16,2.66,1.88,3,2c3.15,1.11,11.38-17.16,22-33c6.24-9.31,10.92-19.59,17-29
		c0.71-1.09,2.09-3.21,2-6c-0.18-5.63-6.15-8.73-13-15c-6.06-5.54-9.08-8.77-12-14c-2.43-4.36-2.55-6.39-6-13
		c-2.36-4.51-4.42-7.78-6-10c-3.39-4.76-8.24-10.31-11-15c-0.61-1.03-1.77-3.14-2-6c-0.05-0.57-0.39-1.35,0-2
		c0.67-1.11,2.66-1.02,3-1c5.32,0.25,8.49,8.86,11,8c0.35-0.12,0.88-0.48,1-1c0.2-0.84-0.81-1.46-1-3c-0.05-0.36-0.12-0.67,0-1
		c0.2-0.58,0.75-0.87,1-1c0.47-0.25,0.98-0.31,3,0c2.48,0.37,2.89,0.65,3,1c0.11,0.33-0.14,0.51,0,1c0.18,0.63,0.8,1.11,1,1
		c0.19-0.11-0.1-0.69,0-1c0.4-1.22,7.8-0.16,12,1c16.52,4.55,26.98,20.88,28,20c0.23-0.2-0.18-1.13-1-3c-0.77-1.75-1.18-2.11-2-4
		c-0.49-1.13-0.81-1.89-1-3c-0.17-1.01-0.33-1.94,0-3c0.41-1.33,1.6-2.92,3-3c1.35-0.08,2.45,1.29,3,2c6.09,7.81,10.8,14.12,15,18
		c2.3,2.12,4.86,3.9,5,4c2.26,1.56,3.2,1.72,5,3c2.59,1.84,4.13,3.85,5,5c1.26,1.66,4.83,6.4,5,13c0.06,2.32-0.32,4.02-1,7
		c-0.9,4-1.99,6.34-3,9c-1.26,3.3-2.17,7.2-4,15c-2.56,10.93-1.65,9.83-3,14c-2,6.19-4.6,10.43-8,16c-4.16,6.81-10.97,10.9-10,14
		c0.59,1.89,2,3,2,3c0.88,0.7,1.76,0.93,2,1c4.55,1.3,16.87,10.25,34,17c0,0,8.98,3.54,12,8c1.64,2.43,2,5,2,5s0.2,1.46,0,3
		c-0.84,6.4-19.93,33.48-25,41c-5.09,7.56-7.06,11.72-13,16c-6.51,4.69-12.61,5.77-14,6c-4.11,0.67-7.25,0.31-10,0
		c-5.12-0.58-11.46-1.3-17-6c-2.99-2.54-4.57-5.23-5-6C546.8,557.13,548.94,547.52,548.5,547.5z"/>
	<path class="st20" d="M165.5,265.5c-2.4,1.39-9.14-5.91-12-9c-4.08-4.42-4.41-5.83-8-10c-6.92-8.04-9.19-6.86-13-12
		c-4.53-6.1-7.54-16.15-4-25c1.44-3.59,5.83-11.67,11-12c0.72-0.05,2.3,0,3-1c0.93-1.33-0.45-3.55-1-5c-1.89-4.94,1.94-10.83,4-14
		c5.12-7.88,15.61-13.21,25-12c2.56,0.33,1.6,0.7,19,8c8.04,3.37,9.28,3.73,11,4c4.21,0.67,6.04,0.03,17,0c6.45-0.02,7.64,0.2,9,1
		c4.31,2.54,5.41,8.02,6,11c0.46,2.28,1.34,7.08-1,12c-1.09,2.3-3.76,6.44-6,6c-1.71-0.34-2.5-3.24-4-9c-1.85-7.1-1.31-8.88-3-10
		c-3.04-2.01-8.88,1.05-12,4c-2.59,2.44-3.68,5.15-4,6c-1.92,5.13,0.4,7.19-1,11c-1.29,3.52-4.86,5.35-12,9
		c-7.36,3.77-10.27,3.68-12,7c-0.29,0.55-0.06,0.27-1,8c0,0-0.31,2.57-2,11c-0.39,1.96-0.61,2.98-1,3c-1.1,0.06-0.31-8.2-5-12
		c-4.47-3.62-11.45-1.2-12-1c-1.86,0.67-5.83,2.11-7,6c-0.84,2.82-0.03,6.28,2,8c1.2,1.02,1.76,0.52,4,2c2.52,1.66,2.36,2.66,4,3
		c1.46,0.31,3.92,0,4.71-0.84c0.04-0.05,0.15-0.17,0.29-0.16c0.35,0.02,0.69,0.85,1,3C166.37,261.46,166.85,264.72,165.5,265.5z"/>
	<path class="st20" d="M166.5,289.5c-1.51-2.03-1.36-6.04-1-14c0.37-8.29,1.1-9.77,2-10c0.93-0.24,1.79,0.89,3,2
		c2.22,2.03,5.82,3.02,13,5c7.02,1.94,10.53,2.9,14,3c5.33,0.15,8.65-0.94,10,1c0.71,1.01,0.21,1.9,0,6c-0.27,5.29,0.45,5.65,0,7
		c-2.52,7.46-27.56,4.31-30,4C170.08,292.56,167.86,291.33,166.5,289.5z"/>
	<path class="st8" d="M225.5,209.5c-0.72,3.3,7,20,7,20c0.96,2.07,4.41,9.88,5,20c0.48,8.21-1.29,11.74-2,13
		c-1.82,3.24-3.39,6.79-9,8c-1.15,0.25-11.71,3.09-18,6c-0.8,0.37-0.84-1.39-2-2c-1.84-0.96-3.88-0.28-5,0c-1.4,0.35-4.27-0.1-10-1
		c-10.32-1.62-17.97-3.99-20-6c-0.21-0.21-1.31-1.36-3-3c-0.84-0.82-0.87-0.82-1-1c-0.8-1.05-0.89-2.14-1-5
		c-0.09-2.33-0.13-4.28-1-6c-0.22-0.43-0.57-1.01-1-1s-0.6,0.59-1,1c-1.41,1.44-5.51,0.6-6-1c-0.14-0.45,0.13-0.58,0-1
		c-0.38-1.22-2.81-0.73-5-2c-0.2-0.12-2.4-1.44-3-4c-0.55-2.34,0.59-4.29,1-5c0.92-1.58,2.13-2.4,3-3c0.72-0.49,2.47-1.59,5-2
		c1.69-0.28,3.01-0.12,4,0c1.68,0.21,2.77,0.31,4,1c1.43,0.79,2.2,1.87,3,3c0.74,1.04,1.6,2.24,2,4c0.43,1.88,0.05,3.17,1,5
		c0.35,0.68,0.66,1,1,1c0.16,0,0.53-0.07,1-1c1.23-2.43,1.43-7.38,2-11c0.55-3.45,1.13-3.74,1-6c-0.1-1.74-0.51-2.67,0-4
		c0.54-1.4,1.67-2.15,3-3c2.62-1.68,3.96-1.36,7-3c1.17-0.63,1.4-0.91,3-2c6.7-4.56,8.24-3.49,10-6c1.65-2.35,1.81-5.46,2-9
		c0.11-2.1-0.14-1.84,0-3c0.69-5.51,5.94-8.61,10-11c0.91-0.54,2.35-1.3,4-1c0.33,0.06,1.27,0.25,2,1c0.97,1.01,0.99,2.46,1,3
		c0.02,1.03,0.35,11.94,4,14c0.42,0.24,1.71,0.82,2,2C225.62,209,225.52,209.41,225.5,209.5z"/>
	<path class="st21" d="M225.5,209.5c-0.72,3.3,7,20,7,20c0.96,2.07,4.41,9.88,5,20c0.48,8.21-1.29,11.74-2,13
		c-2.87,5.09-7.73,7.41-9,8c-5.34,2.47-9.34,1.4-13.5,3.5c-0.54,0.27-2.04,1.08-4,1c-1-0.04-1.45-0.28-2.5-0.5
		c-0.83-0.17-1.94-0.25-5,0c-2.41,0.19-4.2,0.46-4.5,0.5c-3.11,0.44-4.85-0.65-11.64-2.61c-6.41-1.85-11.84-2.89-13.86-4.89
		c-0.24-0.23-1.3-1.35-3-3c-0.84-0.82-0.87-0.82-1-1c-0.8-1.05-0.89-2.14-1-5c-0.09-2.33-0.13-4.28-1-6c-0.22-0.43-0.57-1.01-1-1
		s-0.6,0.59-1,1c-1.19,1.22-4.23,0.55-6-1c-0.25-0.22-0.16-0.18-0.5-0.5c-1.73-1.62-3.12-1.67-4.5-2.5c-0.18-0.1-2.41-1.48-3-4
		c-0.55-2.34,0.59-4.29,1-5c0.92-1.58,2.13-2.4,3-3c0.72-0.49,2.47-1.59,5-2c1.69-0.28,3.01-0.12,4,0c1.68,0.21,2.77,0.31,4,1
		c1.43,0.79,2.2,1.87,3,3c0.74,1.04,1.6,2.24,2,4c0.43,1.88,0.05,3.17,1,5c0.35,0.68,0.66,1,1,1c0.16,0,0.53-0.07,1-1
		c1.23-2.43,1.43-7.38,2-11c0.55-3.45,1.13-3.74,1-6c-0.1-1.74-0.51-2.67,0-4c0.54-1.4,1.67-2.15,3-3c2.62-1.68,3.96-1.36,7-3
		c1.17-0.63,1.4-0.91,3-2c6.7-4.56,8.24-3.49,10-6c1.65-2.35,1.81-5.46,2-9c0.11-2.1-0.14-1.84,0-3c0.69-5.51,5.94-8.61,10-11
		c0.91-0.54,2.35-1.3,4-1c0.33,0.06,1.27,0.25,2,1c0.8,0.83,0.81,1.83,1,3c0.19,1.14,0.25,0.63,1.5,4.5c2.27,7.02,1.81,7.87,3,9
		c0.3,0.28,1.3,1.15,1.5,2.5C225.58,209.02,225.52,209.42,225.5,209.5z"/>
	<path class="st22" d="M225.5,207.5c0.34,3.95,1.22,6.95,2,9c1.11,2.94,2.49,5.22,4,10c0.38,1.21,0.66,2.22,0.84,2.9
		c0.16,0.47,0.5,1.28,0.58,1.48c0.29,0.74,0.44,1.11,1.08,2.62c1.54,3.59,3,12,3,12c0.74,3.98,1.11,6.01,1,8
		c-0.08,1.43-0.4,4.62-2,8c-3.21,6.78-9.42,9.76-12,11c-5.68,2.73-10.64,2.87-15,3c-8.63,0.25-15.09-1.75-19-3
		c-3.8-1.21-17.21-5.5-22-14c-0.48-0.85-2.94-5.21-2-6c0.2-0.17,0.69-0.11,1,0c0.66,0.23,0.94,0.88,1,1c0.36,0.81,0.07,1.61,0,2
		c-0.33,1.85,2.54,3.96,4,5c4.37,3.13,6.56,4.7,9,6c4.65,2.47,9.27,4.94,10,4c0.44-0.57-1.27-1.69-3-5c-3.05-5.84-3.38-13.18-3-15
		c0.03-0.12,0.12-0.52,0-1c-0.27-1.1-1.41-1.64-2-2c-1.75-1.07-2.11-2.65-3-4c-3.22-4.87-11.93-4.49-12-7c-0.03-0.97,1.25-2.13,2-2
		c0.42,0.07,0.52,0.52,1,1c1,1,2.49,0.96,3,1c3.89,0.34,7.98,10.67,11,10c0.56-0.12,0.4-0.47,2-2c1.44-1.38,2.71-2.18,4-3
		c5.17-3.26,12-6,12-6c5.84-2.34,10.43-3.59,12-4c0,0,7.63-2,12-2c0.04,0,0.21,0,3,0c0.01,0,2.49,0,2.5,0"/>
	<path class="st22" d="M163.5,278.5c-1.32-0.92-7.31,3.1-9,8c-0.19,0.56-0.38,1.26-1,2c-1.75,2.07-4.93,1.99-6,2
		c-4.85,0.04-9.31,2.74-14,4c-16.06,4.33-18.35,5.28-21,7c-1.67,1.08-3.91,2.74-7,6c-10.38,10.92-15.45,24.1-17,28
		c-1.91,4.82,0.83-2.72-25,46c-6.07,11.45-11.35,21.55-15,36c-2.49,9.86-2.64,15.44-1,21c0.37,1.25,4.25,13.72,16,19
		c4.55,2.04,8.7,2.03,17,2c15.5-0.05,23.24-0.08,29-2c0.73-0.24,2.68-0.93,4,0c1.99,1.41,1.23,5.6,1,7c-2.6,15.55,3.77,20.14-6,73
		c-0.73,3.97-1.49,8.98-3,19c-2.84,18.8-2.94,22.1-1,25c4.58,6.86,17.18,5.66,27,5c27.02-1.83,71.27-4.82,101,2c0,0,11,2.52,35-1
		c2.04-0.3,6.05-0.97,8-4c1.84-2.87,0.65-6.02,0-12c0,0,0-4.67,0-14c0-38.67,0.11-37.41,0-39c-1.47-20.46-6.21-32.93-1-36
		c0.73-0.43,3.15-0.62,8-1s6.97-0.2,11-1c3.06-0.61,4.61-0.93,6-2c3.17-2.45,3.79-6.58,4-8c0.81-5.44-1.59-8.29,0-10
		c1.7-1.83,6.05-0.32,7,0c18.62,6.28,93.2,16.79,94,17c0.84-0.03,2.01-0.22,3-1c2.16-1.71,2-5.11,2-7c-0.01-4.43,0.81-0.6,3-16
		c1.89-13.32,1.12-15.05,0-16c-1.5-1.28-3.03-0.64-7-1c-6.28-0.57-10.27-2.86-13-4c-16.07-6.71-55.47-1.58-71-20
		c-4.07-4.83-3.89-8.18-7-20c-8.51-32.38-29.94-83.58-56-93c-3.2-1.16-28.09-9.5-34-10c-0.42-0.04-2.08-0.14-4-1
		c-2.53-1.13-4.07-2.91-5-4c-1.95-2.29-1.28-3.71-3-5c-0.92-0.69-2.8-1.63-4-1c-2.09,1.11-1.07,6.46,0,14c0.8,5.65,1.01,11.38,2,17
		c1.99,11.26,0.59,25.52-2,54c-1.66,18.24-2.46,16.14-2,20c0.3,2.52,0.94,5.94-1,9c-1.98,3.13-6.22,5.19-8,4
		c-1.28-0.86-1.05-3.25-1-4c0.89-13.23-17.49-66.53-23-81c-2.51-6.6-3.7-13.76-7-20c-1.2-2.27-3.31-5.61-3-10
		C163.62,279.85,164.02,278.86,163.5,278.5z"/>
	<path class="st23" d="M415.5,448.5c1.88-0.36,2.86-2.02,5-5c0.86-1.2,2.14-2.99,3-4c4.46-5.28,8.63-2.95,14-8
		c0.37-0.35,2.21-2.11,5-3c1.63-0.52,2.45-0.38,3,0c0.86,0.6,0.98,1.76,1,2c0.14,1.45-0.71,2.61-1,3c-2.71,3.68-12.18,7.13-12,8
		c0.14,0.7,7.11-0.44,16-1c5.96-0.37,9-0.25,15,0c9.67,0.4,10.64,1.24,11,2c0.94,1.96-2.03,5.67-8,13c-3.36,4.13-5.05,6.2-6,7
		c-3.72,3.13-6.38,2.29-23,6c-7.39,1.65-13.32,2.81-21,2c-1.48-0.16-4.48,0.67-6-1c-1.24-1.37-0.52-3.09,0-8
		c0.82-7.79-0.07-12.2,2-13C414.21,448.23,414.38,448.72,415.5,448.5z"/>
	<path class="st24" d="M220.5,331.5c37.06-0.22,91.69-3.96,98,2l3.5,4.46l-20.62,145.22c-40.95-0.55-103.52-0.91-107.92-1.79
		c2.92-20.22,13.46-93.03,21.13-146.06L220.5,331.5z"/>
	<path class="st23" d="M180.5,408.5c1.73-1.52,4.09-3.56,7-6c1.98-1.66,3.54-2.95,6-4c1.03-0.44,1.39-0.48,3-1
		c6.38-2.04,8.2-3.71,9-3c1.5,1.34-3.78,8.24-2,10c0.75,0.73,2.36,0.21,3,0c12.23-3.94,8.08,0.25,30-6c0.31-0.09,3.49-0.99,7,0
		c1.02,0.29,2.66,0.78,3,2c0.28,1.03-0.41,2.33-1,3c-0.16,0.19-0.55,0.59-1,1c-0.71,0.65-1.05,0.85-1,1c0.08,0.23,1.06-0.29,2,0
		c1.15,0.36,1.88,1.81,2,3c0.17,1.69-0.84,3.25-2,4c-1.39,0.9-2.98,0.65-3,1c-0.01,0.26,0.88,0.32,2,1c0.36,0.22,1.57,0.95,2,2
		c0.71,1.72-0.85,3.81-1,4c-2.73,3.56-9.01,2.97-9,4c0,0.25,0.38,0.25,1,1c0.06,0.07,0.91,1.1,1,2c0.14,1.38-1.49,2.61-2,3
		c-8.7,6.58-32,11-32,11c-6.78,1.29,1-0.34-13,1c-2.84,0.27-5.96,0.61-7-1c-0.64-1-0.2-2.31,0-3c2.11-7.36-3.87-13.36-4-28
		c0-0.47,0-0.85,0-1"/>
	<polygon class="st25" points="244.5,76.5 529.29,49.41 501.5,196.5 322,204.38 306.5,224.5 270.46,242.9 283.5,224.5 291.5,203.5 
		268.5,205.5 	"/>
	<polygon class="st26" points="257.74,80.67 521.87,54.74 497.92,188.43 328.5,197.5 328.99,188.43 309.7,215.5 289.5,226.5 
		297.5,205.5 293.5,177.5 289.5,193.5 277.5,195.5 	"/>
</g>
<g id="details">
	<polyline class="st8" points="152.5,289.5 144.5,302.5 163.5,311.5 152.5,319.5 193.5,397.5 	"/>
	<polyline class="st8" points="219.91,289.5 226.12,300 215.5,307.5 226.12,314.12 223.5,330.5 	"/>
	<line class="st8" x1="115.5" y1="369.5" x2="123.5" y2="406.5"/>
	<line class="st8" x1="89.5" y1="407.5" x2="178.9" y2="406.5"/>
	<path class="st8" d="M110.5,458.5l73-15l-10,1c3.48-11.91,1.43-24.62-4.5-37.89"/>
	<polyline class="st8" points="312.5,414.5 322.5,411.5 313.5,424.5 	"/>
	<path class="st8" d="M404.5,436.5c1.6,14.24,0.37,27.85-4.82,40.56"/>
	<line class="st8" x1="209.5" y1="410.5" x2="243.5" y2="405.5"/>
	<line class="st8" x1="215.5" y1="418" x2="243.5" y2="413.66"/>
	<line class="st8" x1="219.5" y1="427.5" x2="235.65" y2="424.5"/>
	<path class="st8" d="M434.45,442.15c0.68,4-1.98,8-8,12"/>
	<polyline class="st8" points="450.5,440.5 448.76,445.51 442.5,463.5 	"/>
	<path class="st8" d="M472.42,442.15"/>
	<line class="st8" x1="448.76" y1="445.51" x2="472.42" y2="442.15"/>
	<path class="st8" d="M446.5,452l22-2.5c1.62-0.16,2.45,0.83,2.81,2.5"/>
	<path class="st8" d="M445.5,457.5l16-3c5.21,0.09,6.65,0.89,4.99,2.28"/>
	<path class="st8" d="M129.68,493.66c1.82,0.84,46.82,1.84,46.82,1.84v13.15v29.15h-50.81l2.97-32.86L129.68,493.66z"/>
	<polygon class="st8" points="227.58,493.66 272.5,496.5 272.5,537.81 220.81,537.81 225.79,505.33 	"/>
	<line class="st8" x1="226.5" y1="504.5" x2="271.5" y2="507.5"/>
	<line class="st8" x1="203.5" y1="481.5" x2="203.5" y2="581.7"/>
	<circle class="st8" cx="211" cy="488" r="1.5"/>
	<ellipse class="st8" cx="210.5" cy="522" rx="1" ry="1.5"/>
	<circle class="st8" cx="210.5" cy="562.5" r="1"/>
	<circle class="st25" cx="199" cy="227" r="1.5"/>
	<circle class="st25" cx="222" cy="221" r="1.5"/>
	<path class="st8" d="M190.5,221.5c0.22-0.51,1.29-2.84,4-4c2.93-1.25,5.55-0.19,6,0"/>
	<path class="st8" d="M211.5,211.5c0.31-0.65,1.44-2.81,4-4c3.37-1.56,6.52-0.22,7,0"/>
	<path class="st8" d="M210.5,220.5c1.76,2.57,3.58,4.08,5,5c1.5,0.98,3.68,2.03,4,4c0.07,0.41,0.04,0.76,0,1"/>
	<path class="st27" d="M587.5,481.5c-22.93,44.1-27.87,53.53-27.9,53.52c-0.02-0.01,2.76-5.4,6.13-11.97
		c8.76-17.08,15.67-30.77,20.24-39.87"/>
	<path class="st27" d="M549.5,551.5c-1.24-5.07-2.59-12.76-2-22c1.17-18.52,9.32-30.5,15-42c19.71-39.85,17.06-51.17,14-57
		c-3.93-7.48-9-13-9-13c-2.47-2.69-6.9-6.97-9-9c-4.06-3.93-4.21-3.9-5-5c-2.79-3.89-2.44-6.36-5-12c-0.31-0.68-0.77-1.65-4-7
		c-7.33-12.15-8.35-12.8-11-18c-3.34-6.56-5.41-12.8-5-13c0.19-0.09,0.87,1.18,4,6c3.55,5.47,4.55,6.72,6,8c1.81,1.61,2.02,1.22,4,3
		c2.45,2.2,2.38,3.01,5,6c3.93,4.48,4.98,3.69,7,7c0.68,1.12,1.36,2.53,3,4c1.12,1.01,2.23,1.63,3,2"/>
	<path class="st27" d="M588.5,384.5c-2.69-1.57-6.69-4.15-11-8c-5.33-4.77-5.83-6.74-11-11c-4.01-3.3-7.14-4.94-13-8
		c-10.5-5.49-13.4-4.94-15-4c-1,0.59-1.62,1.4-2,2"/>
	<path class="st27" d="M571.5,385.5c-4.25-2.52-7.93-4.91-11-7c-6.76-4.6-10.14-6.9-13-10c-2.14-2.32-4.37-5.25-8-10
		c-1.27-1.66-2.3-3.05-3-4"/>
	<path class="st27" d="M531.5,378.5c-3.12-6.52-6.45-10.52-9-13c-0.4-0.39-2.61-3.09-5-7c-1.71-2.8-4.12-6.8-3-8
		c0.58-0.62,1.89-0.28,3,0c1.69,0.43,2.7,1.25,5,3c0.83,0.63,2.21,1.68,4,3"/>
	<path class="st27" d="M510.5,525.5c0.21-4.84,1.23-13.15,6-22c2.88-5.35,6.26-9.3,9-12"/>
	<path class="st28" d="M603.5,383.5c-0.71-1.41,1.04-2.83,4-8c2.25-3.93,3.33-6.76,4-9c0.23-0.76,0.39-1.39,0.49-1.81
		c0.37-1.54,0.39-2.18,0.51-2.19c0.42-0.02,0.77,4.16,1,7c0.51,6.15,0.75,9.26,0,11c-0.97,2.27-2.2,2.89-3,6
		c-0.41,1.58-0.48,2.92-1,3c-0.68,0.1-0.91-2.14-3-4C604.9,384.07,603.98,384.45,603.5,383.5z"/>
	<path class="st27" d="M606,321c-1.42-1.23-3.04-1.62-4-1c-0.94,0.6-0.97,1.99-1,3c-0.06,2.43,1.01,4.3,2,6c0.98,1.67,1.94,2.78,3,4
		c1.53,1.76,2.96,3.09,4,4"/>
	<path class="st27" d="M608.5,326.5c-1.25,0.17-2.29,0.1-3,0c-1.05-0.14-2.04-0.29-3-1c-0.47-0.35-0.8-0.73-1-1"/>
	<path class="st16" d="M529.5,338.5c0.18-0.33,0.49-0.76,1-1c0.74-0.35,1.51-0.12,2,0c0.86,0.21,0.54-0.03,4,0
		c4.82,0.05,4.92,0.51,6,0c1.34-0.63,1.31-1.41,3-2c1.26-0.44,2.72-0.52,3,0c0.07,0.12,0.02,0.19,0,1c-0.02,0.67,0.01,0.87,0,1
		c-0.11,1.11-3.76,1.78-5,2c-2.77,0.49-4.15,0.7-6,1c-1.18,0.19-5.31,0.86-7,0c-0.24-0.12-0.79-0.41-1-1
		C529.36,339.1,529.44,338.72,529.5,338.5z"/>
	<path class="st16" d="M556,349c-0.58,0.84-1.53,2.01-3,3c-1.62,1.09-3.06,1.42-3,2c0.05,0.53,1.3,0.9,2,1c0.34,0.05,0.64,0.09,1,0
		c0.88-0.22,0.94-0.94,2-2c1.05-1.05,1.74-1.1,2-2c0.05-0.16,0.16-0.56,0-1c-0.23-0.64-0.87-0.94-0.94-0.97
		C556.03,349.01,556.01,349.01,556,349"/>
	<rect x="238.5" y="325.5" class="st29" width="62" height="13"/>
	<g>
		<g>
			<path d="M705.04,435.95c6.42-1.37,9.92-7.68,10.4-13.82c0.59-7.5-3.79-13.97-9.18-18.77c-3-2.67-6.33-4.96-9.66-7.2
				c-4.16-2.8-8.33-5.6-12.49-8.4c-7.78-5.23-15.7-10.31-23.31-15.79c-7.4-5.34-14.45-11.54-18.54-19.85
				c-0.85-1.73-3.44-0.21-2.59,1.51c3.43,6.98,8.93,12.63,14.97,17.42c6.6,5.24,13.77,9.77,20.76,14.47
				c7.71,5.18,15.52,10.23,23.11,15.58c5.73,4.04,12.14,9.26,13.67,16.49c1.28,6.05-1.25,14.05-7.94,15.47
				C702.36,433.46,703.15,436.35,705.04,435.95L705.04,435.95z"/>
		</g>
	</g>
	<g>
		<g>
			<path d="M532.98,282.85c5.94,3.83,12.24,7.31,19.07,9.28c3.19,0.92,6.5,1.49,9.82,1.57c3.64,0.08,7.22-0.55,10.73-1.46
				c3.63-0.94,7.2-2.05,10.89-2.77c3.56-0.7,7.17-1.1,10.8-1.15c6.94-0.11,13.95,1.1,20.22,4.16c6.09,2.97,11.36,7.49,14.75,13.39
				c0.96,1.67,3.56,0.16,2.59-1.51c-6.56-11.41-19.15-17.7-31.95-18.84c-7.46-0.67-15.02,0.31-22.23,2.23
				c-3.61,0.96-7.18,2.13-10.88,2.67c-3.5,0.52-7.1,0.35-10.56-0.34c-7.88-1.57-15.05-5.5-21.74-9.81
				C532.87,279.21,531.36,281.81,532.98,282.85L532.98,282.85z"/>
		</g>
	</g>
	<g>
		<g>
			<path d="M513.45,405.77c6.6,10.3,5,25.02-3.89,33.51c-5.37,5.13-12.55,7.99-17.11,14.02c-2.06,2.72-3.54,5.99-3.61,9.45
				c-0.08,3.88,1.89,7.22,3.93,10.37c5.32,8.21,10.66,16.42,15.99,24.63c1.05,1.61,3.65,0.11,2.59-1.51
				c-4.74-7.3-9.48-14.61-14.23-21.91c-2.04-3.14-4.86-6.54-5.24-10.4c-0.35-3.53,1.35-6.95,3.57-9.6
				c4.76-5.68,12.03-8.43,17.1-13.78c4.24-4.47,6.84-10.32,7.66-16.4c0.93-6.87-0.41-14.01-4.17-19.88
				C515,402.64,512.41,404.14,513.45,405.77L513.45,405.77z"/>
		</g>
	</g>
	<g>
		<g>
			<path d="M704.93,506.88c6.59-6.46,9.08-15.53,7.63-24.53c-1.37-8.51-5.65-16.2-8.59-24.21c-1.67-4.55-2.94-9.26-2.95-14.14
				c0-1.93-3-1.93-3,0c0.02,8.45,3.48,16.23,6.68,23.88c3.12,7.45,6.44,15.61,4.99,23.85c-0.88,4.96-3.29,9.5-6.89,13.03
				C701.43,506.12,703.55,508.24,704.93,506.88L704.93,506.88z"/>
		</g>
	</g>
	<g>
		<g>
			<path d="M509.81,290.32c-8.99,16.23-12.16,35.29-9,53.56c0.33,1.9,3.22,1.09,2.89-0.8c-3.02-17.45,0.12-35.77,8.7-51.25
				C513.34,290.15,510.75,288.63,509.81,290.32L509.81,290.32z"/>
		</g>
	</g>
	<g>
		<g>
			<path d="M528.09,260.16c3.8-2.61,7.66-5.3,11.95-7.03c4.42-1.78,9.22-2.49,13.88-3.35c4.93-0.91,9.9-1.82,14.9-2.18
				c4.64-0.33,9.1,0.17,13.52,1.64c4.99,1.66,9.61,4.24,14.2,6.78c1.69,0.94,3.2-1.65,1.51-2.59c-8.45-4.69-17.18-9.21-27.11-8.94
				c-5.09,0.14-10.18,1.02-15.19,1.91c-4.94,0.88-10.02,1.6-14.79,3.19c-5.26,1.76-9.86,4.85-14.4,7.96
				C524.99,258.66,526.49,261.26,528.09,260.16L528.09,260.16z"/>
		</g>
	</g>
</g>
<g>
	<g>
		<path d="M272.92,110.7v-5.61l-4.27-7.87h2.82l1.61,3.46c0.46,0.99,0.81,1.76,1.18,2.67h0.04c0.33-0.86,0.72-1.69,1.17-2.68
			l1.62-3.45h2.78l-4.48,7.8v5.68H272.92z"/>
		<path d="M290.53,105.74c0,3.58-2.51,5.19-5,5.19c-2.75,0-4.87-1.9-4.87-5.02c0-3.19,2.1-5.16,5.04-5.16
			C288.59,100.74,290.53,102.79,290.53,105.74z M283.18,105.84c0,1.87,0.94,3.29,2.42,3.29c1.41,0,2.39-1.36,2.39-3.32
			c0-1.53-0.68-3.28-2.38-3.28C283.89,102.53,283.18,104.22,283.18,105.84z"/>
		<path d="M301.27,107.78c0,1.16,0.04,2.13,0.08,2.92h-2.15l-0.12-1.47h-0.06c-0.41,0.68-1.37,1.69-3.12,1.69
			c-1.77,0-3.39-1.07-3.39-4.25v-5.71h2.46v5.3c0,1.62,0.51,2.65,1.82,2.65c0.99,0,1.63-0.69,1.88-1.32
			c0.08-0.21,0.13-0.48,0.13-0.76v-5.88h2.46V107.78z"/>
		<path d="M303.93,104.09c0-1.3-0.03-2.26-0.08-3.13h2.13l0.09,1.85h0.07c0.48-1.37,1.62-2.07,2.67-2.07c0.24,0,0.38,0.01,0.58,0.05
			v2.32c-0.21-0.04-0.42-0.07-0.72-0.07c-1.17,0-1.99,0.75-2.21,1.86c-0.04,0.22-0.06,0.48-0.06,0.74v5.05h-2.46V104.09z"/>
		<path d="M315.19,104.09c0-1.3-0.03-2.26-0.08-3.13h2.13l0.09,1.85h0.07c0.48-1.37,1.62-2.07,2.67-2.07c0.24,0,0.38,0.01,0.58,0.05
			v2.32c-0.21-0.04-0.42-0.07-0.72-0.07c-1.17,0-1.99,0.75-2.21,1.86c-0.04,0.22-0.06,0.48-0.06,0.74v5.05h-2.46V104.09z"/>
		<path d="M324.05,106.51c0.07,1.77,1.43,2.54,3.01,2.54c1.13,0,1.94-0.18,2.69-0.45l0.36,1.7c-0.83,0.35-1.99,0.62-3.4,0.62
			c-3.16,0-5.01-1.95-5.01-4.94c0-2.69,1.63-5.23,4.76-5.23c3.17,0,4.2,2.6,4.2,4.74c0,0.46-0.04,0.82-0.09,1.03H324.05z
			 M328.33,104.8c0.01-0.9-0.38-2.37-2.03-2.37c-1.52,0-2.15,1.38-2.26,2.37H328.33z"/>
		<path d="M332.51,108.44c0.54,0.34,1.6,0.71,2.48,0.71c1.08,0,1.57-0.45,1.57-1.09c0-0.66-0.4-0.99-1.6-1.42
			c-1.91-0.65-2.7-1.69-2.69-2.84c0-1.71,1.42-3.05,3.7-3.05c1.07,0,2.01,0.27,2.58,0.58l-0.49,1.73c-0.41-0.23-1.2-0.56-2.06-0.56
			c-0.88,0-1.36,0.43-1.36,1.03c0,0.62,0.47,0.92,1.7,1.36c1.77,0.63,2.59,1.53,2.6,2.97c0,1.78-1.38,3.06-3.96,3.06
			c-1.18,0-2.25-0.28-2.97-0.68L332.51,108.44z"/>
		<path d="M349.69,107.78c0,1.16,0.04,2.13,0.08,2.92h-2.15l-0.12-1.47h-0.06c-0.41,0.68-1.37,1.69-3.12,1.69
			c-1.78,0-3.39-1.07-3.39-4.25v-5.71h2.46v5.3c0,1.62,0.51,2.65,1.82,2.65c0.99,0,1.63-0.69,1.88-1.32
			c0.08-0.21,0.13-0.48,0.13-0.76v-5.88h2.46V107.78z"/>
		<path d="M352.35,96.5h2.46v14.2h-2.46V96.5z"/>
		<path d="M360.31,98.17v2.79h2.34v1.83h-2.34v4.3c0,1.19,0.32,1.8,1.26,1.8c0.42,0,0.74-0.05,0.96-0.11l0.05,1.87
			c-0.37,0.14-1.02,0.25-1.79,0.25c-0.91,0-1.66-0.31-2.12-0.8c-0.53-0.56-0.77-1.46-0.77-2.73v-4.58h-1.39v-1.83h1.39v-2.21
			L360.31,98.17z"/>
		<path d="M364.39,108.44c0.54,0.34,1.6,0.71,2.48,0.71c1.08,0,1.57-0.45,1.57-1.09c0-0.66-0.4-0.99-1.6-1.42
			c-1.91-0.65-2.7-1.69-2.69-2.84c0-1.71,1.42-3.05,3.7-3.05c1.07,0,2.01,0.27,2.58,0.58l-0.49,1.73c-0.41-0.23-1.2-0.56-2.06-0.56
			c-0.88,0-1.36,0.43-1.36,1.03c0,0.62,0.47,0.92,1.7,1.36c1.77,0.63,2.59,1.53,2.6,2.97c0,1.78-1.38,3.06-3.96,3.06
			c-1.18,0-2.25-0.28-2.97-0.68L364.39,108.44z"/>
		<path d="M382.47,110.7l-0.17-1.08h-0.06c-0.59,0.77-1.61,1.31-2.87,1.31c-1.98,0-3.07-1.41-3.07-2.9c0-2.46,2.19-3.7,5.78-3.69
			v-0.16c0-0.64-0.25-1.7-1.98-1.7c-0.95,0-1.95,0.31-2.62,0.73l-0.49-1.6c0.74-0.45,2-0.86,3.53-0.86c3.12,0,4.02,1.97,4.02,4.11
			v3.51c0,0.89,0.04,1.74,0.15,2.35H382.47z M382.14,105.93c-1.74-0.02-3.4,0.34-3.4,1.83c0,0.95,0.63,1.4,1.4,1.4
			c0.98,0,1.69-0.63,1.93-1.35c0.05-0.17,0.07-0.36,0.07-0.54V105.93z"/>
		<path d="M387.15,104.09c0-1.3-0.03-2.26-0.08-3.13h2.13l0.09,1.85h0.07c0.48-1.37,1.62-2.07,2.67-2.07c0.24,0,0.38,0.01,0.58,0.05
			v2.32c-0.21-0.04-0.42-0.07-0.72-0.07c-1.17,0-1.99,0.75-2.21,1.86c-0.04,0.22-0.06,0.48-0.06,0.74v5.05h-2.46V104.09z"/>
		<path d="M396.01,106.51c0.07,1.77,1.43,2.54,3.01,2.54c1.13,0,1.94-0.18,2.69-0.45l0.36,1.7c-0.83,0.35-1.99,0.62-3.4,0.62
			c-3.16,0-5.01-1.95-5.01-4.94c0-2.69,1.63-5.23,4.76-5.23c3.17,0,4.2,2.6,4.2,4.74c0,0.46-0.04,0.82-0.09,1.03H396.01z
			 M400.29,104.8c0.01-0.9-0.38-2.37-2.03-2.37c-1.52,0-2.15,1.38-2.26,2.37H400.29z"/>
		<path d="M415.88,110.41c-0.51,0.24-1.53,0.5-2.75,0.5c-3.05,0-5.02-1.96-5.02-4.98c0-2.92,1.99-5.18,5.42-5.18
			c0.91,0,1.82,0.2,2.38,0.44l-0.44,1.85c-0.4-0.19-0.99-0.38-1.86-0.38c-1.88,0-2.99,1.37-2.98,3.16c0,2,1.31,3.14,2.99,3.14
			c0.84,0,1.45-0.18,1.93-0.38L415.88,110.41z"/>
		<path d="M426.96,105.74c0,3.58-2.51,5.19-5,5.19c-2.75,0-4.87-1.9-4.87-5.02c0-3.19,2.1-5.16,5.04-5.16
			C425.02,100.74,426.96,102.79,426.96,105.74z M419.62,105.84c0,1.87,0.94,3.29,2.42,3.29c1.41,0,2.39-1.36,2.39-3.32
			c0-1.53-0.68-3.28-2.38-3.28C420.33,102.53,419.62,104.22,419.62,105.84z"/>
		<path d="M428.99,103.86c0-1.12-0.04-2.05-0.08-2.9h2.15l0.12,1.46h0.06c0.43-0.76,1.49-1.68,3.1-1.68c1.7,0,3.46,1.09,3.46,4.17
			v5.78h-2.46v-5.49c0-1.4-0.51-2.46-1.86-2.46c-0.98,0-1.66,0.69-1.92,1.44c-0.08,0.2-0.11,0.5-0.11,0.78v5.73h-2.46V103.86z"/>
		<path d="M447.58,110.41c-0.51,0.24-1.53,0.5-2.75,0.5c-3.05,0-5.02-1.96-5.02-4.98c0-2.92,1.99-5.18,5.42-5.18
			c0.91,0,1.82,0.2,2.38,0.44l-0.44,1.85c-0.4-0.19-0.99-0.38-1.86-0.38c-1.88,0-2.99,1.37-2.98,3.16c0,2,1.31,3.14,2.99,3.14
			c0.84,0,1.45-0.18,1.93-0.38L447.58,110.41z"/>
		<path d="M451.14,106.51c0.07,1.77,1.43,2.54,3.01,2.54c1.13,0,1.94-0.18,2.69-0.45l0.37,1.7c-0.83,0.35-1.99,0.62-3.4,0.62
			c-3.16,0-5.01-1.95-5.01-4.94c0-2.69,1.63-5.23,4.76-5.23c3.17,0,4.2,2.6,4.2,4.74c0,0.46-0.04,0.82-0.09,1.03H451.14z
			 M455.43,104.8c0.01-0.9-0.38-2.37-2.03-2.37c-1.52,0-2.15,1.38-2.26,2.37H455.43z"/>
		<path d="M459.73,104.09c0-1.3-0.03-2.26-0.08-3.13h2.13l0.09,1.85h0.07c0.48-1.37,1.62-2.07,2.67-2.07c0.24,0,0.38,0.01,0.58,0.05
			v2.32c-0.21-0.04-0.42-0.07-0.72-0.07c-1.17,0-1.99,0.75-2.21,1.86c-0.04,0.22-0.06,0.48-0.06,0.74v5.05h-2.46V104.09z"/>
		<path d="M466.85,103.86c0-1.12-0.04-2.05-0.08-2.9h2.15l0.12,1.46h0.06c0.43-0.76,1.49-1.68,3.1-1.68c1.7,0,3.46,1.09,3.46,4.17
			v5.78h-2.46v-5.49c0-1.4-0.51-2.46-1.86-2.46c-0.98,0-1.66,0.69-1.92,1.44c-0.08,0.2-0.11,0.5-0.11,0.78v5.73h-2.46V103.86z"/>
		<path d="M480.9,98.24c0,0.74-0.53,1.33-1.4,1.33c-0.82,0-1.35-0.59-1.35-1.33c0-0.75,0.55-1.33,1.38-1.33
			C480.36,96.91,480.89,97.48,480.9,98.24z M478.29,110.7v-9.74h2.46v9.74H478.29z"/>
		<path d="M483.41,103.86c0-1.12-0.04-2.05-0.08-2.9h2.15l0.12,1.46h0.06c0.43-0.76,1.49-1.68,3.1-1.68c1.7,0,3.46,1.09,3.46,4.17
			v5.78h-2.46v-5.49c0-1.4-0.51-2.46-1.86-2.46c-0.98,0-1.66,0.69-1.92,1.44c-0.08,0.2-0.11,0.5-0.11,0.78v5.73h-2.46V103.86z"/>
		<path d="M503.75,100.96c-0.05,0.66-0.08,1.46-0.08,2.8v5.52c0,2.04-0.41,3.49-1.44,4.41c-1.02,0.9-2.43,1.18-3.77,1.18
			c-1.24,0-2.55-0.27-3.39-0.77l0.53-1.88c0.63,0.38,1.67,0.75,2.84,0.75c1.6,0,2.8-0.85,2.8-2.94v-0.83h-0.04
			c-0.55,0.85-1.54,1.43-2.84,1.43c-2.41,0-4.13-2-4.13-4.75c0-3.21,2.08-5.15,4.41-5.15c1.5,0,2.37,0.71,2.83,1.52h0.04l0.09-1.3
			H503.75z M501.2,104.87c0-0.24-0.02-0.47-0.08-0.66c-0.26-0.9-0.96-1.58-2.01-1.58c-1.37,0-2.39,1.2-2.39,3.18
			c0,1.65,0.84,3,2.38,3c0.92,0,1.71-0.6,1.99-1.49c0.08-0.26,0.11-0.59,0.11-0.86V104.87z"/>
		<path d="M505.15,113.13c0.54-1.52,1.08-3.62,1.34-5.28l2.58-0.2c-0.57,1.89-1.47,4.04-2.25,5.33L505.15,113.13z"/>
		<path d="M290.95,133.44c0.54,0.34,1.6,0.71,2.48,0.71c1.08,0,1.57-0.45,1.57-1.09c0-0.66-0.4-0.99-1.6-1.42
			c-1.91-0.65-2.7-1.69-2.69-2.84c0-1.71,1.42-3.05,3.7-3.05c1.07,0,2.01,0.27,2.58,0.58l-0.49,1.73c-0.41-0.23-1.2-0.56-2.06-0.56
			c-0.88,0-1.36,0.43-1.36,1.03c0,0.62,0.47,0.92,1.7,1.36c1.77,0.63,2.59,1.53,2.6,2.97c0,1.78-1.38,3.06-3.96,3.06
			c-1.18,0-2.25-0.28-2.97-0.68L290.95,133.44z"/>
		<path d="M302.01,123.24c0,0.74-0.53,1.33-1.4,1.33c-0.82,0-1.35-0.59-1.35-1.33c0-0.75,0.55-1.33,1.38-1.33
			C301.47,121.91,302,122.48,302.01,123.24z M299.4,135.7v-9.74h2.46v9.74H299.4z"/>
		<path d="M304.52,128.86c0-1.12-0.04-2.05-0.08-2.9h2.15l0.12,1.46h0.06c0.43-0.76,1.49-1.68,3.1-1.68c1.7,0,3.46,1.09,3.46,4.17
			v5.78h-2.46v-5.49c0-1.4-0.51-2.46-1.86-2.46c-0.98,0-1.66,0.69-1.92,1.44c-0.08,0.2-0.11,0.5-0.11,0.78v5.73h-2.46V128.86z"/>
		<path d="M324.86,125.96c-0.05,0.66-0.08,1.46-0.08,2.8v5.52c0,2.04-0.41,3.49-1.44,4.41c-1.02,0.9-2.43,1.18-3.77,1.18
			c-1.24,0-2.55-0.27-3.39-0.77l0.53-1.88c0.63,0.38,1.67,0.75,2.84,0.75c1.6,0,2.8-0.85,2.8-2.94v-0.83h-0.04
			c-0.55,0.85-1.55,1.43-2.84,1.43c-2.41,0-4.13-2-4.13-4.75c0-3.21,2.08-5.15,4.41-5.15c1.5,0,2.37,0.71,2.83,1.52h0.04l0.09-1.3
			H324.86z M322.32,129.87c0-0.24-0.02-0.47-0.08-0.66c-0.26-0.9-0.96-1.58-2.01-1.58c-1.36,0-2.39,1.2-2.39,3.18
			c0,1.65,0.84,3,2.38,3c0.92,0,1.71-0.6,1.99-1.49c0.08-0.26,0.11-0.59,0.11-0.86V129.87z"/>
		<path d="M330.03,123.24c0,0.74-0.53,1.33-1.4,1.33c-0.82,0-1.35-0.59-1.35-1.33c0-0.75,0.55-1.33,1.38-1.33
			C329.49,121.91,330.02,122.48,330.03,123.24z M327.42,135.7v-9.74h2.46v9.74H327.42z"/>
		<path d="M332.54,128.86c0-1.12-0.04-2.05-0.08-2.9h2.15l0.12,1.46h0.06c0.43-0.76,1.49-1.68,3.1-1.68c1.7,0,3.46,1.09,3.46,4.17
			v5.78h-2.46v-5.49c0-1.4-0.51-2.46-1.86-2.46c-0.98,0-1.66,0.69-1.92,1.44c-0.08,0.2-0.11,0.5-0.11,0.78v5.73h-2.46V128.86z"/>
		<path d="M352.88,125.96c-0.05,0.66-0.08,1.46-0.08,2.8v5.52c0,2.04-0.41,3.49-1.44,4.41c-1.02,0.9-2.43,1.18-3.77,1.18
			c-1.24,0-2.55-0.27-3.39-0.77l0.53-1.88c0.63,0.38,1.67,0.75,2.84,0.75c1.6,0,2.8-0.85,2.8-2.94v-0.83h-0.04
			c-0.55,0.85-1.55,1.43-2.84,1.43c-2.41,0-4.13-2-4.13-4.75c0-3.21,2.08-5.15,4.41-5.15c1.5,0,2.37,0.71,2.83,1.52h0.04l0.09-1.3
			H352.88z M350.34,129.87c0-0.24-0.02-0.47-0.08-0.66c-0.26-0.9-0.96-1.58-2.01-1.58c-1.36,0-2.39,1.2-2.39,3.18
			c0,1.65,0.84,3,2.38,3c0.92,0,1.71-0.6,1.99-1.49c0.08-0.26,0.11-0.59,0.11-0.86V129.87z"/>
		<path d="M359.58,128.86c0-1.12-0.04-2.05-0.08-2.9h2.1l0.11,1.43h0.06c0.47-0.76,1.36-1.65,3-1.65c1.29,0,2.28,0.72,2.7,1.8h0.04
			c0.34-0.53,0.75-0.94,1.19-1.22c0.55-0.37,1.17-0.57,1.98-0.57c1.61,0,3.25,1.1,3.25,4.23v5.73h-2.4v-5.39
			c0-1.62-0.56-2.58-1.74-2.58c-0.84,0-1.46,0.59-1.71,1.3c-0.08,0.24-0.12,0.55-0.12,0.82v5.84h-2.4v-5.63
			c0-1.37-0.55-2.33-1.68-2.33c-0.92,0-1.54,0.72-1.77,1.39c-0.09,0.25-0.12,0.54-0.12,0.81v5.76h-2.4V128.86z"/>
		<path d="M379.15,123.24c0,0.74-0.53,1.33-1.4,1.33c-0.82,0-1.35-0.59-1.35-1.33c0-0.75,0.55-1.33,1.38-1.33
			C378.61,121.91,379.14,122.48,379.15,123.24z M376.54,135.7v-9.74h2.46v9.74H376.54z"/>
		<path d="M390.56,125.96c-0.05,0.66-0.08,1.46-0.08,2.8v5.52c0,2.04-0.41,3.49-1.44,4.41c-1.02,0.9-2.43,1.18-3.77,1.18
			c-1.24,0-2.55-0.27-3.39-0.77l0.53-1.88c0.63,0.38,1.67,0.75,2.84,0.75c1.6,0,2.8-0.85,2.8-2.94v-0.83h-0.04
			c-0.55,0.85-1.55,1.43-2.84,1.43c-2.41,0-4.13-2-4.13-4.75c0-3.21,2.08-5.15,4.41-5.15c1.5,0,2.37,0.71,2.83,1.52h0.04l0.09-1.3
			H390.56z M388.02,129.87c0-0.24-0.02-0.47-0.08-0.66c-0.26-0.9-0.96-1.58-2.01-1.58c-1.36,0-2.39,1.2-2.39,3.18
			c0,1.65,0.84,3,2.38,3c0.92,0,1.71-0.6,1.99-1.49c0.08-0.26,0.11-0.59,0.11-0.86V129.87z"/>
		<path d="M393.12,121.5h2.46v5.79h0.04c0.31-0.46,0.72-0.84,1.23-1.12c0.48-0.27,1.07-0.43,1.68-0.43c1.66,0,3.4,1.1,3.4,4.22v5.73
			h-2.46v-5.46c0-1.41-0.51-2.49-1.87-2.49c-0.96,0-1.64,0.65-1.91,1.38c-0.08,0.21-0.11,0.48-0.11,0.74v5.83h-2.46V121.5z"/>
		<path d="M407.38,123.17v2.79h2.34v1.83h-2.34v4.3c0,1.19,0.32,1.8,1.26,1.8c0.42,0,0.74-0.05,0.96-0.11l0.05,1.87
			c-0.37,0.14-1.02,0.25-1.79,0.25c-0.91,0-1.66-0.31-2.12-0.8c-0.53-0.56-0.77-1.46-0.77-2.73v-4.58h-1.39v-1.83h1.39v-2.21
			L407.38,123.17z"/>
		<path d="M415.72,129.19c0-1.26-0.04-2.31-0.08-3.23h2.16l0.12,1.5h0.04c0.72-1.1,1.85-1.72,3.34-1.72c2.23,0,4.08,1.91,4.08,4.95
			c0,3.53-2.21,5.23-4.43,5.23c-1.22,0-2.24-0.51-2.74-1.3h-0.04v5.04h-2.46V129.19z M418.18,131.63c0,0.24,0.02,0.46,0.07,0.67
			c0.25,1,1.12,1.72,2.16,1.72c1.56,0,2.48-1.3,2.48-3.21c0-1.73-0.84-3.13-2.42-3.13c-1.01,0-1.95,0.74-2.2,1.82
			c-0.05,0.2-0.09,0.42-0.09,0.62V131.63z"/>
		<path d="M436.13,132.78c0,1.16,0.04,2.13,0.08,2.92h-2.15l-0.12-1.47h-0.06c-0.41,0.68-1.37,1.69-3.12,1.69
			c-1.77,0-3.39-1.07-3.39-4.25v-5.71h2.46v5.3c0,1.62,0.51,2.65,1.82,2.65c0.99,0,1.63-0.69,1.88-1.32
			c0.08-0.21,0.13-0.48,0.13-0.76v-5.88h2.46V132.78z"/>
		<path d="M441.62,123.17v2.79h2.34v1.83h-2.34v4.3c0,1.19,0.32,1.8,1.26,1.8c0.42,0,0.74-0.05,0.96-0.11l0.05,1.87
			c-0.37,0.14-1.02,0.25-1.79,0.25c-0.91,0-1.66-0.31-2.12-0.8c-0.53-0.56-0.77-1.46-0.77-2.73v-4.58h-1.39v-1.83h1.39v-2.21
			L441.62,123.17z"/>
		<path d="M451.5,125.96l1.76,5.22c0.19,0.6,0.41,1.35,0.55,1.89h0.06c0.15-0.55,0.33-1.28,0.52-1.91l1.53-5.2h2.63l-2.44,6.65
			c-1.34,3.64-2.24,5.25-3.39,6.26c-0.97,0.84-1.97,1.16-2.58,1.25l-0.56-2.07c0.41-0.1,0.93-0.32,1.42-0.67
			c0.47-0.31,1.01-0.88,1.35-1.55c0.1-0.17,0.15-0.31,0.15-0.43c0-0.11-0.03-0.25-0.13-0.48l-3.58-8.94H451.5z"/>
		<path d="M469.21,130.74c0,3.58-2.51,5.19-5,5.19c-2.75,0-4.87-1.9-4.87-5.02c0-3.19,2.1-5.16,5.04-5.16
			C467.27,125.74,469.21,127.79,469.21,130.74z M461.87,130.84c0,1.87,0.94,3.29,2.42,3.29c1.41,0,2.39-1.36,2.39-3.32
			c0-1.53-0.68-3.28-2.38-3.28C462.58,127.53,461.87,129.22,461.87,130.84z"/>
		<path d="M479.95,132.78c0,1.16,0.04,2.13,0.08,2.92h-2.15l-0.12-1.47h-0.06c-0.41,0.68-1.37,1.69-3.12,1.69
			c-1.78,0-3.39-1.07-3.39-4.25v-5.71h2.46v5.3c0,1.62,0.51,2.65,1.82,2.65c0.99,0,1.63-0.69,1.88-1.32
			c0.08-0.21,0.13-0.48,0.13-0.76v-5.88h2.46V132.78z"/>
		<path d="M482.62,129.09c0-1.3-0.03-2.26-0.08-3.13h2.13l0.09,1.85h0.07c0.48-1.37,1.62-2.07,2.67-2.07c0.24,0,0.38,0.01,0.58,0.05
			v2.32c-0.21-0.04-0.42-0.07-0.72-0.07c-1.17,0-1.99,0.75-2.21,1.86c-0.04,0.22-0.06,0.48-0.06,0.74v5.05h-2.46V129.09z"/>
		<path d="M331.8,150.96l1.58,4.95c0.28,0.86,0.48,1.64,0.66,2.43h0.06c0.18-0.81,0.4-1.57,0.66-2.43l1.54-4.95h2.59l-3.72,9.74
			h-2.43l-3.62-9.74H331.8z"/>
		<path d="M349.66,155.74c0,3.58-2.51,5.19-5,5.19c-2.75,0-4.87-1.9-4.87-5.02c0-3.19,2.1-5.16,5.04-5.16
			C347.72,150.74,349.66,152.79,349.66,155.74z M342.31,155.84c0,1.87,0.94,3.29,2.42,3.29c1.41,0,2.39-1.36,2.39-3.32
			c0-1.53-0.68-3.28-2.38-3.28C343.02,152.53,342.31,154.22,342.31,155.84z"/>
		<path d="M358.83,160.41c-0.51,0.24-1.53,0.5-2.75,0.5c-3.05,0-5.02-1.96-5.02-4.98c0-2.92,1.99-5.18,5.42-5.18
			c0.91,0,1.82,0.2,2.38,0.44l-0.44,1.85c-0.4-0.19-0.99-0.38-1.86-0.38c-1.88,0-2.99,1.37-2.98,3.16c0,2,1.31,3.14,2.99,3.14
			c0.84,0,1.45-0.18,1.93-0.38L358.83,160.41z"/>
		<path d="M366.14,160.7l-0.17-1.08h-0.06c-0.59,0.77-1.61,1.31-2.87,1.31c-1.98,0-3.07-1.41-3.07-2.9c0-2.46,2.19-3.7,5.78-3.69
			v-0.16c0-0.64-0.25-1.7-1.98-1.7c-0.95,0-1.95,0.31-2.62,0.73l-0.49-1.6c0.74-0.45,2-0.86,3.53-0.86c3.12,0,4.02,1.97,4.02,4.11
			v3.51c0,0.89,0.04,1.74,0.15,2.35H366.14z M365.82,155.93c-1.74-0.02-3.4,0.34-3.4,1.83c0,0.95,0.63,1.4,1.4,1.4
			c0.98,0,1.69-0.63,1.93-1.35c0.05-0.17,0.07-0.36,0.07-0.54V155.93z"/>
		<path d="M370.82,146.5h2.46v14.2h-2.46V146.5z"/>
		<path d="M375.84,158.44c0.54,0.34,1.6,0.71,2.48,0.71c1.08,0,1.57-0.45,1.57-1.09c0-0.66-0.4-0.99-1.6-1.42
			c-1.91-0.65-2.7-1.69-2.69-2.84c0-1.71,1.42-3.05,3.7-3.05c1.07,0,2.01,0.27,2.58,0.58l-0.49,1.73c-0.41-0.23-1.2-0.56-2.06-0.56
			c-0.88,0-1.36,0.43-1.36,1.03c0,0.62,0.47,0.92,1.7,1.36c1.77,0.63,2.59,1.53,2.6,2.97c0,1.78-1.38,3.06-3.96,3.06
			c-1.18,0-2.25-0.28-2.97-0.68L375.84,158.44z"/>
		<path d="M393.92,160.7l-0.17-1.08h-0.06c-0.59,0.77-1.61,1.31-2.87,1.31c-1.98,0-3.07-1.41-3.07-2.9c0-2.46,2.19-3.7,5.78-3.69
			v-0.16c0-0.64-0.25-1.7-1.98-1.7c-0.95,0-1.95,0.31-2.62,0.73l-0.49-1.6c0.74-0.45,2-0.86,3.53-0.86c3.12,0,4.02,1.97,4.02,4.11
			v3.51c0,0.89,0.04,1.74,0.15,2.35H393.92z M393.59,155.93c-1.74-0.02-3.4,0.34-3.4,1.83c0,0.95,0.63,1.4,1.4,1.4
			c0.98,0,1.69-0.63,1.93-1.35c0.05-0.17,0.07-0.36,0.07-0.54V155.93z"/>
		<path d="M401.42,148.17v2.79h2.34v1.83h-2.34v4.3c0,1.19,0.32,1.8,1.26,1.8c0.42,0,0.74-0.05,0.96-0.11l0.05,1.87
			c-0.37,0.14-1.02,0.25-1.79,0.25c-0.91,0-1.66-0.31-2.12-0.8c-0.53-0.56-0.77-1.46-0.77-2.73v-4.58h-1.39v-1.83h1.39v-2.21
			L401.42,148.17z"/>
		<path d="M409.76,154.09c0-1.3-0.03-2.26-0.08-3.13h2.13l0.09,1.85h0.07c0.48-1.37,1.62-2.07,2.67-2.07c0.24,0,0.38,0.01,0.58,0.05
			v2.32c-0.21-0.04-0.42-0.07-0.72-0.07c-1.17,0-1.99,0.75-2.21,1.86c-0.04,0.22-0.06,0.48-0.06,0.74v5.05h-2.46V154.09z"/>
		<path d="M419.49,148.24c0,0.74-0.53,1.33-1.4,1.33c-0.82,0-1.35-0.59-1.35-1.33c0-0.75,0.55-1.33,1.38-1.33
			C418.95,146.91,419.48,147.48,419.49,148.24z M416.88,160.7v-9.74h2.46v9.74H416.88z"/>
		<path d="M421.88,158.44c0.54,0.34,1.6,0.71,2.49,0.71c1.08,0,1.57-0.45,1.57-1.09c0-0.66-0.4-0.99-1.6-1.42
			c-1.91-0.65-2.7-1.69-2.69-2.84c0-1.71,1.42-3.05,3.7-3.05c1.07,0,2.01,0.27,2.58,0.58l-0.49,1.73c-0.41-0.23-1.2-0.56-2.06-0.56
			c-0.88,0-1.36,0.43-1.36,1.03c0,0.62,0.47,0.92,1.7,1.36c1.77,0.63,2.59,1.53,2.6,2.97c0,1.78-1.38,3.06-3.96,3.06
			c-1.18,0-2.25-0.28-2.97-0.68L421.88,158.44z"/>
		<path d="M432.8,155.23h0.04c0.23-0.38,0.51-0.79,0.77-1.14l2.38-3.13h2.96l-3.61,3.98l4.12,5.76h-3.02l-2.8-4.3l-0.83,0.99v3.32
			h-2.46v-14.2h2.46V155.23z"/>
		<path d="M440.18,159.37c0-0.92,0.63-1.57,1.52-1.57c0.9,0,1.5,0.64,1.51,1.57c0,0.88-0.59,1.55-1.51,1.55
			C440.8,160.92,440.18,160.25,440.18,159.37z M440.76,156.53l-0.37-9.31H443l-0.37,9.31H440.76z"/>
		<path d="M445.2,159.37c0-0.92,0.63-1.57,1.52-1.57c0.9,0,1.5,0.64,1.51,1.57c0,0.88-0.59,1.55-1.51,1.55
			C445.82,160.92,445.2,160.25,445.2,159.37z M445.78,156.53l-0.37-9.31h2.61l-0.37,9.31H445.78z"/>
	</g>
</g>
</svg>
